<svg width="44" height="44" viewBox="0 0 44 44" fill="none" xmlns="http://www.w3.org/2000/svg">
<g clip-path="url(#clip0_70_1335)">
<path fill-rule="evenodd" clip-rule="evenodd" d="M22.0013 3.66675C11.8758 3.66675 3.66797 11.8746 3.66797 22.0001C3.66797 32.1256 11.8758 40.3334 22.0013 40.3334C32.1268 40.3334 40.3346 32.1256 40.3346 22.0001C40.3346 11.8746 32.1268 3.66675 22.0013 3.66675ZM25.0685 22.6546C24.9357 22.7679 24.8334 22.9127 24.7709 23.0757C24.7085 23.2387 24.6879 23.4147 24.711 23.5877L25.4901 28.2664C25.512 28.3977 25.5049 28.5321 25.4696 28.6604C25.4342 28.7887 25.3713 28.9077 25.2853 29.0092C25.1993 29.1108 25.0922 29.1924 24.9715 29.2483C24.8508 29.3043 24.7194 29.3334 24.5863 29.3334H19.4163C19.2832 29.3334 19.1518 29.3043 19.0311 29.2483C18.9104 29.1924 18.8033 29.1108 18.7173 29.0092C18.6313 28.9077 18.5684 28.7887 18.533 28.6604C18.4977 28.5321 18.4906 28.3977 18.5125 28.2664L19.2916 23.5877C19.3147 23.4147 19.2941 23.2387 19.2317 23.0757C19.1692 22.9127 19.0669 22.7679 18.9341 22.6546C18.2456 22.0342 17.7613 21.2196 17.5452 20.3184C17.3291 19.4171 17.3913 18.4715 17.7236 17.6063C18.0559 16.7411 18.6427 15.997 19.4065 15.4721C20.1704 14.9473 21.0754 14.6663 22.0022 14.6663C22.929 14.6663 23.8341 14.9473 24.5979 15.4721C25.3618 15.997 25.9485 16.7411 26.2808 17.6063C26.6131 18.4715 26.6753 19.4171 26.4592 20.3184C26.2431 21.2196 25.757 22.0342 25.0685 22.6546Z" fill="#FEDA77"/>
</g>
<defs>
<clipPath id="clip0_70_1335">
<rect width="44" height="44" fill="white"/>
</clipPath>
</defs>
</svg>
