<svg version="1.2" xmlns="http://www.w3.org/2000/svg" viewBox="0 0 323 137" width="323" height="137">
	<title>memelogo-svg</title>
	<defs>
		<linearGradient id="g1" x2="1" gradientUnits="userSpaceOnUse" gradientTransform="matrix(0,105.59,-306.648,0,158.02,13.34)">
			<stop offset="0" stop-color="#d1951e"/>
			<stop offset=".32" stop-color="#f4c731"/>
			<stop offset=".68" stop-color="#f4f192"/>
			<stop offset="1" stop-color="#e2b830"/>
		</linearGradient>
		<linearGradient id="g2" x2="1" gradientUnits="userSpaceOnUse" gradientTransform="matrix(-17.26,29.91,-29.371,-16.949,163.28,10.94)">
			<stop offset="0" stop-color="#d1951e"/>
			<stop offset=".32" stop-color="#f4c731"/>
			<stop offset=".68" stop-color="#f4f192"/>
			<stop offset="1" stop-color="#e2b830"/>
		</linearGradient>
		<linearGradient id="g3" x2="1" gradientUnits="userSpaceOnUse" gradientTransform="matrix(-15.42,26.69,-24.987,-14.436,191.79,12.89)">
			<stop offset="0" stop-color="#d1951e"/>
			<stop offset=".32" stop-color="#f4c731"/>
			<stop offset=".68" stop-color="#f4f192"/>
			<stop offset="1" stop-color="#e2b830"/>
		</linearGradient>
		<linearGradient id="g4" x2="1" gradientUnits="userSpaceOnUse" gradientTransform="matrix(-17.27,29.91,-29.352,-16.948,220.3,10.94)">
			<stop offset="0" stop-color="#d1951e"/>
			<stop offset=".32" stop-color="#f4c731"/>
			<stop offset=".68" stop-color="#f4f192"/>
			<stop offset="1" stop-color="#e2b830"/>
		</linearGradient>
		<linearGradient id="g5" x2="1" gradientUnits="userSpaceOnUse" gradientTransform="matrix(-15.41,26.69,-24.988,-14.427,248.8,12.89)">
			<stop offset="0" stop-color="#d1951e"/>
			<stop offset=".32" stop-color="#f4c731"/>
			<stop offset=".68" stop-color="#f4f192"/>
			<stop offset="1" stop-color="#e2b830"/>
		</linearGradient>
		<linearGradient id="g6" x2="1" gradientUnits="userSpaceOnUse" gradientTransform="matrix(-13.45,23.31,-20.813,-12.009,140.28,100.15)">
			<stop offset="0" stop-color="#d1951e"/>
			<stop offset=".32" stop-color="#f4c731"/>
			<stop offset=".68" stop-color="#f4f192"/>
			<stop offset="1" stop-color="#e2b830"/>
		</linearGradient>
		<linearGradient id="g7" x2="1" gradientUnits="userSpaceOnUse" gradientTransform="matrix(-14.8,25.63,-22.005,-12.707,164.01,96.01)">
			<stop offset="0" stop-color="#d1951e"/>
			<stop offset=".32" stop-color="#f4c731"/>
			<stop offset=".68" stop-color="#f4f192"/>
			<stop offset="1" stop-color="#e2b830"/>
		</linearGradient>
		<linearGradient id="g8" x2="1" gradientUnits="userSpaceOnUse" gradientTransform="matrix(-14.82,25.68,-23.65,-13.649,190.89,96.91)">
			<stop offset="0" stop-color="#d1951e"/>
			<stop offset=".32" stop-color="#f4c731"/>
			<stop offset=".68" stop-color="#f4f192"/>
			<stop offset="1" stop-color="#e2b830"/>
		</linearGradient>
		<linearGradient id="g9" x2="1" gradientUnits="userSpaceOnUse" gradientTransform="matrix(-14.86,25.75,-24.456,-14.113,217.69,99.36)">
			<stop offset="0" stop-color="#d1951e"/>
			<stop offset=".32" stop-color="#f4c731"/>
			<stop offset=".68" stop-color="#f4f192"/>
			<stop offset="1" stop-color="#e2b830"/>
		</linearGradient>
		<linearGradient id="g10" x2="1" gradientUnits="userSpaceOnUse" gradientTransform="matrix(-13.1,22.68,-16.858,-9.737,241.55,100.24)">
			<stop offset="0" stop-color="#d1951e"/>
			<stop offset=".32" stop-color="#f4c731"/>
			<stop offset=".68" stop-color="#f4f192"/>
			<stop offset="1" stop-color="#e2b830"/>
		</linearGradient>
		<linearGradient id="g11" x2="1" gradientUnits="userSpaceOnUse" gradientTransform="matrix(-13.52,23.42,-21.945,-12.669,264.29,99.82)">
			<stop offset="0" stop-color="#d1951e"/>
			<stop offset=".32" stop-color="#f4c731"/>
			<stop offset=".68" stop-color="#f4f192"/>
			<stop offset="1" stop-color="#e2b830"/>
		</linearGradient>
	</defs>
	<style>
		.s0 { fill: url(#g1) } 
		.s1 { fill: url(#g2) } 
		.s2 { fill: url(#g3) } 
		.s3 { fill: url(#g4) } 
		.s4 { fill: url(#g5) } 
		.s5 { fill: url(#g6) } 
		.s6 { fill: url(#g7) } 
		.s7 { fill: url(#g8) } 
		.s8 { fill: url(#g9) } 
		.s9 { fill: url(#g10) } 
		.s10 { fill: url(#g11) } 
	</style>
	<g id="圖層_1">
		<path fill-rule="evenodd" class="s0" d="m51.7 13.4q0.5-0.1 1.1-0.1 0.5 0 1 0 0.5-0.1 1.1 0 1.3 0 2.7 0.2 1.4 0.2 2.7 0.4 1.3 0.3 2.6 0.7 1.3 0.5 2.6 1 0.8 0.3 1.6 0.7 0.8 0.4 1.6 0.8 0.8 0.5 1.5 1 0.7 0.4 1.5 1 0.4 0.3 0.8 0.6 0.4 0.4 0.7 0.7 0.4 0.4 0.8 0.8 0.3 0.4 0.7 0.8 0.5 0.7 1.1 1.4 0.5 0.8 1 1.5 0.4 0.8 0.8 1.6 0.5 0.8 0.8 1.7c0.4 0.8 0.7 1.7 1 2.6q0.2 0.5 0.4 1 0 0.1 0.1 0.1 0 0 0 0.1 0 0 0.1 0 0 0 0 0.1 0.1 0 0.1 0 0 0 0 0 0.1 0 0.1 0 0 0 0 0 0.1 0 0.1 0 0.1 0 0.1 0 0.1-0.1 0.1-0.1 0.1 0 0.1 0 0.5-0.3 1-0.5 0.6-0.3 1.1-0.4 0.6-0.2 1.1-0.2 0.6-0.1 1.2-0.1 0.5 0 1.1 0 0.7 0 1.4 0.1 0.8 0.1 1.4 0.4 0.7 0.2 1.3 0.6 0.6 0.4 1.2 0.9 0.3 0.3 0.7 0.6 0.3 0.4 0.6 0.7 0.3 0.4 0.6 0.8 0.3 0.4 0.5 0.8 0.2 0.3 0.3 0.6 0.2 0.2 0.3 0.5 0.2 0.3 0.3 0.6 0.2 0.3 0.3 0.6 0.1 0.3 0.3 0.6 0.1 0.3 0.2 0.6 0.2 0.3 0.4 0.6 0.1 0.3 0.3 0.6 0.1 0.2 0.3 0.5 0.2 0.2 0.4 0.5 0.2 0.2 0.4 0.4 0.2 0.3 0.4 0.5 0.2 0.2 0.5 0.5 0.3 0.2 0.6 0.4 0.3 0.2 0.6 0.3 0.3 0.2 0.6 0.3l0.7 0.3q0.3 0.2 0.5 0.3 0.3 0.2 0.6 0.4 0.2 0.2 0.4 0.4 0.2 0.3 0.4 0.5 0.2 0.3 0.3 0.5 0.2 0.3 0.3 0.5 0.1 0.3 0.2 0.6 0.1 0.3 0.2 0.5 0.1 0.4 0.2 0.8 0 0.1 0.1 0.2 0 0 0 0.1 0 0.1 0 0.1 0.1 0.1 0.1 0.2 0 0.1 0.1 0.2 0.1 0.1 0.2 0.2 0.1 0.1 0.2 0.2 0.1 0 0.3 0c0.2 0.1 0.4 0.1 0.6 0.1q0.4 0.1 0.9 0.2 0.4 0.1 0.8 0.2 0.4 0.2 0.8 0.3 0.4 0.2 0.8 0.4 0.3 0.2 0.6 0.4 0.1 0.1 0.3 0.2 0.1 0.1 0.2 0.3 0.2 0.1 0.3 0.3 0.1 0.1 0.2 0.3 0 0.2 0.1 0.3 0.1 0.1 0.3 0.2 0.1 0.1 0.3 0.2 0.1 0 0.3 0.1 0.2 0 0.5 0.1 0.3 0 0.6 0.1 0.3 0 0.6 0 0.2 0 0.5 0.1 0.2 0 0.4 0 0.2 0 0.4 0 0.2 0 0.4 0.1 0.2 0 0.4 0 0.5 0.2 1.1 0.3 0 0.1 0.1 0.1 0 0 0.1 0 0.1 0.1 0.1 0.1 0.1 0 0.1 0.1 0.3 0.1 0.6 0.3 0.2 0.2 0.4 0.5 0.2 0.2 0.3 0.5 0.2 0.3 0.2 0.7 0.1 0.4 0.2 0.8 0 0.1 0 0.2 0 0 0 0.1 0 0.1 0.1 0.1 0 0.1 0 0.2 0.1 0.1 0.1 0.3 0.1 0.1 0.3 0.2 0.1 0.1 0.2 0.1 0.2 0.1 0.3 0.1 0.1 0 0.2 0 0.1 0 0.1 0 0.1 0 0.2 0 0.1 0 0.2 0h5.6l10.4 0.1 15.5 0.1 11.5 0.1 15.5 0.1 12.2 0.1h36.5c4.7 0 9.4 0.1 14 0.1 1 0 2 0.1 3 0.1q0.2 0.1 0.4 0.1 0.2 0 0.4 0 0.2 0.1 0.4 0.1 0.2 0 0.4 0.1 0.2 0.1 0.5 0.2 0.2 0.1 0.5 0.2 0.2 0.1 0.4 0.3 0.3 0.1 0.5 0.3 0.1 0.1 0.2 0.2 0.1 0.1 0.2 0.2 0.1 0.1 0.2 0.2 0.1 0.1 0.2 0.2 0.2 0.2 0.4 0.4 0.3 0.2 0.5 0.3 0.3 0.2 0.6 0.3 0.3 0.1 0.6 0.1 0.3 0 0.6 0.1 0.3 0 0.7 0 0.3 0 0.6 0 0.3 0 0.6 0.1c2.2 0 6.7 0 8.9 0v-15.6q0-0.2 0.1-0.4 0.1-0.1 0.2-0.3 0.1-0.1 0.3-0.2 0.2-0.1 0.4-0.1h11.1q0.2 0 0.4 0.1 0.2 0.1 0.3 0.2 0.1 0.2 0.2 0.3 0.1 0.2 0.1 0.4v6.4q0 0.2-0.1 0.4-0.1 0.2-0.2 0.3-0.1 0.2-0.3 0.3-0.2 0-0.4 0h-3.2q-0.2 0-0.4 0.1-0.2 0.1-0.3 0.2-0.2 0.2-0.3 0.4 0 0.1 0 0.3v7.1l7-0.1h4.8v-4.5q0-0.2 0.1-0.4 0-0.2 0.2-0.3 0.1-0.2 0.3-0.3 0.2 0 0.4 0h5.8q0.2 0 0.4 0 0.1 0.1 0.3 0.3 0.1 0.1 0.2 0.3 0.1 0.2 0.1 0.4v4.5h9.2v-7q0-0.2-0.1-0.4-0.1-0.2-0.2-0.3-0.1-0.2-0.3-0.2-0.2-0.1-0.4-0.1h-3.3q-0.1 0-0.3-0.1-0.2-0.1-0.4-0.2-0.1-0.2-0.2-0.3 0-0.2-0.1-0.4v-6.4q0.1-0.2 0.1-0.4 0.1-0.1 0.2-0.3 0.2-0.1 0.4-0.2 0.2-0.1 0.3-0.1h11.2q0.2 0 0.3 0.1 0.2 0.1 0.4 0.2 0.1 0.2 0.2 0.3 0.1 0.2 0.1 0.4v15.7c0.1 0.1 2.9 0.1 3.1 0.2q0.2 0.1 0.4 0.2 0.2 0.1 0.3 0.2 0.2 0.2 0.3 0.3 0.1 0.2 0.2 0.4 0.1 0.2 0.2 0.3 0 0.2 0.1 0.3 0 0.2 0 0.3 0.1 0.2 0.1 0.4c0 0.2 0.1 0.5 0.1 0.8q0 0.4 0 0.9 0.1 0.4 0 0.9 0 0.4 0 0.9-0.1 0.4-0.1 0.9-0.1 0.2-0.1 0.3-0.1 0.2-0.1 0.4-0.1 0.2-0.2 0.4-0.1 0.2-0.1 0.4-0.2 0.2-0.4 0.5-0.2 0.2-0.4 0.3-0.2 0.2-0.5 0.3-0.3 0.1-0.6 0.1h-0.5c-3.1 0.1-6.2 0.1-9.3 0.1h-6.4l-32.7 0.1c-0.2-0.1-2.2-0.1-3.1-0.1-2-0.1-4.1-0.1-6.1-0.1h-1.1q-0.2 0-0.3 0-0.2 0.1-0.4 0.2-0.1 0-0.3 0.2-0.1 0.1-0.2 0.2-0.2 0.3-0.5 0.6-0.3 0.2-0.6 0.5-0.3 0.2-0.6 0.4-0.3 0.1-0.6 0.3-0.4 0.1-0.7 0.3-0.3 0.1-0.7 0.2-0.3 0-0.7 0.1-0.3 0-0.7 0-3.6 0-7.2 0h-17q-7 0-14 0-12.9-0.1-25.8-0.1h-21.2c-3.6-0.1-7.1-0.1-10.7-0.1-6.9-0.1-13.7-0.1-20.6-0.1q-3.2 0-6.4 0c-0.5 0-1 0-1.5 0q-0.1 0-0.2 0-0.1 0.1-0.2 0.2-0.1 0-0.1 0.1-0.1 0.1-0.1 0.2c-0.1 0.3-0.1 0.3-0.2 0.7q-0.2 0.6-0.5 1.2 0 0.1-0.1 0.3-0.1 0.1-0.2 0.2-0.1 0.2-0.2 0.3-0.1 0.1-0.2 0.2-0.2 0.2-0.3 0.3-0.2 0.2-0.4 0.3-0.2 0.1-0.4 0.2-0.2 0.1-0.5 0.1-0.1 0.1-0.3 0.1-0.2 0-0.4 0-0.2 0.1-0.3 0.1-0.2 0-0.4 0c-0.6 0-2.1 0-2.8 0q-0.1 0-0.2 0-0.1 0-0.2 0.1-0.1 0-0.1 0.1-0.1 0-0.2 0.1 0 0.1-0.1 0.1-0.1 0.1-0.1 0.2-0.1 0-0.1 0.1-0.1 0.1-0.1 0.2-0.3 0.3-0.6 0.6-0.3 0.3-0.6 0.6-0.4 0.3-0.8 0.5-0.4 0.2-0.8 0.4-0.1 0.1-0.3 0.1-0.2 0.1-0.4 0.2-0.2 0-0.4 0.1-0.2 0-0.3 0.1-0.2 0-0.3 0-0.1 0-0.2 0-0.2 0.1-0.3 0.1-0.1 0-0.2 0-0.1 0-0.2 0 0 0-0.1 0-0.1 0-0.2 0 0 0-0.1 0-0.1 0-0.1 0-0.1 0-0.2 0.1 0 0-0.1 0.1 0 0 0 0.1-0.1 0.1-0.1 0.1-0.1 0.1-0.1 0.2 0 0.1-0.1 0.1 0 0.1 0 0.2-0.1 0.3-0.3 0.7-0.1 0.3-0.3 0.6-0.1 0.4-0.3 0.7-0.2 0.3-0.4 0.6-0.1 0.3-0.3 0.6-0.1 0.2-0.3 0.4-0.1 0.2-0.3 0.3-0.1 0.2-0.3 0.3-0.2 0.2-0.4 0.3-0.5 0.3-1 0.6c-0.5 0.3-1 0.5-1.5 0.8q-0.4 0.2-0.7 0.4-0.3 0.2-0.6 0.5-0.3 0.3-0.6 0.6-0.3 0.3-0.5 0.7-0.3 0.6-0.7 1.1-0.1 0.1-0.2 0.3 0 0.1-0.1 0.2-0.1 0.1-0.1 0.3-0.1 0.1-0.1 0.2-0.2 0.5-0.3 1-0.2 0.4-0.3 0.7-0.2 0.4-0.4 0.7-0.2 0.3-0.4 0.6-0.2 0.3-0.4 0.6-0.4 0.5-0.8 0.9-0.4 0.4-0.9 0.8-0.4 0.4-0.9 0.7-0.5 0.3-1 0.6-0.5 0.3-1 0.5-0.6 0.3-1.2 0.4-0.5 0.2-1.1 0.3-0.6 0.1-1.2 0.1-0.4 0-0.8 0-0.3-0.1-0.7-0.1-0.4-0.1-0.8-0.1-0.3-0.1-0.7-0.2-0.2-0.1-0.4-0.2-0.2 0-0.4-0.1-0.1-0.1-0.3-0.2-0.2-0.1-0.3-0.3-0.1 0-0.2 0 0-0.1-0.1-0.1-0.1 0-0.1-0.1-0.1 0-0.2 0-0.1-0.1-0.2-0.1-0.1 0-0.2 0.1-0.1 0-0.2 0.1-0.1 0.1-0.1 0.2 0 0.1-0.1 0.2 0 0.1 0 0.2 0 0.1 0 0.2-0.1 0.1-0.1 0.2-0.1 0.5-0.3 1-0.2 0.5-0.4 1.1-0.3 0.5-0.5 1-0.2 0.5-0.5 1-0.6 1.2-1.4 2.3-0.7 1.1-1.6 2.1-0.9 1-1.9 1.9-1 0.9-2.1 1.7-0.8 0.5-1.6 1-0.8 0.5-1.6 0.9-0.9 0.5-1.8 0.8-0.8 0.4-1.7 0.7-0.9 0.3-1.7 0.5-0.9 0.2-1.8 0.4-0.8 0.2-1.7 0.4-0.9 0.1-1.8 0.2-0.3 0-0.6 0.1-0.3 0-0.6 0-0.3 0-0.6 0-0.3 0-0.6 0-1 0-2-0.1-1.1-0.1-2.1-0.2-1-0.2-2-0.4-1-0.2-2-0.5-1.3-0.4-2.5-0.8-1.3-0.5-2.5-1.1-1.2-0.7-2.3-1.4-1.1-0.7-2.1-1.6-0.7-0.5-1.3-1-0.6-0.6-1.2-1.2-0.6-0.5-1.1-1.1-0.6-0.6-1.1-1.3-0.5-0.6-1-1.2-0.5-0.6-1-1.2-0.5-0.6-0.9-1.3-0.5-0.6-0.9-1.3c-6.6-9.9-14.5-18.9-20.5-29.2-1.7-2.8-3.2-5.9-2.9-9.1 0.3-2.8 2-5.3 3.6-7.6l15.1-21c4.5-6.2 8.3-13.1 14.5-17.5q1-0.7 2-1.4 1-0.6 2.1-1.1 1-0.6 2.1-1 1.1-0.5 2.3-0.8 0.5-0.2 1-0.4 0.6-0.1 1.1-0.2 0.6-0.1 1.1-0.2 0.6-0.1 1.2-0.2 0.5-0.1 1-0.1zm-22.5 45.7q0.1 0 0.3 0 0.1 0 0.2-0.1 0.1 0 0.2-0.1 0.1-0.1 0.2-0.1 0.1-0.1 0.2-0.3 0-0.1 0.1-0.2 0-0.2 0-0.3 0-0.1 0-0.1 0-0.1 0-0.2 0-0.1 0-0.1 0-0.1-0.1-0.2 0-0.3-0.2-0.6-0.1-0.4-0.2-0.9-0.1-0.4-0.2-0.9-0.1-0.4-0.1-0.9-0.1-0.4-0.1-0.9 0-1.1 0.2-2.1 0.2-1.1 0.6-2.1 0.4-0.9 1-1.8 0.6-0.9 1.3-1.7 0.5-0.4 1-0.8 0.5-0.4 1-0.8 0.5-0.4 1.1-0.7 0.5-0.4 1.1-0.7 0.3-0.1 0.6-0.3 0 0 0.1 0 0-0.1 0-0.1 0.1 0 0.1-0.1 0-0.1 0-0.1 0 0 0 0 0-0.1 0-0.1 0 0 0 0 0-0.1 0-0.1-0.1-0.3-0.1-0.6-0.1-0.3-0.1-0.6 0-0.3 0.1-0.7 0-0.3 0.1-0.6 0.1-0.4 0.2-0.8 0-0.2 0-0.5 0-0.3-0.1-0.5-0.1-0.2-0.3-0.4-0.2-0.2-0.5-0.3c-0.4-0.2-0.8-0.5-1.3-0.8l-0.4-0.3q-0.1-0.1-0.1-0.1 0 0-0.1-0.1 0 0-0.1 0 0 0 0 0-0.1-0.1-0.2-0.1-0.1 0-0.2 0-0.1 0-0.1 0-0.1 0-0.2 0.1c-0.4 0.5-0.9 1-1.3 1.5-1.1 1.3-2.1 2.7-3.2 4-3.1 3.8-6 7.8-8.8 11.7q-0.2 0.3-0.4 0.6-0.1 0.1-0.1 0.2-0.1 0.1 0 0.2 0 0.2 0 0.3 0.1 0.1 0.2 0.2 0.1 0 0.1 0.1 0.1 0.1 0.2 0.2 0 0 0.1 0.1 0.1 0.1 0.2 0.1 0.5 0.4 1 0.8 0.5 0.4 1 0.8 0.5 0.4 1 0.7 0.5 0.4 1.1 0.7 0.3 0.2 0.6 0.4 0.3 0.2 0.7 0.3 0.3 0.2 0.7 0.3 0.3 0.2 0.7 0.3 0.1 0 0.2 0.1 0.1 0 0.3 0 0.1 0.1 0.2 0.1 0.2 0 0.3 0 0.1 0 0.2 0zm21-0.3q0.1 0.1 0.3 0.2 0.1 0.1 0.3 0.2 0.2 0 0.4 0 0.2 0 0.4 0 0.1-0.1 0.2-0.1 0.1 0 0.1-0.1 0.1 0 0.2-0.1 0.1 0 0.2-0.1 0.8-0.5 1.6-1 0.3-0.1 0.5-0.3 0.3-0.2 0.6-0.5 0.3-0.2 0.5-0.4 0.3-0.2 0.5-0.5 0.1-0.1 0.2-0.2 0.1-0.1 0.2-0.3 0.1-0.1 0.2-0.2 0.1-0.2 0.2-0.3 0.1-0.1 0.1-0.3 0.1-0.1 0.1-0.2 0.1-0.2 0.1-0.3 0-0.2 0-0.3 0-0.3 0-0.6-0.1-0.3-0.2-0.5-0.1-0.3-0.2-0.5-0.1-0.2-0.3-0.5-0.2-0.1-0.3-0.3-0.2-0.1-0.3-0.3-0.2-0.1-0.4-0.3-0.2-0.1-0.4-0.2c-1.1-0.6-2.1-1.2-3.2-1.7q-0.4-0.2-0.8-0.3-0.4-0.2-0.8-0.3-0.4-0.1-0.9-0.2-0.4-0.1-0.8-0.1c-0.6-0.1-1-0.2-1.5-0.2q-0.3-0.1-0.6-0.1-0.2 0-0.5-0.1-0.3 0-0.5 0-0.3 0-0.6 0-0.4 0-0.9 0-0.5 0.1-0.9 0.1-0.5 0.1-1 0.2-0.4 0-0.9 0.1-0.4 0.1-0.8 0.3-0.4 0.1-0.9 0.2-0.4 0.2-0.8 0.4-0.4 0.1-0.8 0.3-0.1 0.1-0.2 0.1-0.1 0.1-0.2 0.2-0.1 0.1-0.3 0.1-0.1 0.1-0.2 0.2-0.5 0.5-0.9 1.1-0.4 0.7-0.6 1.4-0.2 0.7-0.1 1.5 0 0.7 0.3 1.4 0.1 0.3 0.2 0.5 0.1 0.2 0.3 0.3 0.1 0.2 0.3 0.3 0.2 0.2 0.4 0.3 0.2 0 0.3 0.1 0.2 0 0.3 0 0.2 0.1 0.3 0.1 0.2 0 0.3 0 0.4 0 0.8 0 0.1 0 0.3 0 0.2 0 0.4 0 0.1 0 0.3 0 0.2 0.1 0.4 0.1 0.3 0.1 0.7 0.2 0 0.1 0.1 0.1 0.1 0 0.2 0 0.1-0.1 0.1-0.1 0.1-0.1 0.2-0.1 0.1-0.2 0.2-0.3 0.2-0.3 0.5-0.5 0.2-0.2 0.5-0.3 0.3-0.2 0.6-0.3 0.3-0.1 0.7-0.2 0.4-0.1 0.9-0.1 0.4 0 0.9 0 0.4 0.1 0.9 0.2 0.4 0.1 0.9 0.2 0.3 0.1 0.5 0.3 0.3 0.1 0.5 0.3 0.2 0.2 0.4 0.4 0.2 0.3 0.3 0.5 0.2 0.3 0.4 0.7 0 0.1 0.1 0.2 0 0.1 0.1 0.2 0.1 0 0.1 0.1 0.1 0.1 0.2 0.2zm-6.2 5q-0.1 0-0.1 0-0.1 0-0.1-0.1 0 0 0 0-0.1-0.1-0.1-0.1l-1.7-2.9q-0.1-0.2-0.2-0.2-0.2-0.1-0.3-0.1-0.2 0-0.4 0.1-0.1 0-0.2 0.2l-1.7 2.9q0 0-0.1 0.1 0 0 0 0-0.1 0.1-0.1 0.1 0 0-0.1 0l-3 1.6q-0.1 0.1-0.2 0.2-0.1 0.2-0.1 0.4 0 0.1 0.1 0.3 0.1 0.1 0.2 0.2l3 1.6q0.1 0 0.1 0 0 0 0.1 0.1 0 0 0 0 0.1 0.1 0.1 0.1l1.7 2.9q0.1 0.2 0.2 0.3 0.2 0 0.4 0 0.1 0 0.3 0 0.1-0.1 0.2-0.3l1.7-2.9q0 0 0-0.1 0.1 0 0.1 0 0-0.1 0.1-0.1 0 0 0.1 0l3-1.6q0.1-0.1 0.2-0.2 0.1-0.2 0.1-0.3 0-0.2-0.1-0.4-0.1-0.1-0.2-0.2zm8.2 0.5q-0.3 0-0.6 0.1-0.3 0.1-0.5 0.4-0.3 0.2-0.4 0.5-0.1 0.3-0.1 0.6c0 0.7 0.4 1.3 1 1.5 0.6 0.3 1.3 0.1 1.7-0.3 0.5-0.5 0.6-1.2 0.4-1.8-0.2-0.6-0.8-1-1.4-1zm-20.6 3.2q0.3 0 0.6-0.1 0.3-0.1 0.5-0.3 0.2-0.2 0.4-0.5 0.1-0.3 0.1-0.6c0-0.7-0.4-1.3-1-1.5-0.6-0.3-1.3-0.1-1.7 0.3-0.5 0.5-0.6 1.2-0.4 1.8 0.3 0.6 0.9 1 1.5 1zm-13.4 4.1q0 0.1 0.1 0.1 0 0 0 0 0.1 0 0.1 0 0.1 0 0.1 0l8.5-5.5q0.1 0 0.1-0.1 0 0 0-0.1 0 0 0-0.1 0 0-0.1-0.1l-8.5-5.3q0-0.1 0-0.1-0.1 0-0.1 0-0.1 0-0.1 0 0 0-0.1 0.1l-5.4 5.4q0 0 0 0.1-0.1 0-0.1 0.1 0 0 0.1 0.1 0 0 0 0l5.4 5.5zm15.5 25q-0.1 0-0.1 0 0 0 0 0zm0 0q0.1 0 0.1 0 0.1 0.1 0.2 0.1 0.1 0 0.2 0 0.1-0.1 0.1-0.1l0.3-0.1q0.2-0.1 0.4-0.2 0.2-0.2 0.4-0.3 0.2-0.1 0.4-0.2 0.2-0.2 0.3-0.3 0.2-0.1 0.3-0.3 0.2-0.1 0.3-0.2 0.2-0.1 0.3-0.2 0.2-0.1 0.4-0.1 0-0.1 0.1-0.1 0.1-0.1 0.1-0.1 0-0.1 0-0.2 0 0 0-0.1-0.2-0.9-0.4-1.9-0.1-0.2-0.1-0.5-0.1-0.2-0.1-0.5 0-0.3 0.1-0.5 0-0.3 0.1-0.5 0.1-0.4-0.3-0.5-0.3-0.1-0.5-0.2-0.3-0.1-0.5-0.2-0.2-0.2-0.5-0.3-0.2-0.1-0.4-0.3-0.6-0.4-1.1-0.8-0.5-0.4-1-0.8-0.5-0.5-0.9-1-0.5-0.4-0.9-0.9-0.3-0.4-0.5-0.8-0.3-0.4-0.5-0.9-0.2-0.4-0.3-0.8-0.2-0.5-0.3-0.9-0.1-0.9-0.2-1.8 0-0.9 0.1-1.8 0-0.9 0.2-1.7 0.2-0.9 0.4-1.7 0.1-0.4 0.2-0.7 0.1-0.2 0-0.5 0-0.2-0.2-0.5-0.2-0.2-0.4-0.3-0.2-0.1-0.5-0.1c-0.1-0.1-0.3-0.1-0.5-0.1h-0.4q-0.4 0.1-0.7 0.2-0.4 0.1-0.8 0.2-0.3 0.1-0.7 0.3-0.3 0.2-0.7 0.4-0.3 0.1-0.7 0.3-1.9 1.3-3.7 2.6-0.1 0.1-0.2 0.1 0 0.1-0.1 0.1-0.1 0.1-0.1 0.2-0.1 0-0.2 0.1-0.1 0.1-0.1 0.2-0.1 0.1-0.1 0.3-0.1 0.1 0 0.2 0 0.2 0.1 0.3 0.3 0.5 0.6 0.9l4.9 6.7q2.2 3 4.3 6 1.3 1.7 2.6 3.5 0.3 0.5 0.7 0.9 0 0 0.1 0.1 0 0 0.1 0.1 0 0 0.1 0.1 0.1 0 0.1 0.1zm14.5-21.1q-0.3 0.4-0.7 0.6-0.3 0.3-0.8 0.5-0.4 0.1-0.9 0.2-0.4 0-0.9 0-0.5 0-1-0.2-0.4-0.1-0.9-0.3-0.4-0.3-0.8-0.6-0.5-0.3-0.8-0.6l-0.3-0.3q0 0 0 0-0.1 0-0.1 0-0.1 0-0.1 0 0 0 0 0-0.1 0-0.1 0 0 0-0.1 0 0 0 0 0.1-0.1 0-0.1 0-0.1 0.1-0.3 0.1-0.2 0.1-0.3 0.1-0.2 0.1-0.4 0.1-0.1 0.1-0.3 0.1-0.2 0-0.4 0-0.2 0.1-0.3 0.1-0.2 0-0.4 0-0.2 0-0.4 0h-1q-0.1 0-0.3 0.1-0.2 0-0.3 0.1-0.2 0.1-0.3 0.2-0.1 0.2-0.2 0.3 0 0.1-0.1 0.2 0 0.2-0.1 0.3 0 0.1 0 0.2-0.1 0.1-0.1 0.2-0.1 0.4-0.1 0.8-0.1 0.4 0 0.7 0 0.4 0.1 0.8 0.2 0.3 0.3 0.7 0.2 0.2 0.3 0.4 0.2 0.3 0.3 0.5 0.2 0.2 0.4 0.4 0.2 0.2 0.4 0.3 0.4 0.3 0.8 0.6 0.5 0.3 1 0.5 0.4 0.3 0.9 0.5 0.5 0.2 1 0.3 0.5 0.2 1 0.3 0.6 0.2 1.2 0.3 0.6 0.1 1.2 0.2 0.6 0.1 1.2 0.1 0.6 0.1 1.3 0.1h1q0 0 0.1 0 0.1 0 0.2 0 0.1 0 0.2 0 0 0 0.1 0 1.1-0.2 2.1-0.4 1-0.3 1.9-0.8 0.9-0.5 1.8-1.1 0.8-0.6 1.6-1.3 0.1-0.1 0.3-0.3 0.1-0.2 0.3-0.3 0.1-0.2 0.3-0.4 0.1-0.2 0.2-0.3 0.1-0.1 0.2-0.2 0-0.1 0.1-0.2 0.1-0.1 0.1-0.3 0.1-0.1 0.1-0.2 0.1-0.2 0.1-0.4 0-0.2 0-0.4 0-0.1-0.1-0.3 0-0.2-0.1-0.4-0.1-0.1-0.1-0.2-0.1-0.1-0.1-0.2-0.1-0.1-0.2-0.2 0 0-0.1-0.1-0.2-0.2-0.4-0.3-0.1-0.2-0.3-0.3-0.2-0.1-0.4-0.3-0.2-0.1-0.4-0.2l-3.4-1.9-0.5-0.3q-0.1 0-0.2-0.1-0.2 0-0.3 0-0.2 0-0.3 0.1-0.1 0-0.3 0.1 0 0.1-0.1 0.1-0.1 0.1-0.1 0.1-0.1 0.1-0.2 0.2 0 0-0.1 0.1 0 0.1-0.1 0.2-0.1 0-0.1 0.1-0.1 0.1-0.1 0.1-0.1 0.1-0.1 0.2-0.1 0.2-0.3 0.3-0.1 0.2-0.2 0.3-0.1 0.2-0.3 0.3-0.1 0.2-0.2 0.3zm40.1 19.6q0-0.4-0.1-0.6-0.2-0.3-0.4-0.5-0.2-0.3-0.5-0.4-0.3-0.1-0.6-0.1c-0.6 0-1.2 0.4-1.5 1-0.2 0.6-0.1 1.3 0.4 1.8 0.4 0.4 1.1 0.6 1.7 0.3 0.7-0.2 1.1-0.8 1.1-1.5zm-19.3-2q-0.1-0.2-0.3-0.3-0.2-0.1-0.4-0.1-0.2-0.1-0.4-0.1-0.2 0-0.3 0-0.1 0-0.2 0.1-0.1 0-0.2 0 0 0.1-0.1 0.1-0.1 0.1-0.1 0.1-0.1 0.1-0.1 0.2-0.1 0.1-0.2 0.2 0 0 0 0.1-0.1 0.1-0.1 0.2-0.1 0.6-0.2 1.2 0 0.2 0 0.5-0.1 0.2-0.1 0.5 0 0.2-0.1 0.5 0 0.2-0.1 0.5 0 0.1-0.1 0.3 0 0.1-0.1 0.3 0 0.1-0.1 0.2-0.1 0.2-0.1 0.3-0.1 0.2-0.3 0.4-0.1 0.1-0.3 0.2-0.2 0.2-0.4 0.3-0.2 0.1-0.4 0.1-0.1 0-0.2 0-0.1 0-0.2 0.1-0.1 0-0.2 0-0.1 0-0.2 0-0.6 0-1.1-0.1-0.6-0.1-1.1-0.3-0.5-0.2-1-0.5-0.5-0.4-0.9-0.7-0.5-0.5-0.9-0.9-0.3-0.5-0.7-1-0.3-0.6-0.5-1.1-0.3-0.6-0.4-1.2-0.1-0.3-0.2-0.5 0-0.3-0.1-0.6 0-0.3 0-0.6 0-0.3 0.1-0.5 0-0.2 0-0.3 0-0.1 0-0.2 0-0.1 0-0.2 0-0.1 0-0.2 0-0.1-0.1-0.2 0-0.1-0.1-0.1 0-0.1-0.1-0.1-0.1 0-0.2 0 0 0-0.1 0 0 0 0 0-0.1 0.1-0.1 0.1-0.1 0-0.1 0l-0.5 0.2q-1 0.3-2 0.7-0.4 0.1-0.7 0.2-0.4 0.1-0.7 0.2-0.4 0-0.7 0.1-0.4 0.1-0.7 0.2-0.6 0-1.3 0.1-0.6 0.1-1.2 0.1-0.6 0.1-1.3 0.1-0.6 0-1.2 0h-0.5q-0.1 0-0.2 0-0.1 0.1-0.2 0.2-0.1 0-0.2 0.1 0 0.1 0 0.2-0.2 0.5-0.3 0.9 0 0.2-0.1 0.4 0 0.2-0.1 0.4-0.1 0.2-0.2 0.4 0 0.2-0.1 0.4-0.1 0.2-0.2 0.3-0.1 0.2-0.2 0.3-0.1 0.1-0.2 0.3-0.1 0.1-0.2 0.2-0.2 0.3-0.4 0.5-0.2 0.2-0.3 0.4-0.2 0.2-0.4 0.4-0.2 0.2-0.4 0.4-0.6 0.5-1.3 1-1.3 0.9-2.6 1.9c-0.3 0.1-0.3 0.2-0.7 0.5-0.3 0.2-0.3 0.4-0.1 0.8q0 0.1 0.1 0.1 0 0.1 0.1 0.2 0 0.1 0 0.1 0.1 0.1 0.1 0.2 0.5 0.6 1 1.1 0.4 0.4 0.8 0.8 0.5 0.4 0.9 0.8 0.4 0.4 0.9 0.7 0.4 0.4 0.9 0.7 1 0.8 2.1 1.4 1.1 0.7 2.3 1.3 1.1 0.5 2.3 1 1.2 0.5 2.5 0.8 0.1 0 0.2 0.1 0.2 0 0.3 0 0.2 0.1 0.3 0.1 0.1 0 0.3 0.1 0.5 0 0.9 0.1 0.5 0 1 0.1 0.5 0 0.9 0 0.5 0 1 0 0.7 0 1.4 0 0.7-0.1 1.4-0.2 0.7-0.1 1.4-0.3 0.7-0.2 1.3-0.4 0.8-0.2 1.5-0.5 0.8-0.3 1.5-0.7 0.7-0.4 1.3-0.9 0.7-0.4 1.3-0.9 0.2-0.3 0.5-0.5 0.2-0.3 0.5-0.5 0.2-0.3 0.5-0.5 0.2-0.3 0.5-0.5 0.2-0.4 0.5-0.7 0.3-0.4 0.5-0.7 0.3-0.4 0.5-0.8 0.2-0.4 0.4-0.7 0.1-0.2 0.2-0.4 0-0.2 0.1-0.4 0.1-0.2 0.1-0.4 0-0.2 0-0.4c0-0.4 0.1-0.8 0.1-1.1q0-0.4 0.1-0.8 0-0.4 0-0.7-0.1-0.4-0.1-0.8 0-0.4-0.1-0.7-0.1-0.6-0.2-1.1-0.2-0.5-0.5-0.9-0.2-0.5-0.5-0.9-0.4-0.5-0.8-0.8zm17.2-21.9q0 0-0.1 0 0 0-0.1 0 0 0-0.1 0-0.1 0-0.2 0-0.1 0-0.1 0.1-0.1 0.1-0.1 0.1-0.1 0.1-0.1 0.2c0 0.2 0 0.2 0 0.4q0 0.3 0 0.6 0 0.2 0 0.3-0.1 0.2-0.1 0.4-0.1 0.1-0.2 0.3-0.1 0.1-0.2 0.3-0.1 0.1-0.3 0.3-0.1 0.1-0.3 0.2-0.2 0.1-0.4 0.2-0.2 0.1-0.4 0.1-0.2 0-0.3 0-0.2 0.1-0.3 0.1-0.2 0-0.3 0-0.2 0-0.3 0-1.1 0-2 0c-2-0.1-4-0.1-6.1-0.1q-0.3 0-0.6 0-0.3 0.1-0.6 0.1-0.3 0.1-0.6 0.2-0.3 0.1-0.6 0.2-0.1 0.1-0.3 0.1-0.1 0.1-0.2 0.1-0.1 0.1-0.3 0.2-0.1 0-0.2 0.1-0.4 0.2-0.7 0.4-0.3 0.2-0.6 0.5-0.3 0.3-0.6 0.6-0.3 0.3-0.6 0.6-0.4 0.5-0.8 1.1-0.4 0.6-0.8 1.1-0.4 0.6-0.7 1.2-0.4 0.7-0.7 1.3 0 0 0 0 0 0.1 0 0.1 0 0-0.1 0 0 0.1 0 0.1 0 0 0 0 0 0.1 0 0.1 0 0 0 0 0 0 0 0.1 0 0 0 0.1 0 0.1 0.1 0.1 0 0.1 0.1 0.1 0 0.1 0.1 0.1 0.4 0.1 0.7 0.1 0.4 0 0.7 0 0.4 0 0.7 0.1 0.3 0 0.7 0.1 0.3 0 0.7 0.1 1.5 0.4 3 1.1 1.4 0.8 2.7 1.8 1.2 1 2.2 2.3 0.9 1.3 1.6 2.8l0.2 0.5q0.1 0.1 0.1 0.2 0.1 0 0.2 0.1 0.1 0 0.2 0 0.1 0 0.1-0.1 0.2-0.1 0.4-0.2 0.4-0.4 1-0.7 0.2-0.2 0.5-0.3 0.3-0.1 0.6-0.2 0.3-0.1 0.6-0.2 0.3-0.1 0.6-0.1 0.1 0 0.1-0.1 0.1 0 0.1-0.1 0.1 0 0.1-0.1 0-0.1 0-0.1 0-0.4 0-0.7 0-0.3 0-0.7-0.1-0.3-0.1-0.7 0-0.4 0.1-0.7 0-0.4 0-0.7 0-0.5 0.1-1 0.1-0.5 0.2-1 0.1-0.5 0.3-1 0.2-0.5 0.4-1 0.5-0.9 1-1.8 0.2-0.4 0.4-0.8 0.3-0.4 0.5-0.7 0.3-0.4 0.5-0.7 0.3-0.3 0.6-0.6 0.6-0.7 1.3-1.2 0.7-0.5 1.4-0.9 0.8-0.4 1.6-0.7 0.8-0.3 1.7-0.4 0.5-0.1 1.1-0.1 0.5-0.1 1.1 0 0.5 0 1 0.1 0.6 0.1 1.1 0.3 0.4 0.1 0.8 0.2 0.4 0.2 0.8 0.4 0.4 0.1 0.7 0.3 0.4 0.2 0.8 0.5l0.5 0.3q0 0 0.1 0 0 0 0.1-0.1 0 0 0 0 0.1-0.1 0.1-0.1 0-0.1 0-0.2 0-0.1 0-0.2 0-0.1 0-0.2 0 0 0-0.1-0.2-1.8-0.4-3.5 0-0.1 0-0.2 0-0.1 0-0.1 0-0.1-0.1-0.2 0-0.1 0-0.2 0 0-0.1-0.1 0-0.1-0.1-0.2-0.1 0-0.1-0.1-0.1 0-0.2-0.1-0.1 0-0.1 0-0.1 0-0.1-0.1-0.1 0-0.2 0 0 0-0.1 0-0.1 0-0.2 0-0.1 0-0.2 0-0.1 0-0.2 0-0.2 0-0.3 0-3.1-0.1-6.2-0.1h-4.7q-0.2 0-0.5 0-0.2 0-0.4 0-0.3 0-0.5 0-0.2 0-0.5 0 0 0-0.1 0zm9.6 10.8q-0.1 0-0.3-0.1-0.2 0-0.4 0-0.2 0-0.4 0-0.2 0-0.4 0-0.2 0-0.3 0-0.2 0-0.4 0-0.2 0.1-0.3 0.1-0.2 0-0.4 0.1l-0.8 0.3q-0.2 0.1-0.3 0.2-0.2 0.1-0.3 0.2-0.2 0.1-0.3 0.2-0.1 0.1-0.3 0.3-0.4 0.5-0.7 1-0.4 0.6-0.7 1.1-0.3 0.6-0.5 1.2-0.3 0.6-0.5 1.2-0.1 0.1-0.1 0.3 0 0.1 0 0.3-0.1 0.1-0.1 0.3 0 0.1 0 0.3 0 0.1 0.1 0.3 0 0.1 0.1 0.3 0.1 0.1 0.3 0.1 0.1 0.1 0.3 0.1 0 0 0.1 0 0 0 0.1 0 0 0 0.1 0 0 0 0.1 0l3.2-0.2q0.2 0 0.3 0 0.2-0.1 0.4-0.2 0.2-0.1 0.3-0.2 0.2-0.1 0.3-0.2 0.2-0.3 0.4-0.5c0.6-0.7 1.1-1.4 1.7-2.1q0.1-0.2 0.2-0.3 0.1-0.2 0.2-0.3 0.1-0.2 0.1-0.3 0.1-0.2 0.2-0.3 0.1-0.1 0.1-0.3 0.1-0.1 0.1-0.2 0.1-0.1 0.1-0.3 0.1-0.1 0.1-0.2 0.1-0.3 0.1-0.5 0-0.3-0.1-0.5-0.1-0.3-0.3-0.5-0.1-0.2-0.4-0.3 0 0-0.1-0.1-0.1 0-0.2-0.1-0.1 0-0.2 0 0-0.1-0.1-0.1zm-20.3-19.6q-0.2 0-0.4 0.1-0.2 0-0.3 0.2-0.2 0.1-0.3 0.3 0 0.2 0 0.4v4.8q0 0.2 0 0.4 0.1 0.2 0.3 0.3 0.1 0.2 0.3 0.2 0.2 0.1 0.4 0.1h5.2q0.2 0 0.4-0.1 0.2 0 0.3-0.2 0.2-0.1 0.3-0.3 0-0.2 0-0.4v-4.8q0-0.2 0-0.4-0.1-0.2-0.3-0.3-0.1-0.2-0.3-0.2-0.2-0.1-0.4-0.1zm-10.9-2q0-0.1-0.1-0.1 0 0 0 0-0.1 0-0.1 0-0.1 0-0.1 0.1l-8.5 5.4q-0.1 0-0.1 0.1 0 0 0 0.1 0 0 0 0.1 0 0.1 0.1 0.1l8.5 5.4q0 0 0.1 0.1 0 0 0.1 0 0 0 0 0 0.1-0.1 0.1-0.1l5.4-5.4q0.1 0 0.1-0.1 0 0 0-0.1 0 0 0-0.1 0 0-0.1-0.1zm15-20.3q0 0-0.1-0.1-0.1 0-0.1 0-0.1 0-0.1 0.1-0.1 0-0.1 0.1-0.2 0.2-0.3 0.5-0.1 0.3-0.2 0.5-0.2 0.2-0.3 0.5-0.1 0.2-0.3 0.4-0.1 0.2-0.3 0.5-0.2 0.3-0.4 0.6-0.3 0.3-0.5 0.6-0.3 0.3-0.5 0.6-0.3 0.2-0.6 0.5-1.2 0.9-2.5 1.8-0.2 0.2-0.5 0.3-0.3 0.2-0.6 0.4-0.3 0.2-0.6 0.3-0.4 0.2-0.7 0.3-0.4 0.2-0.8 0.3-0.5 0.2-0.9 0.3-0.5 0.1-0.9 0.2-0.5 0.1-0.9 0.1-0.7 0.1-1.3 0.2-0.1 0-0.1 0 0 0-0.1 0.1 0 0 0 0.1 0 0 0 0.1 0.1 0.2 0.2 0.4 0.2 0.6 0.6 1.1 0.3 0.6 0.6 1.2 0.3 0.6 0.7 1.1 0.3 0.6 0.7 1.2 0.2 0.1 0.3 0.3 0.2 0.2 0.3 0.4 0.2 0.2 0.3 0.3 0.2 0.2 0.3 0.4 0.3 0.2 0.5 0.4 0.2 0.2 0.5 0.4 0.3 0.2 0.5 0.3 0.3 0.2 0.6 0.3 0.2 0.1 0.4 0.2 0.2 0 0.4 0.1 0.2 0.1 0.4 0.1 0.2 0.1 0.5 0.1 0.3 0.1 0.6 0.1 0.4 0.1 0.7 0.1 0.4 0 0.7 0.1 0.4 0 0.7 0h7.3q0.1 0 0.2 0 0.2 0 0.3 0 0.1 0 0.2 0.1 0.1 0 0.3 0.1 0.1 0 0.2 0.1 0.1 0 0.2 0.1 0.1 0.1 0.2 0.2 0 0.2 0.1 0.3 0 0 0 0.1 0 0 0 0 0 0.1 0 0.1 0 0.1 0.1 0.1 0.1 0.8 0.2 1.7 0 0.2 0 0.3 0 0.1 0 0.1 0.1 0.1 0.1 0.1 0 0 0.1 0.1 0 0 0.1 0 0.1 0 0.2 0 0.1 0 0.1 0 0.1 0 0.2 0 0.1 0 0.2 0h9.4l4.3 0.1q0 0 0.1 0 0 0 0.1 0 0 0 0.1 0 0 0 0.1 0 0 0 0.1 0 0.1-0.1 0.2-0.1 0-0.1 0.1-0.1 0-0.1 0.1-0.2 0 0 0 0 0-0.1 0-0.1 0-0.1 0-0.1 0 0 0-0.1c0.1-0.3 0.1-0.7 0.1-1 0.1-1 0.2-2.1 0.3-3.1 0.1-0.3 0.1-0.6 0.1-1q0 0 0-0.1 0 0 0 0 0-0.1 0-0.1 0-0.1 0-0.1c0-0.2-0.2-0.3-0.3-0.2q-0.2 0.2-0.4 0.3-0.2 0.1-0.4 0.3-0.3 0.1-0.5 0.2-0.2 0.1-0.4 0.2-0.4 0.2-0.8 0.4-0.4 0.1-0.9 0.3-0.4 0.1-0.8 0.3-0.4 0.1-0.8 0.2-0.3 0.1-0.6 0.1-0.3 0.1-0.6 0.1-0.3 0-0.5 0-0.3 0-0.6 0-0.3-0.1-0.5-0.1-0.3 0-0.5-0.1-0.3 0-0.5 0-0.3-0.1-0.5-0.1-0.5-0.2-0.9-0.3-0.5-0.2-0.9-0.4-0.5-0.2-0.9-0.4-0.4-0.3-0.8-0.6-0.2-0.2-0.5-0.4-0.2-0.2-0.4-0.4-0.2-0.2-0.5-0.4-0.2-0.3-0.4-0.5-0.5-0.8-1-1.5-0.5-0.8-0.9-1.7-0.4-0.8-0.7-1.7-0.3-0.9-0.5-1.8-0.1-0.5-0.2-0.9 0-0.5-0.1-1 0-0.5 0-1 0.1-0.5 0.1-1 0.1-0.1 0.1-0.1 0-0.1 0-0.2 0-0.1 0-0.2 0 0 0-0.1 0-0.2 0-0.4 0-0.1 0-0.2-0.1-0.1-0.1-0.1-0.1-0.1-0.1-0.1-0.1-0.1-0.2-0.1 0 0-0.1 0 0 0 0 0-0.1 0-0.1 0 0 0 0 0-0.4 0-0.8-0.1-0.3-0.1-0.6-0.2-0.4-0.2-0.7-0.3-0.3-0.2-0.6-0.5-0.4-0.3-0.8-0.6zm9.4 4.7q-0.1 0-0.2 0.1-0.1 0-0.2 0.1-0.1 0-0.2 0.1 0 0.1 0 0.2 0 0 0 0.1 0 0 0 0 0 0 0 0.1 0 0 0 0 0 0.4 0 0.9 0 0.4 0.1 0.8 0.1 0.4 0.3 0.8 0.1 0.4 0.3 0.8 0.1 0.1 0.2 0.2 0 0.1 0.1 0.2 0.1 0.2 0.2 0.3 0 0.1 0.1 0.2 0.5 0.4 0.9 0.8 0.5 0.3 1 0.7 0.5 0.3 1 0.6 0.5 0.3 1.1 0.6 0.2 0.1 0.5 0.1 0.3 0.1 0.6 0.1 0.3 0.1 0.6 0 0.3 0 0.6-0.1 0.1-0.1 0.2-0.1 0.2-0.1 0.3-0.1 0.2-0.1 0.3-0.1 0.1-0.1 0.3-0.2 0.2-0.1 0.4-0.4 0.2-0.2 0.3-0.5 0.1-0.3 0-0.6 0-0.3-0.2-0.6-0.1 0-0.1-0.1-0.1-0.1-0.2-0.2 0-0.1-0.1-0.2-0.1 0-0.1-0.1-1.1-1.2-2-2.4-0.4-0.4-0.8-0.8-0.2-0.1-0.4-0.3-0.1-0.1-0.4-0.2-0.2-0.1-0.4-0.1-0.2-0.1-0.4-0.1-1.1-0.2-2-0.4l-1.2-0.1zm-0.7-8.1q0-0.3-0.1-0.6-0.2-0.3-0.4-0.5-0.2-0.2-0.5-0.3-0.3-0.2-0.6-0.2c-0.7 0-1.2 0.4-1.5 1-0.2 0.6-0.1 1.3 0.4 1.8 0.4 0.5 1.1 0.6 1.7 0.4 0.6-0.3 1-0.9 1-1.5zm-28.9-15.6q-0.7-0.2-1.4-0.3-0.7-0.1-1.4-0.1-0.7-0.1-1.4 0-0.9-0.1-1.8 0-0.9 0.1-1.8 0.3-0.9 0.1-1.8 0.4-0.9 0.3-1.7 0.6-0.6 0.3-1.3 0.6-0.6 0.3-1.2 0.6-0.6 0.3-1.1 0.6-0.6 0.4-1.2 0.7-0.2 0.2-0.4 0.3-0.2 0.1-0.3 0.2-0.2 0.1-0.4 0.3-0.2 0.1-0.4 0.2-1.9 1.7-3.7 3.5-0.3 0.3-0.6 0.7 0 0.1-0.1 0.1 0 0 0 0.1-0.1 0-0.1 0.1 0 0 0 0.1 0 0 0 0 0 0 0 0.1 0 0 0 0 0 0.1 0 0.1 0 0 0 0.1 0.1 0 0.1 0 0 0 0 0.1 0.1 0 0.1 0 2.2 1.8 4.5 3.5 0.5 0.4 1 0.9 0.1 0.1 0.3 0.2 0.1 0.1 0.2 0.3 0.1 0.1 0.2 0.2 0.1 0.2 0.1 0.4 0.2 0.3 0.3 0.7 0.2 0.3 0.3 0.7 0.1 0.4 0.2 0.8 0.1 0.4 0.2 0.8 0.1 0.4 0.2 0.7 0 0.1 0.1 0.2 0 0.1 0.1 0.1 0 0.1 0.1 0.1 0.1 0 0.2 0 0 0 0.1 0 0 0.1 0.1 0.1 0 0 0.1-0.1 0 0 0.1 0 0.7 0 1.5 0.1 0.7 0 1.5 0.1 0.7 0.1 1.5 0.2 0.7 0.1 1.5 0.3 0.5 0.1 1.1 0.2 0.6 0.2 1.1 0.3 0.6 0.2 1.1 0.3 0.6 0.2 1.2 0.4c1 0.3 1 0.3 1-0.8q-0.1-0.3-0.1-0.6 0-0.3 0.1-0.7 0-0.3 0-0.6 0.1-0.3 0.2-0.6 0.1-0.4 0.2-0.8 0.1-0.3 0.3-0.7 0.2-0.4 0.4-0.7 0.2-0.3 0.5-0.6 0.1-0.2 0.2-0.4 0.1-0.1 0.3-0.3 0.1-0.1 0.3-0.2 0.1-0.2 0.3-0.3 0.3-0.3 0.6-0.5 0.4-0.3 0.8-0.5 0.3-0.1 0.7-0.3 0.4-0.1 0.8-0.2 0.2-0.1 0.5-0.1 0.2-0.1 0.4-0.1 0.2 0 0.5 0 0.2 0 0.4 0 0.3 0 0.6 0.2 0.3 0.1 0.6 0.3 0.2 0.2 0.4 0.4 0.2 0.3 0.3 0.6 0 0.1 0 0.2 0.1 0.1 0.1 0.3 0 0.1 0 0.2 0.1 0.1 0.1 0.3c0.1 0.5 0.1 1.2 0.2 1.7q0 0.6 0.1 1.3 0 0.2 0.1 0.4 0.1 0.1 0.2 0.2 0.1 0.2 0.2 0.3 0.2 0.1 0.4 0.1 0.1 0.1 0.2 0.1 0.1 0 0.3 0 0.1 0 0.2 0 0.1 0 0.3-0.1 0.1 0 0.2-0.1 0.1 0 0.2-0.1 0.1-0.1 0.2-0.2 0.1 0 0.3-0.1 0.1-0.2 0.3-0.4 0.2-0.2 0.3-0.4 0.2-0.2 0.3-0.4 0.1-0.2 0.2-0.5 0.1-0.2 0.2-0.5 0.1-0.3 0.2-0.6 0.1-0.3 0.1-0.6 0-0.3 0.1-0.5c0.1-0.6 0.1-1.1 0.1-1.7q0-0.3 0-0.6 0-0.2-0.1-0.5 0-0.3 0-0.6-0.1-0.3-0.1-0.5-0.2-0.7-0.4-1.3-0.2-0.6-0.5-1.2-0.3-0.5-0.6-1.1-0.4-0.5-0.8-1-0.3-0.2-0.5-0.4-0.3-0.3-0.5-0.5-0.3-0.2-0.5-0.5-0.3-0.2-0.5-0.4-0.4-0.2-0.8-0.5-0.4-0.3-0.8-0.5-0.3-0.3-0.7-0.5-0.4-0.2-0.8-0.5-0.4-0.2-0.8-0.4-0.4-0.2-0.9-0.4-0.4-0.2-0.8-0.3-0.5-0.2-0.9-0.3-0.7-0.2-1.4-0.3z"/>
		<path class="s1" d="m166.8 12.9l-0.1 25.9h-7.2v-18l-5.1 18h-4.2l-5.1-17.7v17.7h-2.6v-25.9h7.7l4.4 15.7 4.4-15.7z"/>
		<path class="s2" d="m191.9 12.9v2.6h-9.3v7.9h7.8v2.6h-7.8v10.3l10.9-0.1v2.6h-18.4v-25.9z"/>
		<path class="s3" d="m223.8 12.9v25.9h-7.3v-18l-5 18h-4.2l-5.2-17.7v17.7h-2.5v-25.9h7.6l4.5 15.7 4.4-15.7z"/>
		<path class="s4" d="m248.9 12.9v2.6h-9.3v7.9h7.8v2.6h-7.8v10.3l10.9-0.1v2.6h-18.4v-25.9z"/>
		<path class="s5" d="m142.1 105.9l-3.5 0.6q0.1-0.2 0.1-0.4 0-0.2 0.1-0.4 0-0.3 0-0.5 0-0.2 0-0.4 0-4.5-5.5-4.5c-2.8 0-4.3 1-4.3 3.1q0 2.3 4.8 4 9.4 3.2 9.4 9.5 0 0.8-0.1 1.6-0.2 0.8-0.5 1.6-0.4 0.8-0.9 1.5-0.5 0.6-1.1 1.2-0.8 0.6-1.6 1-0.8 0.4-1.7 0.7-0.9 0.3-1.9 0.4-0.9 0.1-1.8 0.1-9.7 0-9.7-7.5c0-0.4 0-0.9 0.1-1.5l3.7-0.8q-0.1 0.4-0.2 0.7-0.1 0.4-0.1 0.8-0.1 0.3-0.1 0.7 0 0.3-0.1 0.7 0 4.8 5.6 4.8 4.4 0 4.4-3.4 0-2.6-5.3-4.6-7.7-2.8-7.7-9 0-0.8 0.2-1.6 0.1-0.8 0.5-1.5 0.3-0.7 0.8-1.4 0.5-0.6 1.1-1.1 0.7-0.6 1.5-1 0.8-0.4 1.7-0.7 0.8-0.3 1.7-0.4 0.9-0.1 1.8-0.1 8.6 0.1 8.6 7.8z"/>
		<path class="s6" d="m168.6 98.6v2.6h-6.4v23.3h-8v-23.3h-6.4v-2.6z"/>
		<path class="s7" d="m193.9 98.6v17.4q0 8.9-9.9 8.9-9.9 0-9.9-8.9v-17.4h7.6v17.6q-0.1 3.5 1 4.7c0.6 0.8 1.8 1.3 3.6 1.3q5.1 0 5.1-6.2v-17.4z"/>
		<path fill-rule="evenodd" class="s8" d="m201.8 124.5v-25.9h10.8q11.4 0 11.4 13 0 13-11.8 12.9zm7.5-2.1h2q0.6 0.1 1.2-0.1 0.5-0.1 1-0.5 0.5-0.3 0.9-0.7 0.4-0.5 0.6-1c0.7-1.6 1-4.4 1-8.5q0-6.1-1-8.5-0.2-0.5-0.6-1-0.4-0.4-0.9-0.7-0.5-0.4-1.1-0.5-0.5-0.1-1.1-0.1h-2z"/>
		<path class="s9" d="m238.8 98.6v25.9h-7.6v-25.9z"/>
		<path fill-rule="evenodd" class="s10" d="m257.7 98.2q11.3 0 11.3 13.4 0 13.4-11.5 13.4-11.5 0-11.5-13.7 0-13.1 11.7-13.1zm-0.2 2q-0.5 0-1 0.2-0.4 0.2-0.8 0.5-0.4 0.3-0.7 0.8-0.3 0.4-0.3 0.9-0.8 2.3-0.8 9 0 6.6 0.8 9c0.1 0.6 0.5 1.2 1 1.7 0.5 0.4 1.2 0.6 1.8 0.6 0.7 0 1.4-0.2 1.9-0.6 0.5-0.5 0.9-1.1 1-1.7q0.7-2.4 0.8-9c0-4.4-0.3-7.4-0.8-9q-0.1-0.5-0.4-0.9-0.2-0.5-0.6-0.8-0.4-0.3-0.9-0.5-0.5-0.2-1-0.2z"/>
	</g>
</svg>