<svg width="76" height="28" viewBox="0 0 76 28" fill="none" xmlns="http://www.w3.org/2000/svg">
<path fill-rule="evenodd" clip-rule="evenodd" d="M11.6737 0.124869C11.7563 0.108217 11.8471 0.0998912 11.9461 0.0998912C12.0287 0.0998912 12.1112 0.0998912 12.1938 0.0998912C12.2763 0.0832394 12.3671 0.0832394 12.4662 0.0998912C12.6808 0.0998912 12.9037 0.116543 13.1348 0.149847C13.366 0.18315 13.5888 0.216454 13.8035 0.249757C14.0181 0.299713 14.2327 0.357994 14.4473 0.424601C14.662 0.50786 14.8766 0.591119 15.0912 0.674378C15.2233 0.724333 15.3554 0.782614 15.4875 0.849222C15.6195 0.915829 15.7516 0.982436 15.8837 1.04904C16.0158 1.1323 16.1396 1.21556 16.2552 1.29882C16.3707 1.36543 16.4946 1.44869 16.6266 1.5486C16.6927 1.59855 16.7587 1.64851 16.8248 1.69846C16.8908 1.76507 16.9486 1.82335 16.9981 1.87331C17.0642 1.93991 17.1302 2.00652 17.1962 2.07313C17.2458 2.13974 17.3035 2.20634 17.3696 2.27295C17.4521 2.38951 17.5429 2.50607 17.642 2.62264C17.7245 2.75585 17.8071 2.88074 17.8896 2.9973C17.9557 3.13052 18.0217 3.26373 18.0878 3.39695C18.1703 3.53016 18.2363 3.6717 18.2859 3.82157C18.3849 4.02139 18.4592 4.24619 18.5335 4.47099C18.5665 4.55425 18.5996 4.6375 18.6326 4.72076C18.6326 4.73741 18.6408 4.74574 18.6573 4.74574C18.6573 4.74574 18.6573 4.75407 18.6573 4.77072C18.6573 4.77072 18.6656 4.77072 18.6821 4.77072C18.6821 4.77072 18.6821 4.77904 18.6821 4.7957C18.6986 4.7957 18.7069 4.7957 18.7069 4.7957C18.7234 4.7957 18.7316 4.7957 18.7316 4.7957C18.7481 4.7957 18.7564 4.7957 18.7564 4.7957C18.7729 4.7957 18.7812 4.7957 18.7812 4.7957C18.7977 4.77904 18.8059 4.77072 18.8059 4.77072C18.8224 4.77072 18.8307 4.77072 18.8307 4.77072C18.9132 4.72076 18.9958 4.67913 19.0783 4.64583C19.1774 4.59587 19.2682 4.56257 19.3508 4.54592C19.4498 4.51262 19.5406 4.49596 19.6232 4.49596C19.7222 4.47931 19.8213 4.47099 19.9203 4.47099C20.0029 4.47099 20.0937 4.47099 20.1928 4.47099C20.3083 4.47099 20.4239 4.47931 20.5395 4.49596C20.6715 4.51262 20.7871 4.54592 20.8862 4.59587C21.0017 4.62918 21.1091 4.67913 21.2081 4.74574C21.3072 4.81235 21.4062 4.88728 21.5053 4.97054C21.5548 5.0205 21.6126 5.07045 21.6786 5.12041C21.7282 5.18701 21.7777 5.24529 21.8272 5.29525C21.8768 5.36186 21.9263 5.42846 21.9758 5.49507C22.0253 5.56168 22.0666 5.62829 22.0996 5.69489C22.1327 5.74485 22.1574 5.7948 22.1739 5.84476C22.207 5.87806 22.2317 5.91969 22.2482 5.96965C22.2812 6.0196 22.306 6.06956 22.3225 6.11951C22.3555 6.16947 22.3803 6.21942 22.3968 6.26938C22.4133 6.31934 22.4381 6.36929 22.4711 6.41925C22.4876 6.4692 22.5041 6.51916 22.5206 6.56911C22.5537 6.61907 22.5867 6.66902 22.6197 6.71898C22.6362 6.76893 22.661 6.81889 22.694 6.86884C22.7105 6.90215 22.7353 6.94378 22.7683 6.99373C22.8013 7.02704 22.8343 7.06867 22.8673 7.11862C22.9004 7.15193 22.9334 7.18523 22.9664 7.21853C22.9994 7.26849 23.0324 7.31012 23.0655 7.34342C23.0985 7.37672 23.1398 7.41835 23.1893 7.46831C23.2388 7.50161 23.2883 7.53492 23.3379 7.56822C23.3874 7.60152 23.4369 7.6265 23.4865 7.64315C23.536 7.67646 23.5855 7.70143 23.6351 7.71809L23.8084 7.79302C23.8579 7.82632 23.8992 7.8513 23.9322 7.86795C23.9818 7.90126 24.0313 7.93456 24.0808 7.96786C24.1138 8.00117 24.1469 8.03447 24.1799 8.06777C24.2129 8.11773 24.2459 8.15936 24.2789 8.19266C24.312 8.24262 24.3367 8.28425 24.3532 8.31755C24.3862 8.36751 24.411 8.40914 24.4275 8.44244C24.444 8.49239 24.4605 8.54235 24.4771 8.5923C24.4936 8.64226 24.5101 8.68389 24.5266 8.71719C24.5431 8.7838 24.5596 8.85041 24.5761 8.91701C24.5761 8.93367 24.5844 8.95032 24.6009 8.96697C24.6009 8.96697 24.6009 8.9753 24.6009 8.99195C24.6009 9.0086 24.6009 9.01693 24.6009 9.01693C24.6174 9.03358 24.6256 9.05023 24.6256 9.06688C24.6256 9.08353 24.6339 9.10018 24.6504 9.11684C24.6669 9.13349 24.6834 9.15014 24.6999 9.16679C24.7164 9.18344 24.733 9.20009 24.7495 9.21675C24.766 9.21675 24.7907 9.21675 24.8238 9.21675C24.8733 9.24172 24.9228 9.24173 24.9723 9.24173C25.0384 9.25838 25.1127 9.27503 25.1952 9.29168C25.2613 9.30833 25.3273 9.32498 25.3933 9.34164C25.4594 9.37494 25.5254 9.39992 25.5915 9.41657C25.6575 9.44987 25.7235 9.48318 25.7896 9.51648C25.8391 9.54978 25.8886 9.58309 25.9382 9.61639C25.9547 9.63304 25.9794 9.64969 26.0125 9.66634C26.029 9.683 26.0455 9.70798 26.062 9.74128C26.095 9.75793 26.1198 9.78291 26.1363 9.81621C26.1528 9.83286 26.1693 9.85784 26.1858 9.89114C26.1858 9.92445 26.1941 9.94943 26.2106 9.96608C26.2271 9.98273 26.2519 9.99938 26.2849 10.016C26.3014 10.0327 26.3261 10.0493 26.3592 10.066C26.3757 10.066 26.4004 10.0743 26.4335 10.091C26.4665 10.091 26.5078 10.0993 26.5573 10.1159C26.6068 10.1159 26.6563 10.1243 26.7059 10.1409C26.7554 10.1409 26.8049 10.1409 26.8545 10.1409C26.8875 10.1409 26.9288 10.1492 26.9783 10.1659C27.0113 10.1659 27.0443 10.1659 27.0773 10.1659C27.1104 10.1659 27.1434 10.1659 27.1764 10.1659C27.2094 10.1659 27.2424 10.1742 27.2755 10.1909C27.3085 10.1909 27.3415 10.1909 27.3745 10.1909C27.4571 10.2242 27.5479 10.2492 27.6469 10.2658C27.6469 10.2825 27.6552 10.2908 27.6717 10.2908C27.6717 10.2908 27.68 10.2908 27.6965 10.2908C27.713 10.3074 27.7212 10.3158 27.7212 10.3158C27.7377 10.3158 27.746 10.3241 27.746 10.3407C27.7955 10.3574 27.845 10.3824 27.8946 10.4157C27.9276 10.449 27.9606 10.4906 27.9936 10.5406C28.0267 10.5739 28.0514 10.6155 28.0679 10.6655C28.101 10.7154 28.1175 10.7737 28.1175 10.8403C28.134 10.9069 28.1505 10.9735 28.167 11.0401C28.167 11.0568 28.167 11.0734 28.167 11.0901C28.167 11.0901 28.167 11.0984 28.167 11.1151C28.167 11.1317 28.1752 11.14 28.1918 11.14C28.1918 11.1567 28.1918 11.1733 28.1918 11.19C28.2083 11.2066 28.2165 11.2316 28.2165 11.2649C28.233 11.2816 28.2578 11.2982 28.2908 11.3149C28.3073 11.3315 28.3238 11.3399 28.3403 11.3399C28.3734 11.3565 28.3981 11.3648 28.4146 11.3648C28.4311 11.3648 28.4477 11.3648 28.4642 11.3648C28.4807 11.3648 28.4889 11.3648 28.4889 11.3648C28.5054 11.3648 28.522 11.3648 28.5385 11.3648C28.555 11.3648 28.5715 11.3648 28.588 11.3648H29.9748L32.5503 11.3898L36.3889 11.4148L39.2368 11.4398L43.0753 11.4647L46.0966 11.4897H55.1357C56.2997 11.4897 57.4636 11.5147 58.6028 11.5147C58.8504 11.5147 59.0981 11.5397 59.3457 11.5397C59.3788 11.5563 59.4118 11.5646 59.4448 11.5646C59.4778 11.5646 59.5108 11.5646 59.5439 11.5646C59.5769 11.5813 59.6099 11.5896 59.6429 11.5896C59.6759 11.5896 59.709 11.598 59.742 11.6146C59.775 11.6313 59.8163 11.6479 59.8658 11.6646C59.8988 11.6812 59.9401 11.6979 59.9896 11.7145C60.0226 11.7312 60.0557 11.7561 60.0887 11.7894C60.1382 11.8061 60.1795 11.8311 60.2125 11.8644C60.229 11.881 60.2455 11.8977 60.262 11.9143C60.2785 11.931 60.2951 11.9476 60.3116 11.9643C60.3281 11.9809 60.3446 11.9976 60.3611 12.0142C60.3776 12.0309 60.3941 12.0476 60.4106 12.0642C60.4436 12.0975 60.4767 12.1308 60.5097 12.1641C60.5592 12.1974 60.6005 12.2224 60.6335 12.239C60.683 12.2724 60.7326 12.2973 60.7821 12.314C60.8316 12.3306 60.8812 12.339 60.9307 12.339C60.9802 12.339 61.0297 12.3473 61.0793 12.3639C61.1288 12.3639 61.1866 12.3639 61.2526 12.3639C61.3021 12.3639 61.3517 12.3639 61.4012 12.3639C61.4507 12.3639 61.5003 12.3723 61.5498 12.3889C62.0946 12.3889 63.209 12.3889 63.7539 12.3889V8.49239C63.7539 8.45909 63.7621 8.42579 63.7786 8.39248C63.7951 8.37583 63.8116 8.35085 63.8281 8.31755C63.8447 8.3009 63.8694 8.28425 63.9024 8.26759C63.9355 8.25094 63.9685 8.24262 64.0015 8.24262H66.7504C66.7834 8.24262 66.8164 8.25094 66.8494 8.26759C66.8825 8.28425 66.9072 8.3009 66.9237 8.31755C66.9402 8.35085 66.9568 8.37583 66.9733 8.39248C66.9898 8.42579 66.998 8.45909 66.998 8.49239V10.091C66.998 10.1243 66.9898 10.1576 66.9733 10.1909C66.9568 10.2242 66.9402 10.2492 66.9237 10.2658C66.9072 10.2991 66.8825 10.3241 66.8494 10.3407C66.8164 10.3407 66.7834 10.3407 66.7504 10.3407H65.9579C65.9249 10.3407 65.8919 10.3491 65.8589 10.3657C65.8258 10.3824 65.8011 10.399 65.7846 10.4157C65.7515 10.449 65.7268 10.4823 65.7103 10.5156C65.7103 10.5322 65.7103 10.5572 65.7103 10.5905V12.3639L67.4438 12.339H68.6325V11.215C68.6325 11.1817 68.6408 11.1484 68.6573 11.1151C68.6573 11.0817 68.6738 11.0568 68.7068 11.0401C68.7233 11.0068 68.7481 10.9818 68.7811 10.9652C68.8141 10.9652 68.8471 10.9652 68.8802 10.9652H70.3165C70.3495 10.9652 70.3825 10.9652 70.4156 10.9652C70.4321 10.9818 70.4568 11.0068 70.4899 11.0401C70.5064 11.0568 70.5229 11.0817 70.5394 11.1151C70.5559 11.1484 70.5641 11.1817 70.5641 11.215V12.339H72.8425V10.5905C72.8425 10.5572 72.8342 10.5239 72.8177 10.4906C72.8012 10.4573 72.7847 10.4323 72.7682 10.4157C72.7517 10.3824 72.7269 10.3657 72.6939 10.3657C72.6609 10.3491 72.6279 10.3407 72.5949 10.3407H71.7776C71.7611 10.3407 71.7363 10.3324 71.7033 10.3158C71.6703 10.2991 71.6373 10.2825 71.6043 10.2658C71.5878 10.2325 71.5712 10.2075 71.5547 10.1909C71.5547 10.1576 71.5465 10.1243 71.53 10.091V8.49239C71.5465 8.45909 71.5547 8.42579 71.5547 8.39248C71.5712 8.37583 71.5878 8.35085 71.6043 8.31755C71.6373 8.3009 71.6703 8.28425 71.7033 8.26759C71.7363 8.25094 71.7611 8.24262 71.7776 8.24262H74.5513C74.5843 8.24262 74.609 8.25094 74.6256 8.26759C74.6586 8.28425 74.6916 8.3009 74.7246 8.31755C74.7411 8.35085 74.7576 8.37583 74.7741 8.39248C74.7907 8.42579 74.7989 8.45909 74.7989 8.49239V12.4139C74.8237 12.4389 75.5171 12.4389 75.5666 12.4638C75.5996 12.4805 75.6327 12.4971 75.6657 12.5138C75.6987 12.5305 75.7235 12.5471 75.74 12.5638C75.773 12.5971 75.7978 12.622 75.8143 12.6387C75.8308 12.672 75.8473 12.7053 75.8638 12.7386C75.8803 12.7719 75.8968 12.7969 75.9133 12.8135C75.9133 12.8468 75.9216 12.8718 75.9381 12.8885C75.9381 12.9218 75.9381 12.9467 75.9381 12.9634C75.9546 12.9967 75.9628 13.03 75.9628 13.0633C75.9628 13.1133 75.9876 13.1882 75.9876 13.2631C75.9876 13.3297 75.9876 13.4047 75.9876 13.4879C76.0041 13.5545 76.0041 13.6295 75.9876 13.7127C75.9876 13.7793 75.9876 13.8543 75.9876 13.9375C75.9711 14.0041 75.9628 14.0791 75.9628 14.1623C75.9463 14.1956 75.9381 14.2206 75.9381 14.2373C75.9216 14.2706 75.9133 14.3039 75.9133 14.3372C75.8968 14.3705 75.8803 14.4038 75.8638 14.4371C75.8473 14.4704 75.839 14.5037 75.839 14.537C75.806 14.5703 75.773 14.6119 75.74 14.6619C75.7069 14.6952 75.6739 14.7202 75.6409 14.7368C75.6079 14.7701 75.5666 14.7951 75.5171 14.8117C75.4676 14.8284 75.418 14.8367 75.3685 14.8367H75.2447C74.477 14.8617 73.7093 14.8617 72.9416 14.8617H71.3566L63.2586 14.8867C63.209 14.8617 62.7137 14.8617 62.4909 14.8617C61.9956 14.8367 61.4755 14.8367 60.9802 14.8367H60.7078C60.6748 14.8367 60.65 14.8367 60.6335 14.8367C60.6005 14.8534 60.5675 14.87 60.5344 14.8867C60.5179 14.8867 60.4932 14.9033 60.4602 14.9366C60.4436 14.9533 60.4271 14.9699 60.4106 14.9866C60.3776 15.0365 60.3363 15.0865 60.2868 15.1365C60.2373 15.1698 60.1877 15.2114 60.1382 15.2613C60.0887 15.2947 60.0392 15.328 59.9896 15.3613C59.9401 15.3779 59.8906 15.4029 59.841 15.4362C59.775 15.4528 59.7172 15.4778 59.6677 15.5111C59.6182 15.5278 59.5604 15.5444 59.4943 15.5611C59.4448 15.5611 59.387 15.5694 59.321 15.5861C59.2714 15.5861 59.2137 15.5861 59.1476 15.5861C58.5533 15.5861 57.9589 15.5861 57.3646 15.5861H53.1546C51.9989 15.5861 50.8432 15.5861 49.6875 15.5861C47.5577 15.5694 45.428 15.5611 43.2982 15.5611H38.0481C37.1566 15.5361 36.2898 15.5361 35.3983 15.5361C33.6895 15.5111 32.0055 15.5111 30.2968 15.5111C29.7684 15.5111 29.2401 15.5111 28.7118 15.5111C28.588 15.5111 28.4642 15.5111 28.3403 15.5111C28.3238 15.5111 28.3073 15.5111 28.2908 15.5111C28.2743 15.5278 28.2578 15.5444 28.2413 15.5611C28.2248 15.5611 28.2165 15.5694 28.2165 15.5861C28.2 15.6027 28.1918 15.6194 28.1918 15.636C28.167 15.7109 28.167 15.7109 28.1422 15.8109C28.1092 15.9108 28.0679 16.0107 28.0184 16.1106C28.0184 16.1272 28.0101 16.1522 27.9936 16.1855C27.9771 16.2022 27.9606 16.2188 27.9441 16.2355C27.9276 16.2688 27.9111 16.2938 27.8946 16.3104C27.8781 16.3271 27.8616 16.3437 27.845 16.3604C27.812 16.3937 27.7873 16.4186 27.7708 16.4353C27.7377 16.4686 27.7047 16.4936 27.6717 16.5102C27.6387 16.5269 27.6057 16.5435 27.5726 16.5602C27.5396 16.5768 27.4983 16.5852 27.4488 16.5852C27.4323 16.6018 27.4075 16.6101 27.3745 16.6101C27.3415 16.6101 27.3085 16.6101 27.2755 16.6101C27.2424 16.6268 27.2177 16.6351 27.2012 16.6351C27.1681 16.6351 27.1351 16.6351 27.1021 16.6351C26.9535 16.6351 26.582 16.6351 26.4087 16.6351C26.3922 16.6351 26.3757 16.6351 26.3592 16.6351C26.3427 16.6351 26.3261 16.6434 26.3096 16.6601C26.2931 16.6601 26.2849 16.6684 26.2849 16.6851C26.2684 16.6851 26.2519 16.6934 26.2353 16.7101C26.2353 16.7267 26.2271 16.735 26.2106 16.735C26.1941 16.7517 26.1858 16.7683 26.1858 16.785C26.1693 16.785 26.161 16.7933 26.161 16.81C26.1445 16.8266 26.1363 16.8433 26.1363 16.8599C26.0868 16.9099 26.0372 16.9598 25.9877 17.0098C25.9382 17.0597 25.8886 17.1097 25.8391 17.1597C25.7731 17.2096 25.707 17.2512 25.641 17.2845C25.575 17.3178 25.5089 17.3511 25.4429 17.3845C25.4264 17.4011 25.4016 17.4094 25.3686 17.4094C25.3356 17.4261 25.3025 17.4427 25.2695 17.4594C25.2365 17.4594 25.2035 17.4677 25.1705 17.4844C25.1374 17.4844 25.1127 17.4927 25.0962 17.5093C25.0631 17.5093 25.0384 17.5093 25.0219 17.5093C25.0054 17.5093 24.9889 17.5093 24.9723 17.5093C24.9393 17.526 24.9146 17.5343 24.898 17.5343C24.8815 17.5343 24.865 17.5343 24.8485 17.5343C24.832 17.5343 24.8155 17.5343 24.799 17.5343C24.799 17.5343 24.7907 17.5343 24.7742 17.5343C24.7577 17.5343 24.7412 17.5343 24.7247 17.5343C24.7247 17.5343 24.7164 17.5343 24.6999 17.5343C24.6834 17.5343 24.6752 17.5343 24.6752 17.5343C24.6587 17.5343 24.6421 17.5426 24.6256 17.5593C24.6256 17.5593 24.6174 17.5676 24.6009 17.5843C24.6009 17.5843 24.6009 17.5926 24.6009 17.6093C24.5844 17.6259 24.5761 17.6342 24.5761 17.6342C24.5596 17.6509 24.5513 17.6675 24.5513 17.6842C24.5513 17.7008 24.5431 17.7092 24.5266 17.7092C24.5266 17.7258 24.5266 17.7425 24.5266 17.7591C24.5101 17.8091 24.4853 17.8674 24.4523 17.934C24.4358 17.9839 24.411 18.0339 24.378 18.0838C24.3615 18.1504 24.3367 18.2087 24.3037 18.2587C24.2707 18.3086 24.2377 18.3586 24.2046 18.4085C24.1881 18.4585 24.1634 18.5084 24.1303 18.5584C24.1138 18.5917 24.0891 18.625 24.056 18.6583C24.0395 18.6916 24.0148 18.7166 23.9818 18.7332C23.9652 18.7665 23.9405 18.7915 23.9075 18.8082C23.8744 18.8415 23.8414 18.8665 23.8084 18.8831C23.7259 18.9331 23.6433 18.983 23.5608 19.033C23.4369 19.1079 23.3131 19.1579 23.1893 19.2328C23.1232 19.2661 23.0655 19.2994 23.0159 19.3327C22.9664 19.366 22.9169 19.4076 22.8673 19.4576C22.8178 19.5076 22.7683 19.5575 22.7188 19.6075C22.6692 19.6574 22.628 19.7157 22.5949 19.7823C22.5454 19.8822 22.4876 19.9738 22.4216 20.0571C22.4051 20.0737 22.3886 20.0987 22.3721 20.132C22.3721 20.1486 22.3638 20.1653 22.3473 20.182C22.3308 20.1986 22.3225 20.2236 22.3225 20.2569C22.306 20.2735 22.2978 20.2902 22.2978 20.3068C22.2647 20.3901 22.24 20.4734 22.2235 20.5566C22.1904 20.6232 22.1657 20.6815 22.1492 20.7315C22.1161 20.7981 22.0831 20.8563 22.0501 20.9063C22.0171 20.9563 21.9841 21.0062 21.9511 21.0562C21.918 21.1061 21.885 21.1561 21.852 21.206C21.786 21.2893 21.7199 21.3642 21.6539 21.4308C21.5878 21.4974 21.5135 21.5641 21.431 21.6307C21.365 21.6973 21.2907 21.7555 21.2081 21.8055C21.1256 21.8555 21.043 21.9054 20.9605 21.9554C20.8779 22.0053 20.7954 22.047 20.7128 22.0803C20.6138 22.1302 20.5147 22.1635 20.4156 22.1802C20.3331 22.2135 20.2423 22.2384 20.1432 22.2551C20.0442 22.2718 19.9451 22.2801 19.8461 22.2801C19.78 22.2801 19.714 22.2801 19.6479 22.2801C19.5984 22.2634 19.5406 22.2551 19.4746 22.2551C19.4085 22.2384 19.3425 22.2301 19.2765 22.2301C19.2269 22.2135 19.1691 22.1968 19.1031 22.1802C19.0701 22.1635 19.0371 22.1469 19.0041 22.1302C18.971 22.1302 18.938 22.1219 18.905 22.1052C18.8885 22.0886 18.8637 22.0719 18.8307 22.0553C18.7977 22.0386 18.7729 22.0136 18.7564 21.9803C18.7399 21.9803 18.7234 21.9803 18.7069 21.9803C18.7069 21.9637 18.6986 21.9554 18.6821 21.9554C18.6656 21.9554 18.6573 21.947 18.6573 21.9304C18.6408 21.9304 18.6243 21.9304 18.6078 21.9304C18.5913 21.9137 18.5748 21.9054 18.5583 21.9054C18.5418 21.9054 18.5253 21.9137 18.5088 21.9304C18.4922 21.9304 18.4757 21.9387 18.4592 21.9554C18.4427 21.972 18.4345 21.9887 18.4345 22.0053C18.4345 22.022 18.4262 22.0386 18.4097 22.0553C18.4097 22.0719 18.4097 22.0886 18.4097 22.1052C18.4097 22.1219 18.4097 22.1385 18.4097 22.1552C18.3932 22.1718 18.3849 22.1885 18.3849 22.2051C18.3684 22.2884 18.3437 22.3717 18.3106 22.4549C18.2776 22.5382 18.2446 22.6298 18.2116 22.7297C18.1621 22.8129 18.1208 22.8962 18.0878 22.9795C18.0547 23.0627 18.0135 23.146 17.9639 23.2292C17.8649 23.4291 17.7493 23.6205 17.6172 23.8037C17.5017 23.9869 17.3696 24.1617 17.221 24.3282C17.0724 24.4948 16.9156 24.653 16.7505 24.8028C16.5854 24.9527 16.412 25.0942 16.2304 25.2274C16.0983 25.3107 15.9662 25.394 15.8342 25.4772C15.7021 25.5605 15.57 25.6354 15.4379 25.702C15.2893 25.7853 15.1408 25.8519 14.9922 25.9018C14.8601 25.9684 14.7198 26.0267 14.5712 26.0767C14.4226 26.1266 14.2822 26.1683 14.1502 26.2016C14.0016 26.2349 13.853 26.2682 13.7044 26.3015C13.5723 26.3348 13.432 26.3681 13.2834 26.4014C13.1348 26.418 12.9862 26.4347 12.8376 26.4514C12.7881 26.4514 12.7386 26.4597 12.6891 26.4763C12.6395 26.4763 12.59 26.4763 12.5405 26.4763C12.4909 26.4763 12.4414 26.4763 12.3919 26.4763C12.3423 26.4763 12.2928 26.4763 12.2433 26.4763C12.0782 26.4763 11.9131 26.468 11.748 26.4514C11.5664 26.4347 11.393 26.418 11.2279 26.4014C11.0628 26.3681 10.8977 26.3348 10.7326 26.3015C10.5675 26.2682 10.4024 26.2266 10.2373 26.1766C10.0227 26.11 9.81635 26.0434 9.61823 25.9768C9.4036 25.8935 9.19723 25.8019 8.99911 25.702C8.801 25.5855 8.61113 25.4689 8.42953 25.3523C8.24792 25.2358 8.07457 25.1026 7.90947 24.9527C7.7939 24.8694 7.68659 24.7862 7.58753 24.7029C7.48847 24.603 7.38941 24.5031 7.29035 24.4032C7.19129 24.3199 7.10049 24.2283 7.01794 24.1284C6.91888 24.0285 6.82808 23.9203 6.74553 23.8037C6.66298 23.7038 6.58043 23.6039 6.49788 23.504C6.41533 23.4041 6.33278 23.3042 6.25023 23.2043C6.16768 23.1043 6.09339 22.9961 6.02735 22.8795C5.9448 22.7796 5.87051 22.6714 5.80447 22.5548C4.17 20.082 2.21359 17.834 0.727706 15.2613C0.306706 14.562 -0.0647643 13.7877 0.00952984 12.9884C0.0838239 12.289 0.504824 11.6646 0.901059 11.0901L4.64053 5.84476C5.75494 4.29614 6.696 2.57268 8.23141 1.47366C8.39651 1.3571 8.5616 1.24054 8.7267 1.12398C8.8918 1.02407 9.06515 0.932481 9.24676 0.849222C9.41186 0.749311 9.58521 0.666052 9.76682 0.599445C9.94843 0.516186 10.1383 0.449579 10.3364 0.399623C10.419 0.36632 10.5015 0.333016 10.5841 0.299713C10.6831 0.283061 10.7739 0.266409 10.8565 0.249757C10.9555 0.233105 11.0463 0.216454 11.1289 0.199802C11.2279 0.18315 11.327 0.166498 11.4261 0.149847C11.5086 0.133195 11.5912 0.124869 11.6737 0.124869ZM6.10165 11.5397C6.11816 11.5397 6.14292 11.5397 6.17594 11.5397C6.19245 11.5397 6.20896 11.5313 6.22547 11.5147C6.24198 11.5147 6.25849 11.5064 6.275 11.4897C6.29151 11.4731 6.30802 11.4647 6.32453 11.4647C6.34104 11.4481 6.35755 11.4231 6.37406 11.3898C6.37406 11.3732 6.38231 11.3565 6.39882 11.3399C6.39882 11.3065 6.39882 11.2816 6.39882 11.2649C6.39882 11.2483 6.39882 11.2399 6.39882 11.2399C6.39882 11.2233 6.39882 11.2066 6.39882 11.19C6.39882 11.1733 6.39882 11.165 6.39882 11.165C6.39882 11.1484 6.39057 11.1317 6.37406 11.1151C6.37406 11.0651 6.35755 11.0151 6.32453 10.9652C6.30802 10.8986 6.29151 10.8236 6.275 10.7404C6.25849 10.6738 6.24198 10.5988 6.22547 10.5156C6.20896 10.449 6.2007 10.374 6.2007 10.2908C6.18419 10.2242 6.17594 10.1492 6.17594 10.066C6.17594 9.88282 6.19245 9.70797 6.22547 9.54146C6.25849 9.35829 6.30802 9.18344 6.37406 9.01693C6.4401 8.86706 6.52264 8.71719 6.6217 8.56733C6.72076 8.41746 6.82808 8.27592 6.94364 8.14271C7.02619 8.0761 7.10874 8.00949 7.19129 7.94289C7.27384 7.87628 7.35639 7.80967 7.43894 7.74306C7.52149 7.67646 7.61229 7.61818 7.71135 7.56822C7.7939 7.50161 7.8847 7.44333 7.98376 7.39338C8.03329 7.37672 8.08282 7.35175 8.13235 7.31844C8.13235 7.31844 8.1406 7.31844 8.15711 7.31844C8.15711 7.30179 8.15711 7.29346 8.15711 7.29346C8.17362 7.29346 8.18188 7.28514 8.18188 7.26849C8.18188 7.25184 8.18188 7.24351 8.18188 7.24351C8.18188 7.22686 8.18188 7.21853 8.18188 7.21853C8.18188 7.20188 8.18188 7.19355 8.18188 7.19355C8.16537 7.1436 8.15711 7.09364 8.15711 7.04369C8.1406 6.99373 8.13235 6.94378 8.13235 6.89382C8.13235 6.84387 8.1406 6.78559 8.15711 6.71898C8.15711 6.66902 8.16537 6.61907 8.18188 6.56911C8.19839 6.50251 8.2149 6.4359 8.23141 6.36929C8.23141 6.33599 8.23141 6.29436 8.23141 6.2444C8.23141 6.19445 8.22315 6.15282 8.20664 6.11951C8.19013 6.08621 8.16537 6.05291 8.13235 6.0196C8.09933 5.9863 8.05806 5.96132 8.00853 5.94467C7.90947 5.89471 7.81041 5.81978 7.68659 5.74485L7.58753 5.66992C7.57102 5.65326 7.56276 5.64494 7.56276 5.64494C7.56276 5.64494 7.55451 5.63661 7.538 5.61996C7.538 5.61996 7.52974 5.61996 7.51323 5.61996C7.49672 5.60331 7.48021 5.59498 7.4637 5.59498C7.44719 5.59498 7.43068 5.59498 7.41417 5.59498C7.39766 5.59498 7.38941 5.59498 7.38941 5.59498C7.3729 5.59498 7.35639 5.60331 7.33988 5.61996C7.24082 5.74485 7.117 5.86974 7.01794 5.99463C6.74553 6.31934 6.49788 6.66902 6.22547 6.99373C5.45776 7.94289 4.73959 8.94199 4.04618 9.91612C4.01316 9.96608 3.98014 10.016 3.94712 10.066C3.93061 10.0826 3.92235 10.0993 3.92235 10.1159C3.90584 10.1326 3.90584 10.1492 3.92235 10.1659C3.92235 10.1992 3.92235 10.2242 3.92235 10.2408C3.93886 10.2575 3.95537 10.2741 3.97188 10.2908C3.98839 10.2908 3.99665 10.2991 3.99665 10.3158C4.01316 10.3324 4.02967 10.3491 4.04618 10.3657C4.04618 10.3657 4.05443 10.374 4.07094 10.3907C4.08745 10.4074 4.10396 10.4157 4.12047 10.4157C4.20302 10.4823 4.28557 10.5489 4.36812 10.6155C4.45067 10.6821 4.53321 10.7487 4.61576 10.8153C4.69831 10.8819 4.78086 10.9402 4.86341 10.9902C4.94596 11.0568 5.03676 11.1151 5.13582 11.165C5.18535 11.1983 5.23488 11.2316 5.28441 11.2649C5.33394 11.2982 5.39172 11.3232 5.45776 11.3399C5.50729 11.3732 5.56508 11.3981 5.63112 11.4148C5.68065 11.4481 5.73843 11.4731 5.80447 11.4897C5.82098 11.4897 5.83749 11.498 5.854 11.5147C5.87051 11.5147 5.89527 11.5147 5.92829 11.5147C5.9448 11.5313 5.96131 11.5397 5.97782 11.5397C6.01084 11.5397 6.03561 11.5397 6.05212 11.5397C6.06863 11.5397 6.08514 11.5397 6.10165 11.5397ZM11.3022 11.4647C11.3187 11.4814 11.3435 11.498 11.3765 11.5147C11.393 11.5313 11.4178 11.548 11.4508 11.5646C11.4838 11.5646 11.5169 11.5646 11.5499 11.5646C11.5829 11.5646 11.6159 11.5646 11.6489 11.5646C11.6654 11.548 11.682 11.5397 11.6985 11.5397C11.715 11.5397 11.7232 11.5313 11.7232 11.5147C11.7397 11.5147 11.7562 11.5064 11.7728 11.4897C11.7893 11.4897 11.8058 11.4814 11.8223 11.4647C11.9544 11.3815 12.0864 11.2982 12.2185 11.215C12.2681 11.1983 12.3093 11.1733 12.3423 11.14C12.3919 11.1067 12.4414 11.0651 12.4909 11.0151C12.5405 10.9818 12.5817 10.9485 12.6148 10.9152C12.6643 10.8819 12.7056 10.8403 12.7386 10.7903C12.7551 10.7737 12.7716 10.757 12.7881 10.7404C12.8046 10.7237 12.8211 10.6988 12.8376 10.6655C12.8542 10.6488 12.8707 10.6321 12.8872 10.6155C12.9037 10.5822 12.9202 10.5572 12.9367 10.5406C12.9532 10.5239 12.9615 10.4989 12.9615 10.4656C12.978 10.449 12.9862 10.4323 12.9862 10.4157C13.0027 10.3824 13.011 10.3574 13.011 10.3407C13.011 10.3074 13.011 10.2825 13.011 10.2658C13.011 10.2159 13.011 10.1659 13.011 10.1159C12.9945 10.066 12.978 10.0244 12.9615 9.99106C12.945 9.9411 12.9284 9.89947 12.9119 9.86617C12.8954 9.83286 12.8707 9.79123 12.8376 9.74128C12.8046 9.72463 12.7799 9.69965 12.7633 9.66634C12.7303 9.64969 12.7056 9.62472 12.6891 9.59141C12.656 9.57476 12.623 9.54978 12.59 9.51648C12.557 9.49983 12.524 9.48318 12.4909 9.46652C12.2185 9.31666 11.9709 9.16679 11.6985 9.0419C11.6324 9.0086 11.5664 8.98362 11.5003 8.96697C11.4343 8.93367 11.3683 8.90869 11.3022 8.89204C11.2362 8.87539 11.1619 8.85873 11.0793 8.84208C11.0133 8.82543 10.9473 8.8171 10.8812 8.8171C10.7326 8.79213 10.6336 8.76715 10.5098 8.76715C10.4602 8.7505 10.4107 8.74217 10.3612 8.74217C10.3282 8.74217 10.2869 8.73384 10.2373 8.71719C10.1878 8.71719 10.1465 8.71719 10.1135 8.71719C10.064 8.71719 10.0145 8.71719 9.96494 8.71719C9.8989 8.71719 9.8246 8.71719 9.74206 8.71719C9.65951 8.73384 9.58521 8.74217 9.51917 8.74217C9.43662 8.75882 9.35407 8.77547 9.27153 8.79213C9.20549 8.79213 9.13119 8.80045 9.04864 8.8171C8.9826 8.83376 8.91656 8.85873 8.85053 8.89204C8.78449 8.90869 8.71019 8.92534 8.62764 8.94199C8.5616 8.9753 8.49556 9.0086 8.42953 9.0419C8.36349 9.05855 8.29745 9.08353 8.23141 9.11684C8.2149 9.13349 8.19839 9.14181 8.18188 9.14181C8.16537 9.15847 8.14886 9.17512 8.13235 9.19177C8.11584 9.20842 8.09107 9.21675 8.05806 9.21675C8.04155 9.2334 8.02504 9.25005 8.00853 9.2667C7.92598 9.34996 7.85168 9.44155 7.78564 9.54146C7.71961 9.65802 7.67008 9.77458 7.63706 9.89114C7.60404 10.0077 7.59578 10.1326 7.61229 10.2658C7.61229 10.3824 7.63706 10.4989 7.68659 10.6155C7.7031 10.6655 7.71961 10.7071 7.73611 10.7404C7.75262 10.7737 7.77739 10.7987 7.81041 10.8153C7.82692 10.8486 7.85168 10.8736 7.8847 10.8903C7.91772 10.9236 7.95074 10.9485 7.98376 10.9652C8.01678 10.9652 8.04155 10.9735 8.05806 10.9902C8.09107 10.9902 8.11584 10.9902 8.13235 10.9902C8.16537 11.0068 8.19013 11.0151 8.20664 11.0151C8.23966 11.0151 8.26443 11.0151 8.28094 11.0151C8.34698 11.0151 8.41302 11.0151 8.47906 11.0151C8.49557 11.0151 8.52033 11.0151 8.55335 11.0151C8.58637 11.0151 8.61939 11.0151 8.65241 11.0151C8.66892 11.0151 8.69368 11.0151 8.7267 11.0151C8.75972 11.0318 8.79274 11.0401 8.82576 11.0401C8.87529 11.0568 8.93308 11.0734 8.99911 11.0901C8.99911 11.1067 9.00737 11.1151 9.02388 11.1151C9.04039 11.1151 9.0569 11.1151 9.07341 11.1151C9.08992 11.0984 9.09817 11.0901 9.09817 11.0901C9.11468 11.0734 9.13119 11.0651 9.1477 11.0651C9.16421 11.0318 9.18072 11.0068 9.19723 10.9902C9.23025 10.9402 9.27153 10.8986 9.32106 10.8653C9.35407 10.832 9.39535 10.807 9.44488 10.7903C9.49441 10.757 9.54394 10.7321 9.59347 10.7154C9.643 10.6988 9.70078 10.6821 9.76682 10.6655C9.83286 10.6488 9.90715 10.6405 9.9897 10.6405C10.0557 10.6405 10.13 10.6405 10.2126 10.6405C10.2786 10.6571 10.3529 10.6738 10.4355 10.6904C10.5015 10.7071 10.5758 10.7237 10.6583 10.7404C10.7079 10.757 10.7492 10.782 10.7822 10.8153C10.8317 10.832 10.873 10.8569 10.906 10.8903C10.939 10.9236 10.972 10.9569 11.0051 10.9902C11.0381 11.0401 11.0628 11.0817 11.0793 11.1151C11.1124 11.165 11.1454 11.2233 11.1784 11.2899C11.1784 11.3065 11.1867 11.3232 11.2032 11.3399C11.2032 11.3565 11.2114 11.3732 11.2279 11.3898C11.2444 11.3898 11.2527 11.3981 11.2527 11.4148C11.2692 11.4314 11.2857 11.4481 11.3022 11.4647ZM9.76682 12.7136C9.75031 12.7136 9.74206 12.7136 9.74206 12.7136C9.72555 12.7136 9.71729 12.7053 9.71729 12.6886C9.70078 12.672 9.69253 12.6637 9.69253 12.6637L9.27153 11.9393C9.25502 11.906 9.23851 11.8894 9.222 11.8894C9.18898 11.8727 9.16421 11.8644 9.1477 11.8644C9.11468 11.8644 9.08166 11.8727 9.04864 11.8894C9.03213 11.8894 9.01562 11.906 8.99911 11.9393L8.57811 12.6637C8.57811 12.6637 8.56986 12.672 8.55335 12.6886C8.53684 12.7053 8.52858 12.7136 8.52858 12.7136C8.52858 12.7136 8.52033 12.7136 8.50382 12.7136L7.76088 13.1133C7.74437 13.1299 7.72786 13.1466 7.71135 13.1632C7.69484 13.1965 7.68659 13.2298 7.68659 13.2631C7.68659 13.2798 7.69484 13.3048 7.71135 13.3381C7.72786 13.3547 7.74437 13.3714 7.76088 13.388L8.50382 13.7877C8.52033 13.7877 8.52858 13.7877 8.52858 13.7877C8.52858 13.7877 8.53684 13.796 8.55335 13.8126C8.56986 13.8293 8.57811 13.8376 8.57811 13.8376L8.99911 14.562C9.01562 14.5953 9.03213 14.6203 9.04864 14.6369C9.08166 14.6369 9.11468 14.6369 9.1477 14.6369C9.16421 14.6369 9.18898 14.6369 9.222 14.6369C9.23851 14.6203 9.25502 14.5953 9.27153 14.562L9.69253 13.8376C9.69253 13.8376 9.69253 13.8293 9.69253 13.8126C9.70904 13.8126 9.71729 13.8126 9.71729 13.8126C9.71729 13.796 9.72555 13.7877 9.74206 13.7877C9.74206 13.7877 9.75031 13.7877 9.76682 13.7877L10.5098 13.388C10.5263 13.3714 10.5428 13.3547 10.5593 13.3381C10.5758 13.3048 10.5841 13.2798 10.5841 13.2631C10.5841 13.2298 10.5758 13.1965 10.5593 13.1632C10.5428 13.1466 10.5263 13.1299 10.5098 13.1133L9.76682 12.7136ZM11.7975 12.8385C11.748 12.8385 11.6985 12.8468 11.6489 12.8635C11.5994 12.8801 11.5581 12.9134 11.5251 12.9634C11.4756 12.9967 11.4426 13.0383 11.4261 13.0883C11.4095 13.1382 11.4013 13.1882 11.4013 13.2382C11.4013 13.413 11.5003 13.5629 11.6489 13.6128C11.7975 13.6878 11.9709 13.6378 12.0699 13.5379C12.1938 13.413 12.2185 13.2382 12.169 13.0883C12.1195 12.9384 11.9709 12.8385 11.8223 12.8385H11.7975ZM6.696 13.6378C6.74553 13.6378 6.79506 13.6295 6.84459 13.6128C6.89412 13.5962 6.93539 13.5712 6.96841 13.5379C7.00143 13.5046 7.03445 13.463 7.06747 13.413C7.08398 13.363 7.09223 13.3131 7.09223 13.2631C7.09223 13.0883 6.99317 12.9384 6.84459 12.8885C6.696 12.8135 6.52265 12.8635 6.42359 12.9634C6.29976 13.0883 6.275 13.2631 6.32453 13.413C6.39882 13.5629 6.54741 13.6628 6.696 13.6628V13.6378ZM3.37753 14.6619C3.37753 14.6785 3.38578 14.6869 3.40229 14.6869C3.4188 14.6869 3.42706 14.6869 3.42706 14.6869C3.44357 14.6869 3.45182 14.6869 3.45182 14.6869L5.55682 13.3131C5.57333 13.3131 5.58159 13.3048 5.58159 13.2881C5.58159 13.2881 5.58159 13.2798 5.58159 13.2631C5.58159 13.2631 5.58159 13.2548 5.58159 13.2382C5.58159 13.2382 5.57333 13.2298 5.55682 13.2132L3.45182 11.8894C3.45182 11.8727 3.45182 11.8644 3.45182 11.8644C3.43531 11.8644 3.42706 11.8644 3.42706 11.8644C3.41055 11.8644 3.40229 11.8644 3.40229 11.8644C3.40229 11.8644 3.39404 11.8727 3.37753 11.8894L2.04023 13.2382C2.04023 13.2382 2.04023 13.2465 2.04023 13.2631C2.02373 13.2631 2.01547 13.2715 2.01547 13.2881C2.01547 13.2881 2.02373 13.2964 2.04023 13.3131L3.37753 14.6869V14.6619ZM7.21606 20.9063C7.19955 20.9063 7.19129 20.9063 7.19129 20.9063H7.21606ZM7.21606 20.9063C7.23257 20.9063 7.24082 20.9063 7.24082 20.9063C7.25733 20.923 7.27384 20.9313 7.29035 20.9313C7.30686 20.9313 7.32337 20.9313 7.33988 20.9313C7.35639 20.9146 7.36464 20.9063 7.36464 20.9063L7.43894 20.8813C7.47196 20.8647 7.50498 20.848 7.538 20.8314C7.57102 20.7981 7.60404 20.7731 7.63706 20.7564C7.67008 20.7398 7.7031 20.7231 7.73611 20.7065C7.76913 20.6732 7.7939 20.6482 7.81041 20.6315C7.84343 20.6149 7.86819 20.5899 7.8847 20.5566C7.91772 20.54 7.94249 20.5233 7.959 20.5067C7.99202 20.49 8.01678 20.4734 8.03329 20.4567C8.06631 20.4401 8.09933 20.4317 8.13235 20.4317C8.13235 20.4151 8.1406 20.4068 8.15711 20.4068C8.17362 20.3901 8.18188 20.3818 8.18188 20.3818C8.18188 20.3651 8.18188 20.3485 8.18188 20.3318C8.18188 20.3318 8.18188 20.3235 8.18188 20.3068C8.14886 20.157 8.11584 19.9988 8.08282 19.8323C8.06631 19.799 8.05806 19.7573 8.05806 19.7074C8.04155 19.6741 8.03329 19.6324 8.03329 19.5825C8.03329 19.5325 8.04155 19.4909 8.05806 19.4576C8.05806 19.4076 8.06631 19.366 8.08282 19.3327C8.09933 19.2661 8.07457 19.2245 8.00853 19.2078C7.959 19.1912 7.91772 19.1745 7.8847 19.1579C7.83517 19.1412 7.7939 19.1246 7.76088 19.1079C7.72786 19.0746 7.68659 19.0496 7.63706 19.033C7.60404 19.0163 7.57102 18.9913 7.538 18.958C7.43894 18.8914 7.34814 18.8248 7.26559 18.7582C7.18304 18.6916 7.10049 18.625 7.01794 18.5584C6.93539 18.4751 6.8611 18.3919 6.79506 18.3086C6.71251 18.242 6.63821 18.1671 6.57217 18.0838C6.52265 18.0172 6.48137 17.9506 6.44835 17.884C6.39882 17.8174 6.35755 17.7425 6.32453 17.6592C6.29151 17.5926 6.26674 17.526 6.25023 17.4594C6.21721 17.3761 6.19245 17.3012 6.17594 17.2346C6.15943 17.0847 6.14292 16.9349 6.12641 16.785C6.12641 16.6351 6.13466 16.4853 6.15117 16.3354C6.15117 16.1855 6.16768 16.044 6.2007 15.9108C6.23372 15.7609 6.26674 15.6194 6.29976 15.4861C6.31627 15.4195 6.33278 15.3613 6.34929 15.3113C6.3658 15.278 6.3658 15.2364 6.34929 15.1864C6.34929 15.1531 6.33278 15.1115 6.29976 15.0615C6.26674 15.0282 6.23372 15.0032 6.2007 14.9866C6.16768 14.9699 6.12641 14.9616 6.07688 14.9616C6.05212 14.9366 6.00259 14.9366 5.95306 14.9366H5.854C5.78796 14.9533 5.73017 14.9699 5.68065 14.9866C5.61461 15.0032 5.54857 15.0199 5.48253 15.0365C5.433 15.0532 5.37521 15.0782 5.30917 15.1115C5.25965 15.1448 5.20186 15.1781 5.13582 15.2114C5.08629 15.228 5.02851 15.253 4.96247 15.2863C4.64878 15.5028 4.34335 15.7193 4.04618 15.9357C4.02967 15.9524 4.01316 15.9607 3.99665 15.9607C3.99665 15.9774 3.98839 15.9857 3.97188 15.9857C3.95537 16.0024 3.94712 16.019 3.94712 16.0357C3.93061 16.0357 3.9141 16.044 3.89759 16.0606C3.88108 16.0773 3.87282 16.0939 3.87282 16.1106C3.85631 16.1272 3.84806 16.1522 3.84806 16.1855C3.83155 16.2022 3.83155 16.2188 3.84806 16.2355C3.84806 16.2688 3.85631 16.2938 3.87282 16.3104C3.92235 16.3937 3.97188 16.4686 4.02141 16.5352L5.23488 18.2087C5.5981 18.7083 5.95306 19.2078 6.29976 19.7074C6.51439 19.9905 6.72902 20.2819 6.94364 20.5816C6.99317 20.6649 7.05096 20.7398 7.117 20.8064C7.117 20.8064 7.12525 20.8147 7.14176 20.8314C7.14176 20.8314 7.15002 20.8397 7.16653 20.8563C7.16653 20.8563 7.17478 20.8647 7.19129 20.8813C7.2078 20.8813 7.21606 20.8897 7.21606 20.9063ZM10.8069 15.636C10.7574 15.7026 10.6996 15.7526 10.6336 15.7859C10.5841 15.8358 10.518 15.8775 10.4355 15.9108C10.3694 15.9274 10.2951 15.9441 10.2126 15.9607C10.1465 15.9607 10.0723 15.9607 9.9897 15.9607C9.90715 15.9607 9.8246 15.9441 9.74206 15.9108C9.67602 15.8941 9.60172 15.8691 9.51917 15.8358C9.45313 15.7859 9.38709 15.7359 9.32106 15.686C9.23851 15.636 9.17247 15.5861 9.12294 15.5361L9.04864 15.4612C9.03213 15.4612 9.02388 15.4612 9.02388 15.4612C9.00737 15.4612 8.99911 15.4612 8.99911 15.4612C8.9826 15.4612 8.97435 15.4612 8.97435 15.4612C8.97435 15.4612 8.96609 15.4612 8.94958 15.4612C8.94958 15.4612 8.94958 15.4695 8.94958 15.4861C8.93308 15.4861 8.92482 15.4861 8.92482 15.4861C8.90831 15.5028 8.88355 15.5111 8.85053 15.5111C8.81751 15.5278 8.79274 15.5361 8.77623 15.5361C8.74321 15.5528 8.71019 15.5611 8.67717 15.5611C8.66066 15.5777 8.6359 15.5861 8.60288 15.5861C8.56986 15.5861 8.53684 15.5861 8.50382 15.5861C8.4708 15.6027 8.44604 15.611 8.42953 15.611C8.39651 15.611 8.36349 15.611 8.33047 15.611C8.29745 15.611 8.26443 15.611 8.23141 15.611H7.98376C7.96725 15.611 7.94249 15.6194 7.90947 15.636C7.87645 15.636 7.85168 15.6443 7.83517 15.661C7.80215 15.6776 7.77739 15.6943 7.76088 15.7109C7.74437 15.7442 7.72786 15.7692 7.71135 15.7859C7.71135 15.8025 7.7031 15.8192 7.68659 15.8358C7.68659 15.8691 7.67833 15.8941 7.66182 15.9108C7.66182 15.9274 7.66182 15.9441 7.66182 15.9607C7.64531 15.9774 7.63706 15.994 7.63706 16.0107C7.62055 16.0773 7.61229 16.1439 7.61229 16.2105C7.59578 16.2771 7.59578 16.3354 7.61229 16.3853C7.61229 16.452 7.62055 16.5186 7.63706 16.5852C7.67008 16.6351 7.69484 16.6934 7.71135 16.76C7.74437 16.7933 7.76913 16.8266 7.78564 16.8599C7.81866 16.9099 7.84343 16.9515 7.85994 16.9848C7.89296 17.0181 7.92598 17.0514 7.959 17.0847C7.99202 17.118 8.02504 17.143 8.05806 17.1597C8.12409 17.2096 8.19013 17.2596 8.25617 17.3095C8.33872 17.3595 8.42127 17.4011 8.50382 17.4344C8.56986 17.4844 8.64415 17.526 8.7267 17.5593C8.80925 17.5926 8.8918 17.6176 8.97435 17.6342C9.0569 17.6675 9.13945 17.6925 9.222 17.7092C9.32105 17.7425 9.42011 17.7674 9.51917 17.7841C9.61823 17.8007 9.71729 17.8174 9.81635 17.834C9.91541 17.8507 10.0145 17.859 10.1135 17.859C10.2126 17.8757 10.3199 17.884 10.4355 17.884H10.6831C10.6831 17.884 10.6914 17.884 10.7079 17.884C10.7244 17.884 10.7409 17.884 10.7574 17.884C10.7739 17.884 10.7904 17.884 10.8069 17.884C10.8069 17.884 10.8152 17.884 10.8317 17.884C11.0133 17.8507 11.1867 17.8174 11.3518 17.7841C11.5169 17.7341 11.6737 17.6675 11.8223 17.5843C11.9709 17.501 12.1195 17.4094 12.2681 17.3095C12.4001 17.2096 12.5322 17.1014 12.6643 16.9848C12.6808 16.9682 12.7056 16.9432 12.7386 16.9099C12.7551 16.8766 12.7799 16.8516 12.8129 16.8349C12.8294 16.8016 12.8542 16.7683 12.8872 16.735C12.9037 16.7017 12.9202 16.6767 12.9367 16.6601C12.9532 16.6434 12.9697 16.6268 12.9862 16.6101C12.9862 16.5935 12.9945 16.5768 13.011 16.5602C13.0275 16.5435 13.0358 16.5186 13.0358 16.4853C13.0523 16.4686 13.0605 16.4519 13.0605 16.4353C13.077 16.402 13.0853 16.3687 13.0853 16.3354C13.0853 16.3021 13.0853 16.2688 13.0853 16.2355C13.0853 16.2188 13.077 16.1938 13.0605 16.1605C13.0605 16.1272 13.0523 16.0939 13.0358 16.0606C13.0192 16.044 13.011 16.0273 13.011 16.0107C12.9945 15.994 12.9862 15.9774 12.9862 15.9607C12.9697 15.9441 12.9532 15.9274 12.9367 15.9108C12.9367 15.9108 12.9284 15.9024 12.9119 15.8858C12.8789 15.8525 12.8459 15.8275 12.8129 15.8109C12.7964 15.7776 12.7716 15.7526 12.7386 15.7359C12.7056 15.7193 12.6725 15.6943 12.6395 15.661C12.6065 15.6443 12.5735 15.6277 12.5405 15.611L11.6985 15.1365L11.5746 15.0615C11.5581 15.0615 11.5416 15.0532 11.5251 15.0365C11.4921 15.0365 11.4673 15.0365 11.4508 15.0365C11.4178 15.0365 11.393 15.0449 11.3765 15.0615C11.36 15.0615 11.3353 15.0699 11.3022 15.0865C11.3022 15.1032 11.294 15.1115 11.2775 15.1115C11.261 15.1281 11.2527 15.1365 11.2527 15.1365C11.2362 15.1531 11.2197 15.1698 11.2032 15.1864C11.2032 15.1864 11.1949 15.1947 11.1784 15.2114C11.1784 15.228 11.1702 15.2447 11.1536 15.2613C11.1371 15.2613 11.1289 15.2697 11.1289 15.2863C11.1124 15.303 11.1041 15.3113 11.1041 15.3113C11.0876 15.328 11.0793 15.3446 11.0793 15.3613C11.0628 15.3946 11.0381 15.4195 11.0051 15.4362C10.9885 15.4695 10.972 15.4945 10.9555 15.5111C10.939 15.5444 10.9143 15.5694 10.8812 15.5861C10.8647 15.6194 10.8482 15.6443 10.8317 15.661L10.8069 15.636ZM20.7376 20.5316C20.7376 20.465 20.7293 20.4151 20.7128 20.3818C20.6798 20.3318 20.6468 20.2902 20.6138 20.2569C20.5807 20.2069 20.5395 20.1736 20.4899 20.157C20.4404 20.1403 20.3909 20.132 20.3413 20.132C20.1928 20.132 20.0442 20.2319 19.9699 20.3818C19.9203 20.5316 19.9451 20.7065 20.0689 20.8314C20.168 20.9313 20.3413 20.9812 20.4899 20.9063C20.6633 20.8563 20.7623 20.7065 20.7623 20.5316H20.7376ZM15.958 20.0321C15.9415 19.9988 15.9167 19.9738 15.8837 19.9572C15.8507 19.9405 15.8177 19.9322 15.7846 19.9322C15.7516 19.9155 15.7186 19.9072 15.6856 19.9072C15.6526 19.9072 15.6278 19.9072 15.6113 19.9072C15.5948 19.9072 15.5783 19.9155 15.5618 19.9322C15.5452 19.9322 15.5287 19.9322 15.5122 19.9322C15.5122 19.9488 15.504 19.9572 15.4875 19.9572C15.471 19.9738 15.4627 19.9821 15.4627 19.9821C15.4462 19.9988 15.4379 20.0154 15.4379 20.0321C15.4214 20.0487 15.4049 20.0654 15.3884 20.082C15.3884 20.082 15.3884 20.0904 15.3884 20.107C15.3719 20.1237 15.3636 20.1403 15.3636 20.157C15.3471 20.2569 15.3306 20.3568 15.3141 20.4567C15.3141 20.49 15.3141 20.5316 15.3141 20.5816C15.2976 20.6149 15.2893 20.6565 15.2893 20.7065C15.2893 20.7398 15.2811 20.7814 15.2646 20.8314C15.2646 20.8647 15.2563 20.9063 15.2398 20.9563C15.2398 20.9729 15.2316 20.9979 15.2151 21.0312C15.2151 21.0478 15.2068 21.0728 15.1903 21.1061C15.1903 21.1228 15.182 21.1394 15.1655 21.1561C15.149 21.1894 15.1408 21.2144 15.1408 21.231C15.1242 21.2643 15.0995 21.2976 15.0665 21.3309C15.05 21.3476 15.0252 21.3642 14.9922 21.3809C14.9592 21.4142 14.9261 21.4392 14.8931 21.4558C14.8601 21.4725 14.8271 21.4808 14.7941 21.4808C14.7775 21.4808 14.761 21.4808 14.7445 21.4808C14.728 21.4808 14.7115 21.4891 14.695 21.5058C14.6785 21.5058 14.662 21.5058 14.6455 21.5058C14.629 21.5058 14.6124 21.5058 14.5959 21.5058C14.4969 21.5058 14.4061 21.4974 14.3235 21.4808C14.2245 21.4641 14.1337 21.4392 14.0511 21.4059C13.9686 21.3726 13.886 21.3309 13.8035 21.281C13.7209 21.2144 13.6466 21.1561 13.5806 21.1061C13.498 21.0229 13.4237 20.9479 13.3577 20.8813C13.3082 20.7981 13.2504 20.7148 13.1843 20.6315C13.1348 20.5316 13.0935 20.4401 13.0605 20.3568C13.011 20.2569 12.978 20.157 12.9615 20.0571C12.945 20.0071 12.9284 19.9655 12.9119 19.9322C12.9119 19.8822 12.9037 19.8323 12.8872 19.7823C12.8872 19.7324 12.8872 19.6824 12.8872 19.6324C12.8872 19.5825 12.8954 19.5409 12.9119 19.5076C12.9119 19.4743 12.9119 19.4493 12.9119 19.4326C12.9119 19.416 12.9119 19.3993 12.9119 19.3827C12.9119 19.366 12.9119 19.3494 12.9119 19.3327C12.9119 19.3161 12.9119 19.2994 12.9119 19.2828C12.9119 19.2661 12.9037 19.2495 12.8872 19.2328C12.8872 19.2161 12.8789 19.2078 12.8624 19.2078C12.8624 19.1912 12.8542 19.1828 12.8376 19.1828C12.8211 19.1828 12.8046 19.1828 12.7881 19.1828C12.7881 19.1828 12.7799 19.1828 12.7633 19.1828C12.7468 19.1995 12.7386 19.2078 12.7386 19.2078C12.7221 19.2078 12.7138 19.2078 12.7138 19.2078L12.59 19.2578C12.4249 19.3077 12.2598 19.366 12.0947 19.4326C12.0287 19.4493 11.9709 19.4659 11.9213 19.4826C11.8553 19.4992 11.7975 19.5159 11.748 19.5325C11.682 19.5325 11.6242 19.5409 11.5746 19.5575C11.5086 19.5742 11.4508 19.5908 11.4013 19.6075C11.3022 19.6075 11.1949 19.6158 11.0793 19.6324C10.9803 19.6491 10.8812 19.6574 10.7822 19.6574C10.6831 19.6741 10.5758 19.6824 10.4602 19.6824C10.3612 19.6824 10.2621 19.6824 10.1631 19.6824H10.0392C10.0227 19.6824 10.0062 19.6824 9.9897 19.6824C9.97319 19.699 9.95668 19.7157 9.94017 19.7324C9.92366 19.7324 9.90715 19.7407 9.89064 19.7573C9.89064 19.774 9.89064 19.7906 9.89064 19.8073C9.85762 19.8905 9.83286 19.9655 9.81635 20.0321C9.81635 20.0654 9.80809 20.0987 9.79158 20.132C9.79158 20.1653 9.78333 20.1986 9.76682 20.2319C9.75031 20.2652 9.7338 20.2985 9.71729 20.3318C9.71729 20.3651 9.70904 20.3984 9.69253 20.4317C9.67602 20.465 9.65951 20.49 9.643 20.5067C9.62649 20.54 9.60998 20.5649 9.59347 20.5816C9.57696 20.5982 9.56045 20.6232 9.54394 20.6565C9.52743 20.6732 9.51092 20.6898 9.49441 20.7065C9.46139 20.7564 9.42837 20.7981 9.39535 20.8314C9.36233 20.8647 9.33757 20.898 9.32106 20.9313C9.28804 20.9646 9.25502 20.9979 9.222 21.0312C9.18898 21.0645 9.15596 21.0978 9.12294 21.1311C9.02388 21.2144 8.91656 21.2976 8.801 21.3809C8.58637 21.5307 8.37174 21.6889 8.15711 21.8555C8.08282 21.8804 8.08282 21.9054 7.98376 21.9803C7.90947 22.0303 7.90947 22.0803 7.959 22.1802C7.959 22.1968 7.96725 22.2051 7.98376 22.2051C7.98376 22.2218 7.99202 22.2384 8.00853 22.2551C8.00853 22.2718 8.00853 22.2801 8.00853 22.2801C8.02504 22.2967 8.03329 22.3134 8.03329 22.33C8.11584 22.4299 8.19839 22.5215 8.28094 22.6048C8.34698 22.6714 8.41302 22.738 8.47906 22.8046C8.5616 22.8712 8.6359 22.9378 8.70194 23.0044C8.76798 23.071 8.84227 23.1293 8.92482 23.1793C8.99086 23.2459 9.06515 23.3042 9.1477 23.3541C9.3128 23.4873 9.48615 23.6039 9.66776 23.7038C9.84937 23.8204 10.0392 23.9286 10.2373 24.0285C10.419 24.1118 10.6088 24.195 10.8069 24.2783C11.0051 24.3616 11.2114 24.4282 11.4261 24.4781C11.4426 24.4781 11.4591 24.4864 11.4756 24.5031C11.5086 24.5031 11.5334 24.5031 11.5499 24.5031C11.5829 24.5197 11.6077 24.5281 11.6242 24.5281C11.6407 24.5281 11.6654 24.5364 11.6985 24.553C11.781 24.553 11.8553 24.5614 11.9213 24.578C12.0039 24.578 12.0864 24.5864 12.169 24.603C12.2515 24.603 12.3258 24.603 12.3919 24.603C12.4744 24.603 12.557 24.603 12.6395 24.603C12.7551 24.603 12.8707 24.603 12.9862 24.603C13.1018 24.5864 13.2174 24.5697 13.3329 24.553C13.4485 24.5364 13.5641 24.5114 13.6796 24.4781C13.7952 24.4448 13.9025 24.4115 14.0016 24.3782C14.1337 24.3449 14.2575 24.3033 14.3731 24.2533C14.5051 24.2034 14.629 24.1451 14.7445 24.0785C14.8601 24.0119 14.9674 23.9369 15.0665 23.8537C15.182 23.7871 15.2893 23.7121 15.3884 23.6289C15.4214 23.5789 15.4627 23.5373 15.5122 23.504C15.5452 23.454 15.5865 23.4124 15.6361 23.3791C15.6691 23.3291 15.7103 23.2875 15.7599 23.2542C15.7929 23.2043 15.8342 23.1626 15.8837 23.1293C15.9167 23.0627 15.958 23.0044 16.0075 22.9545C16.0571 22.8879 16.0983 22.8296 16.1313 22.7796C16.1809 22.713 16.2222 22.6464 16.2552 22.5798C16.2882 22.5132 16.3212 22.4549 16.3542 22.405C16.3707 22.3717 16.3873 22.3384 16.4038 22.3051C16.4038 22.2718 16.412 22.2384 16.4285 22.2051C16.445 22.1718 16.4533 22.1385 16.4533 22.1052C16.4533 22.0719 16.4533 22.0386 16.4533 22.0053C16.4533 21.9054 16.4781 21.8055 16.4781 21.7306C16.4781 21.664 16.4863 21.5974 16.5028 21.5307C16.5028 21.4641 16.5028 21.4059 16.5028 21.3559C16.4863 21.2893 16.4781 21.2227 16.4781 21.1561C16.4781 21.0895 16.4698 21.0312 16.4533 20.9812C16.4368 20.8813 16.4203 20.7897 16.4038 20.7065C16.3707 20.6232 16.3295 20.5483 16.2799 20.4817C16.2469 20.3984 16.2056 20.3235 16.1561 20.2569C16.0901 20.1736 16.024 20.107 15.958 20.0571V20.0321ZM20.2175 14.562C20.2175 14.562 20.2093 14.562 20.1928 14.562C20.1928 14.562 20.1845 14.562 20.168 14.562C20.168 14.562 20.1597 14.562 20.1432 14.562C20.1267 14.562 20.1102 14.562 20.0937 14.562C20.0772 14.562 20.0689 14.5703 20.0689 14.587C20.0524 14.6036 20.0442 14.6119 20.0442 14.6119C20.0277 14.6286 20.0194 14.6452 20.0194 14.6619C20.0194 14.7118 20.0194 14.7118 20.0194 14.7618C20.0194 14.8117 20.0194 14.8617 20.0194 14.9117C20.0194 14.945 20.0194 14.9699 20.0194 14.9866C20.0029 15.0199 19.9946 15.0532 19.9946 15.0865C19.9781 15.1032 19.9616 15.1281 19.9451 15.1614C19.9286 15.1781 19.9121 15.2031 19.8956 15.2364C19.8791 15.253 19.8543 15.278 19.8213 15.3113C19.8048 15.328 19.78 15.3446 19.747 15.3613C19.714 15.3779 19.681 15.3946 19.6479 15.4112C19.6149 15.4279 19.5819 15.4362 19.5489 15.4362C19.5159 15.4362 19.4911 15.4362 19.4746 15.4362C19.4416 15.4528 19.4168 15.4612 19.4003 15.4612C19.3673 15.4612 19.3425 15.4612 19.326 15.4612C19.293 15.4612 19.2682 15.4612 19.2517 15.4612C19.0701 15.4612 18.905 15.4612 18.7564 15.4612C18.2611 15.4362 17.7658 15.4362 17.2458 15.4362C17.1962 15.4362 17.1467 15.4362 17.0972 15.4362C17.0476 15.4528 16.9981 15.4612 16.9486 15.4612C16.8991 15.4778 16.8495 15.4945 16.8 15.5111C16.7505 15.5278 16.7009 15.5444 16.6514 15.5611C16.6349 15.5777 16.6101 15.5861 16.5771 15.5861C16.5606 15.6027 16.5441 15.611 16.5276 15.611C16.5111 15.6277 16.4863 15.6443 16.4533 15.661C16.4368 15.661 16.4203 15.6693 16.4038 15.686C16.3377 15.7193 16.2799 15.7526 16.2304 15.7859C16.1809 15.8192 16.1313 15.8608 16.0818 15.9108C16.0323 15.9607 15.9828 16.0107 15.9332 16.0606C15.8837 16.1106 15.8342 16.1605 15.7846 16.2105C15.7186 16.2938 15.6526 16.3853 15.5865 16.4853C15.5205 16.5852 15.4544 16.6767 15.3884 16.76C15.3224 16.8599 15.2646 16.9598 15.2151 17.0597C15.149 17.1763 15.0912 17.2845 15.0417 17.3845C15.0417 17.4011 15.0417 17.4094 15.0417 17.4094C15.0417 17.4094 15.0334 17.4094 15.0169 17.4094C15.0169 17.4261 15.0169 17.4344 15.0169 17.4344C15.0169 17.4511 15.0169 17.4594 15.0169 17.4594C15.0169 17.4594 15.0169 17.4677 15.0169 17.4844C15.0169 17.4844 15.0169 17.4927 15.0169 17.5093C15.0169 17.526 15.0252 17.5343 15.0417 17.5343C15.0417 17.551 15.05 17.5593 15.0665 17.5593C15.0665 17.5759 15.0747 17.5843 15.0912 17.5843C15.1573 17.6009 15.2151 17.6093 15.2646 17.6093C15.3306 17.6093 15.3884 17.6093 15.4379 17.6093C15.504 17.6093 15.5618 17.6176 15.6113 17.6342C15.6608 17.6342 15.7186 17.6426 15.7846 17.6592C15.8342 17.6592 15.892 17.6675 15.958 17.6842C16.2056 17.7508 16.4533 17.8424 16.7009 17.9589C16.9321 18.0922 17.155 18.242 17.3696 18.4085C17.5677 18.5751 17.7493 18.7665 17.9144 18.983C18.063 19.1995 18.1951 19.4326 18.3106 19.6824L18.3602 19.8073C18.3767 19.8239 18.3849 19.8406 18.3849 19.8572C18.4014 19.8572 18.418 19.8656 18.4345 19.8822C18.451 19.8822 18.4675 19.8822 18.484 19.8822C18.5005 19.8822 18.5088 19.8739 18.5088 19.8572C18.5418 19.8406 18.5748 19.8239 18.6078 19.8073C18.6739 19.7407 18.7564 19.6824 18.8555 19.6324C18.8885 19.5991 18.9298 19.5742 18.9793 19.5575C19.0288 19.5409 19.0783 19.5242 19.1279 19.5076C19.1774 19.4909 19.2269 19.4743 19.2765 19.4576C19.326 19.4409 19.3755 19.4326 19.4251 19.4326C19.4416 19.4326 19.4498 19.4243 19.4498 19.4076C19.4663 19.4076 19.4746 19.3993 19.4746 19.3827C19.4911 19.3827 19.4993 19.3743 19.4993 19.3577C19.4993 19.341 19.4993 19.3327 19.4993 19.3327C19.4993 19.2661 19.4993 19.2078 19.4993 19.1579C19.4993 19.1079 19.4993 19.0496 19.4993 18.983C19.4828 18.9331 19.4746 18.8748 19.4746 18.8082C19.4746 18.7416 19.4828 18.6833 19.4993 18.6333C19.4993 18.5667 19.4993 18.5084 19.4993 18.4585C19.4993 18.3752 19.5076 18.292 19.5241 18.2087C19.5406 18.1255 19.5571 18.0422 19.5736 17.9589C19.5901 17.8757 19.6149 17.7924 19.6479 17.7092C19.681 17.6259 19.714 17.5426 19.747 17.4594C19.8295 17.3095 19.9121 17.1597 19.9946 17.0098C20.0277 16.9432 20.0607 16.8766 20.0937 16.81C20.1432 16.7434 20.1845 16.6851 20.2175 16.6351C20.2671 16.5685 20.3083 16.5102 20.3413 16.4603C20.3909 16.4103 20.4404 16.3604 20.4899 16.3104C20.589 16.1938 20.6963 16.0939 20.8119 16.0107C20.9274 15.9274 21.043 15.8525 21.1586 15.7859C21.2907 15.7193 21.4227 15.661 21.5548 15.611C21.6869 15.5611 21.8272 15.5278 21.9758 15.5111C22.0584 15.4945 22.1492 15.4861 22.2482 15.4861C22.3308 15.4695 22.4216 15.4695 22.5206 15.4861C22.6032 15.4861 22.6857 15.4945 22.7683 15.5111C22.8673 15.5278 22.9581 15.5528 23.0407 15.5861C23.1067 15.6027 23.1728 15.6194 23.2388 15.636C23.3049 15.6693 23.3709 15.7026 23.4369 15.7359C23.503 15.7526 23.5608 15.7776 23.6103 15.8109C23.6763 15.8442 23.7424 15.8858 23.8084 15.9357L23.9322 16.0107C23.9322 16.0107 23.9405 16.0107 23.957 16.0107C23.957 16.0107 23.9652 16.0024 23.9818 15.9857C23.9983 15.969 24.0065 15.9607 24.0065 15.9607C24.0065 15.9441 24.0065 15.9274 24.0065 15.9108C24.0065 15.8941 24.0065 15.8775 24.0065 15.8608C24.0065 15.8442 24.0065 15.8275 24.0065 15.8109C24.0065 15.8109 24.0065 15.8025 24.0065 15.7859C23.9735 15.4861 23.9405 15.1947 23.9075 14.9117C23.9075 14.895 23.9075 14.8784 23.9075 14.8617C23.9075 14.8451 23.9075 14.8367 23.9075 14.8367C23.9075 14.8201 23.8992 14.8034 23.8827 14.7868C23.8827 14.7701 23.8827 14.7535 23.8827 14.7368C23.8827 14.7368 23.8744 14.7285 23.8579 14.7118C23.8579 14.6952 23.8497 14.6785 23.8332 14.6619C23.8167 14.6619 23.8084 14.6536 23.8084 14.6369C23.7919 14.6369 23.7754 14.6286 23.7589 14.6119C23.7424 14.6119 23.7341 14.6119 23.7341 14.6119C23.7176 14.6119 23.7093 14.6036 23.7093 14.587C23.6928 14.587 23.6763 14.587 23.6598 14.587C23.6598 14.587 23.6516 14.587 23.6351 14.587C23.6185 14.587 23.602 14.587 23.5855 14.587C23.569 14.587 23.5525 14.587 23.536 14.587C23.5195 14.587 23.503 14.587 23.4865 14.587C23.4534 14.587 23.4287 14.587 23.4122 14.587C22.9004 14.5703 22.3886 14.562 21.8768 14.562H20.7128C20.6798 14.562 20.6385 14.562 20.589 14.562C20.556 14.562 20.523 14.562 20.4899 14.562C20.4404 14.562 20.3991 14.562 20.3661 14.562C20.3331 14.562 20.2918 14.562 20.2423 14.562C20.2423 14.562 20.234 14.562 20.2175 14.562ZM22.5949 17.2596C22.5784 17.2596 22.5537 17.2512 22.5206 17.2346C22.4876 17.2346 22.4546 17.2346 22.4216 17.2346C22.3886 17.2346 22.3555 17.2346 22.3225 17.2346C22.2895 17.2346 22.2565 17.2346 22.2235 17.2346C22.1904 17.2346 22.1657 17.2346 22.1492 17.2346C22.1161 17.2346 22.0831 17.2346 22.0501 17.2346C22.0171 17.2512 21.9923 17.2596 21.9758 17.2596C21.9428 17.2596 21.9098 17.2679 21.8768 17.2845L21.6786 17.3595C21.6456 17.3761 21.6209 17.3928 21.6043 17.4094C21.5713 17.4261 21.5466 17.4427 21.5301 17.4594C21.497 17.476 21.4723 17.4927 21.4558 17.5093C21.4392 17.526 21.4145 17.551 21.3815 17.5843C21.3154 17.6675 21.2576 17.7508 21.2081 17.834C21.1421 17.934 21.0843 18.0255 21.0348 18.1088C20.9852 18.2087 20.944 18.3086 20.9109 18.4085C20.8614 18.5084 20.8201 18.6084 20.7871 18.7083C20.7706 18.7249 20.7623 18.7499 20.7623 18.7832C20.7623 18.7999 20.7623 18.8248 20.7623 18.8581C20.7458 18.8748 20.7376 18.8998 20.7376 18.9331C20.7376 18.9497 20.7376 18.9747 20.7376 19.008C20.7376 19.0247 20.7458 19.0496 20.7623 19.0829C20.7623 19.0996 20.7706 19.1246 20.7871 19.1579C20.8036 19.1745 20.8284 19.1828 20.8614 19.1828C20.8779 19.1995 20.9027 19.2078 20.9357 19.2078C20.9357 19.2078 20.944 19.2078 20.9605 19.2078C20.9605 19.2078 20.9687 19.2078 20.9852 19.2078C20.9852 19.2078 20.9935 19.2078 21.01 19.2078C21.01 19.2078 21.0182 19.2078 21.0348 19.2078L21.8272 19.1579C21.8602 19.1579 21.885 19.1579 21.9015 19.1579C21.9345 19.1412 21.9676 19.1246 22.0006 19.1079C22.0336 19.0913 22.0584 19.0746 22.0749 19.058C22.1079 19.0413 22.1327 19.0247 22.1492 19.008C22.1822 18.958 22.2152 18.9164 22.2482 18.8831C22.3968 18.7083 22.5206 18.5334 22.6692 18.3586C22.6857 18.3253 22.7022 18.3003 22.7188 18.2836C22.7353 18.2503 22.7518 18.2254 22.7683 18.2087C22.7848 18.1754 22.7931 18.1504 22.7931 18.1338C22.8096 18.1005 22.8261 18.0755 22.8426 18.0588C22.8591 18.0422 22.8673 18.0172 22.8673 17.9839C22.8839 17.9673 22.8921 17.9506 22.8921 17.934C22.9086 17.9173 22.9169 17.8923 22.9169 17.859C22.9334 17.8424 22.9416 17.8257 22.9416 17.8091C22.9581 17.7591 22.9664 17.7175 22.9664 17.6842C22.9664 17.6342 22.9581 17.5926 22.9416 17.5593C22.9251 17.5093 22.9004 17.4677 22.8673 17.4344C22.8508 17.4011 22.8178 17.3761 22.7683 17.3595C22.7683 17.3595 22.76 17.3511 22.7435 17.3345C22.727 17.3345 22.7105 17.3262 22.694 17.3095C22.6775 17.3095 22.661 17.3095 22.6445 17.3095C22.6445 17.2929 22.6362 17.2845 22.6197 17.2845L22.5949 17.2596ZM17.5677 12.3639C17.5347 12.3639 17.5017 12.3723 17.4686 12.3889C17.4356 12.3889 17.4109 12.4056 17.3943 12.4389C17.3613 12.4555 17.3366 12.4805 17.3201 12.5138C17.3201 12.5471 17.3201 12.5804 17.3201 12.6137V13.8126C17.3201 13.8459 17.3201 13.8792 17.3201 13.9126C17.3366 13.9459 17.3613 13.9708 17.3943 13.9875C17.4109 14.0208 17.4356 14.0374 17.4686 14.0374C17.5017 14.0541 17.5347 14.0624 17.5677 14.0624H18.8555C18.8885 14.0624 18.9215 14.0541 18.9545 14.0374C18.9875 14.0374 19.0123 14.0208 19.0288 13.9875C19.0618 13.9708 19.0866 13.9459 19.1031 13.9126C19.1031 13.8792 19.1031 13.8459 19.1031 13.8126V12.6137C19.1031 12.5804 19.1031 12.5471 19.1031 12.5138C19.0866 12.4805 19.0618 12.4555 19.0288 12.4389C19.0123 12.4056 18.9875 12.3889 18.9545 12.3889C18.9215 12.3723 18.8885 12.3639 18.8555 12.3639H17.5677ZM14.8683 11.8644C14.8683 11.8477 14.8601 11.8394 14.8436 11.8394C14.8271 11.8394 14.8188 11.8394 14.8188 11.8394C14.8023 11.8394 14.7941 11.8477 14.7941 11.8644L12.6891 13.2132C12.6725 13.2132 12.6643 13.2215 12.6643 13.2382C12.6643 13.2382 12.6643 13.2465 12.6643 13.2631C12.6643 13.2631 12.6643 13.2715 12.6643 13.2881C12.6643 13.3048 12.6725 13.3131 12.6891 13.3131L14.7941 14.6619C14.7941 14.6619 14.8023 14.6702 14.8188 14.6869C14.8188 14.6869 14.8271 14.6869 14.8436 14.6869C14.8601 14.6702 14.8683 14.6619 14.8683 14.6619L16.2056 13.3131C16.2222 13.3131 16.2304 13.3048 16.2304 13.2881C16.2304 13.2881 16.2304 13.2798 16.2304 13.2631C16.2304 13.2631 16.2304 13.2548 16.2304 13.2382C16.2304 13.2382 16.2222 13.2298 16.2056 13.2132L14.8683 11.8644ZM18.5831 6.79391C18.5831 6.79391 18.5748 6.78559 18.5583 6.76893C18.5418 6.76893 18.5335 6.76893 18.5335 6.76893C18.517 6.76893 18.5088 6.77726 18.5088 6.79391C18.4922 6.79391 18.484 6.80224 18.484 6.81889C18.451 6.85219 18.4262 6.89382 18.4097 6.94378C18.3932 6.99373 18.3767 7.03536 18.3602 7.06867C18.3271 7.10197 18.3024 7.1436 18.2859 7.19355C18.2694 7.22686 18.2446 7.26016 18.2116 7.29346C18.1951 7.32677 18.1703 7.3684 18.1373 7.41835C18.1043 7.46831 18.0712 7.51826 18.0382 7.56822C17.9887 7.61818 17.9474 7.66813 17.9144 7.71809C17.8649 7.76804 17.8236 7.818 17.7906 7.86795C17.7411 7.90126 17.6915 7.94289 17.642 7.99284C17.4439 8.14271 17.2375 8.29257 17.0229 8.44244C16.9899 8.47574 16.9486 8.50072 16.8991 8.51737C16.8495 8.55068 16.8 8.58398 16.7505 8.61728C16.7009 8.65059 16.6514 8.67556 16.6019 8.69222C16.5358 8.72552 16.4781 8.7505 16.4285 8.76715C16.3625 8.80045 16.2964 8.82543 16.2304 8.84208C16.1479 8.87539 16.0736 8.90036 16.0075 8.91701C15.925 8.93367 15.8507 8.95032 15.7846 8.96697C15.7021 8.98362 15.6278 8.99195 15.5618 8.99195C15.4462 9.0086 15.3389 9.02525 15.2398 9.0419C15.2233 9.0419 15.2151 9.0419 15.2151 9.0419C15.2151 9.0419 15.2068 9.05023 15.1903 9.06688C15.1903 9.06688 15.1903 9.07521 15.1903 9.09186C15.1903 9.09186 15.1903 9.10018 15.1903 9.11684C15.2068 9.15014 15.2233 9.18344 15.2398 9.21675C15.2728 9.31666 15.3224 9.40824 15.3884 9.4915C15.4379 9.59141 15.4875 9.69132 15.537 9.79123C15.5865 9.89114 15.6443 9.98273 15.7103 10.066C15.7599 10.1659 15.8177 10.2658 15.8837 10.3657C15.9167 10.3824 15.9415 10.4074 15.958 10.4407C15.991 10.474 16.0158 10.5073 16.0323 10.5406C16.0653 10.5739 16.0901 10.5988 16.1066 10.6155C16.1396 10.6488 16.1644 10.6821 16.1809 10.7154C16.2304 10.7487 16.2717 10.782 16.3047 10.8153C16.3377 10.8486 16.379 10.8819 16.4285 10.9152C16.4781 10.9485 16.5193 10.9735 16.5523 10.9902C16.6019 11.0235 16.6514 11.0484 16.7009 11.0651C16.734 11.0817 16.767 11.0984 16.8 11.1151C16.833 11.1151 16.866 11.1234 16.8991 11.14C16.9321 11.1567 16.9651 11.165 16.9981 11.165C17.0311 11.1817 17.0724 11.19 17.1219 11.19C17.1715 11.2066 17.221 11.215 17.2705 11.215C17.3366 11.2316 17.3943 11.2399 17.4439 11.2399C17.5099 11.2399 17.5677 11.2483 17.6172 11.2649C17.6833 11.2649 17.7411 11.2649 17.7906 11.2649H19.5984C19.6149 11.2649 19.6314 11.2649 19.6479 11.2649C19.681 11.2649 19.7057 11.2649 19.7222 11.2649C19.7387 11.2649 19.7552 11.2732 19.7718 11.2899C19.7883 11.2899 19.813 11.2982 19.8461 11.3149C19.8626 11.3149 19.8791 11.3232 19.8956 11.3399C19.9121 11.3399 19.9286 11.3482 19.9451 11.3648C19.9616 11.3815 19.9781 11.3981 19.9946 11.4148C19.9946 11.4481 20.0029 11.4731 20.0194 11.4897C20.0194 11.4897 20.0194 11.498 20.0194 11.5147C20.0194 11.5313 20.0194 11.5397 20.0194 11.5397C20.0194 11.5563 20.0277 11.5646 20.0442 11.5646C20.0607 11.6979 20.0772 11.8394 20.0937 11.9893C20.0937 12.0226 20.0937 12.0476 20.0937 12.0642C20.0937 12.0809 20.0937 12.0892 20.0937 12.0892C20.1102 12.1058 20.1185 12.1142 20.1185 12.1142C20.1185 12.1142 20.1267 12.1225 20.1432 12.1391C20.1432 12.1391 20.1515 12.1391 20.168 12.1391C20.1845 12.1391 20.201 12.1391 20.2175 12.1391C20.234 12.1391 20.2423 12.1391 20.2423 12.1391C20.2588 12.1391 20.2753 12.1391 20.2918 12.1391C20.3083 12.1391 20.3248 12.1391 20.3413 12.1391H22.6692L23.7341 12.1641C23.7341 12.1641 23.7424 12.1641 23.7589 12.1641C23.7589 12.1641 23.7671 12.1641 23.7836 12.1641C23.7836 12.1641 23.7919 12.1641 23.8084 12.1641C23.8084 12.1641 23.8167 12.1641 23.8332 12.1641C23.8332 12.1641 23.8414 12.1641 23.8579 12.1641C23.8744 12.1475 23.891 12.1391 23.9075 12.1391C23.9075 12.1225 23.9157 12.1142 23.9322 12.1142C23.9322 12.0975 23.9405 12.0809 23.957 12.0642C23.957 12.0476 23.957 12.0392 23.957 12.0392C23.957 12.0226 23.957 12.0142 23.957 12.0142C23.957 12.0142 23.957 12.0059 23.957 11.9893C23.9818 11.9143 23.9818 11.8144 23.9818 11.7395C24.0065 11.4897 24.0313 11.215 24.056 10.9652C24.0808 10.8903 24.0808 10.8153 24.0808 10.7154C24.0808 10.7154 24.0808 10.7071 24.0808 10.6904C24.0808 10.6738 24.0808 10.6655 24.0808 10.6655C24.0808 10.6488 24.0808 10.6405 24.0808 10.6405C24.0808 10.5905 24.0313 10.5655 24.0065 10.5905C23.9735 10.6238 23.9405 10.6488 23.9075 10.6655C23.8744 10.6821 23.8414 10.7071 23.8084 10.7404C23.7589 10.757 23.7176 10.7737 23.6846 10.7903C23.6516 10.807 23.6185 10.8236 23.5855 10.8403C23.5195 10.8736 23.4534 10.9069 23.3874 10.9402C23.3214 10.9569 23.2471 10.9818 23.1645 11.0151C23.0985 11.0318 23.0324 11.0568 22.9664 11.0901C22.9004 11.1067 22.8343 11.1234 22.7683 11.14C22.7188 11.1567 22.6692 11.165 22.6197 11.165C22.5702 11.1817 22.5206 11.19 22.4711 11.19C22.4216 11.19 22.3803 11.19 22.3473 11.19C22.2978 11.19 22.2482 11.19 22.1987 11.19C22.1492 11.1733 22.1079 11.165 22.0749 11.165C22.0253 11.165 21.9841 11.1567 21.9511 11.14C21.9015 11.14 21.8602 11.14 21.8272 11.14C21.7777 11.1234 21.7364 11.1151 21.7034 11.1151C21.6209 11.0817 21.5466 11.0568 21.4805 11.0401C21.398 11.0068 21.3237 10.9735 21.2576 10.9402C21.1751 10.9069 21.1008 10.8736 21.0348 10.8403C20.9687 10.7903 20.9027 10.7404 20.8366 10.6904C20.8036 10.6571 20.7623 10.6238 20.7128 10.5905C20.6798 10.5572 20.6468 10.5239 20.6138 10.4906C20.5807 10.4573 20.5395 10.424 20.4899 10.3907C20.4569 10.3407 20.4239 10.2991 20.3909 10.2658C20.3083 10.1326 20.2258 10.0077 20.1432 9.89114C20.0607 9.75793 19.9864 9.61639 19.9203 9.46652C19.8543 9.33331 19.7965 9.19177 19.747 9.0419C19.6975 8.89204 19.6562 8.74217 19.6232 8.5923C19.6067 8.50905 19.5901 8.43411 19.5736 8.36751C19.5736 8.28425 19.5654 8.20099 19.5489 8.11773C19.5489 8.03447 19.5489 7.95121 19.5489 7.86795C19.5654 7.78469 19.5736 7.70143 19.5736 7.61818C19.5901 7.60152 19.5984 7.5932 19.5984 7.5932C19.5984 7.57655 19.5984 7.55989 19.5984 7.54324C19.5984 7.52659 19.5984 7.50994 19.5984 7.49329C19.5984 7.49329 19.5984 7.48496 19.5984 7.46831C19.5984 7.43501 19.5984 7.4017 19.5984 7.3684C19.5984 7.35175 19.5984 7.33509 19.5984 7.31844C19.5819 7.30179 19.5736 7.29346 19.5736 7.29346C19.5571 7.27681 19.5489 7.26849 19.5489 7.26849C19.5324 7.25184 19.5159 7.24351 19.4993 7.24351C19.4993 7.24351 19.4911 7.24351 19.4746 7.24351C19.4581 7.24351 19.4498 7.24351 19.4498 7.24351C19.3838 7.24351 19.3177 7.23518 19.2517 7.21853C19.2022 7.20188 19.1526 7.18523 19.1031 7.16858C19.0371 7.13527 18.9793 7.1103 18.9298 7.09364C18.8802 7.06034 18.8307 7.01871 18.7812 6.96875C18.7151 6.9188 18.6491 6.86884 18.5831 6.81889V6.79391ZM20.9109 7.96786C20.8944 7.96786 20.8779 7.97619 20.8614 7.99284C20.8449 7.99284 20.8284 8.00117 20.8119 8.01782C20.7954 8.01782 20.7789 8.02614 20.7623 8.0428C20.7623 8.05945 20.7623 8.0761 20.7623 8.09275C20.7623 8.09275 20.7623 8.10108 20.7623 8.11773C20.7623 8.11773 20.7623 8.12605 20.7623 8.14271C20.7623 8.20931 20.7623 8.28425 20.7623 8.36751C20.7623 8.43411 20.7706 8.50072 20.7871 8.56733C20.8036 8.63393 20.8284 8.70054 20.8614 8.76715C20.8779 8.83376 20.9027 8.90036 20.9357 8.96697C20.9522 8.98362 20.9687 9.00027 20.9852 9.01693C20.9852 9.03358 20.9935 9.05023 21.01 9.06688C21.0265 9.10018 21.043 9.12516 21.0595 9.14181C21.0595 9.15847 21.0678 9.17512 21.0843 9.19177C21.1668 9.25838 21.2411 9.32498 21.3072 9.39159C21.3897 9.44155 21.4723 9.49983 21.5548 9.56643C21.6374 9.61639 21.7199 9.66635 21.8025 9.7163C21.885 9.76626 21.9758 9.81621 22.0749 9.86617C22.1079 9.88282 22.1492 9.89114 22.1987 9.89114C22.2482 9.9078 22.2978 9.91612 22.3473 9.91612C22.3968 9.93277 22.4463 9.93277 22.4959 9.91612C22.5454 9.91612 22.5949 9.9078 22.6445 9.89114C22.661 9.87449 22.6775 9.86617 22.694 9.86617C22.727 9.84952 22.7518 9.84119 22.7683 9.84119C22.8013 9.82454 22.8261 9.81621 22.8426 9.81621C22.8591 9.79956 22.8839 9.78291 22.9169 9.76626C22.9499 9.7496 22.9829 9.7163 23.0159 9.66634C23.049 9.63304 23.0737 9.59141 23.0902 9.54146C23.1067 9.4915 23.1067 9.44155 23.0902 9.39159C23.0902 9.34164 23.0737 9.29168 23.0407 9.24173C23.0242 9.24173 23.0159 9.2334 23.0159 9.21675C22.9994 9.20009 22.9829 9.18344 22.9664 9.16679C22.9664 9.15014 22.9581 9.13349 22.9416 9.11684C22.9251 9.11684 22.9169 9.10851 22.9169 9.09186C22.7353 8.89204 22.5702 8.69222 22.4216 8.49239C22.3555 8.42579 22.2895 8.35918 22.2235 8.29257C22.1904 8.27592 22.1574 8.25094 22.1244 8.21764C22.1079 8.20099 22.0749 8.18434 22.0253 8.16768C21.9923 8.15103 21.9593 8.14271 21.9263 8.14271C21.8933 8.12605 21.8602 8.11773 21.8272 8.11773C21.6456 8.08443 21.4805 8.05112 21.3319 8.01782L21.0348 7.99284L20.9109 7.96786ZM20.7376 5.94467C20.7376 5.89471 20.7293 5.84476 20.7128 5.7948C20.6798 5.74485 20.6468 5.70322 20.6138 5.66992C20.5807 5.63661 20.5395 5.61163 20.4899 5.59498C20.4404 5.56168 20.3909 5.54503 20.3413 5.54503C20.168 5.54503 20.0442 5.64494 19.9699 5.7948C19.9203 5.94467 19.9451 6.11951 20.0689 6.2444C20.168 6.36929 20.3413 6.39427 20.4899 6.34431C20.6385 6.26938 20.7376 6.11951 20.7376 5.96965V5.94467ZM13.5806 2.04815C13.465 2.01485 13.3494 1.98987 13.2339 1.97322C13.1183 1.95657 13.0027 1.94824 12.8872 1.94824C12.7716 1.93159 12.656 1.93159 12.5405 1.94824C12.3919 1.93159 12.2433 1.93159 12.0947 1.94824C11.9461 1.96489 11.7975 1.98987 11.6489 2.02317C11.5003 2.03982 11.3518 2.07313 11.2032 2.12308C11.0546 2.17304 10.9143 2.22299 10.7822 2.27295C10.6831 2.32291 10.5758 2.37286 10.4602 2.42282C10.3612 2.47277 10.2621 2.52273 10.1631 2.57268C10.064 2.62264 9.97319 2.67259 9.89064 2.72255C9.79158 2.78916 9.69253 2.84744 9.59347 2.89739C9.56045 2.9307 9.52743 2.95567 9.49441 2.97233C9.46139 2.98898 9.43662 3.00563 9.42011 3.02228C9.38709 3.03893 9.35407 3.06391 9.32106 3.09721C9.28804 3.11387 9.25502 3.13052 9.222 3.14717C8.90831 3.43025 8.60288 3.72166 8.3057 4.02139C8.25617 4.07134 8.20664 4.12962 8.15711 4.19623C8.15711 4.21288 8.14886 4.22121 8.13235 4.22121C8.13235 4.22121 8.13235 4.22954 8.13235 4.24619C8.11584 4.24619 8.10758 4.25451 8.10758 4.27116C8.10758 4.27116 8.10758 4.27949 8.10758 4.29614C8.10758 4.29614 8.10758 4.30447 8.10758 4.32112C8.10758 4.33777 8.10758 4.3461 8.10758 4.3461C8.10758 4.3461 8.10758 4.35442 8.10758 4.37108C8.12409 4.37108 8.13235 4.37108 8.13235 4.37108C8.13235 4.37108 8.13235 4.3794 8.13235 4.39605C8.14886 4.39605 8.15711 4.39605 8.15711 4.39605C8.52033 4.69579 8.8918 4.98719 9.27153 5.27027C9.35407 5.33688 9.43662 5.41181 9.51917 5.49507C9.53568 5.51172 9.56045 5.52837 9.59347 5.54503C9.60998 5.56168 9.62649 5.58666 9.643 5.61996C9.65951 5.63661 9.67602 5.65326 9.69253 5.66992C9.70904 5.70322 9.71729 5.73652 9.71729 5.76983C9.75031 5.81978 9.77507 5.87806 9.79158 5.94467C9.8246 5.99463 9.84937 6.05291 9.86588 6.11951C9.88239 6.18612 9.8989 6.25273 9.91541 6.31934C9.93192 6.38594 9.94843 6.45255 9.96494 6.51916C9.98145 6.58576 9.99796 6.64405 10.0145 6.694C10.0145 6.71065 10.0227 6.7273 10.0392 6.74396C10.0392 6.76061 10.0475 6.76893 10.064 6.76893C10.064 6.78559 10.0723 6.79391 10.0888 6.79391C10.1053 6.79391 10.1218 6.79391 10.1383 6.79391C10.1383 6.79391 10.1465 6.79391 10.1631 6.79391C10.1631 6.81056 10.1713 6.81889 10.1878 6.81889C10.1878 6.81889 10.1961 6.81056 10.2126 6.79391C10.2126 6.79391 10.2208 6.79391 10.2373 6.79391C10.3529 6.79391 10.4767 6.80224 10.6088 6.81889C10.7244 6.81889 10.8482 6.82721 10.9803 6.84387C11.0959 6.86052 11.2197 6.87717 11.3518 6.89382C11.4673 6.91047 11.5912 6.93545 11.7232 6.96875C11.8058 6.98541 11.8966 7.00206 11.9956 7.01871C12.0947 7.05201 12.1855 7.07699 12.2681 7.09364C12.3671 7.12695 12.4579 7.15192 12.5405 7.16858C12.6395 7.20188 12.7386 7.23518 12.8376 7.26849C13.0853 7.34342 13.0853 7.34342 13.0853 7.06867C13.0688 7.01871 13.0605 6.96875 13.0605 6.9188C13.0605 6.86884 13.0688 6.81056 13.0853 6.74396C13.0853 6.694 13.0853 6.64404 13.0853 6.59409C13.1018 6.54413 13.1183 6.49418 13.1348 6.44422C13.1513 6.37762 13.1678 6.31101 13.1843 6.2444C13.2009 6.19445 13.2256 6.13617 13.2586 6.06956C13.2917 6.00295 13.3247 5.94467 13.3577 5.89471C13.3907 5.84476 13.432 5.7948 13.4815 5.74485C13.498 5.71155 13.5145 5.67824 13.5311 5.64494C13.5476 5.62829 13.5723 5.60331 13.6053 5.57C13.6219 5.55335 13.6466 5.5367 13.6796 5.52005C13.6962 5.48675 13.7209 5.46177 13.7539 5.44512C13.8035 5.39516 13.853 5.35353 13.9025 5.32023C13.9686 5.27027 14.0346 5.22864 14.1006 5.19534C14.1502 5.17869 14.208 5.15371 14.274 5.12041C14.34 5.10375 14.4061 5.0871 14.4721 5.07045C14.5051 5.0538 14.5464 5.04547 14.5959 5.04547C14.629 5.02882 14.662 5.0205 14.695 5.0205C14.728 5.0205 14.7693 5.0205 14.8188 5.0205C14.8518 5.0205 14.8849 5.0205 14.9179 5.0205C14.9674 5.0205 15.0169 5.03715 15.0665 5.07045C15.116 5.0871 15.1655 5.11208 15.2151 5.14538C15.2481 5.17869 15.2811 5.21199 15.3141 5.2453C15.3471 5.29525 15.3719 5.34521 15.3884 5.39516C15.3884 5.41181 15.3884 5.42846 15.3884 5.44512C15.4049 5.46177 15.4132 5.48675 15.4132 5.52005C15.4132 5.5367 15.4132 5.55335 15.4132 5.57C15.4297 5.58666 15.4379 5.61163 15.4379 5.64494C15.4627 5.76983 15.4627 5.94467 15.4875 6.06956C15.4875 6.16947 15.4957 6.27771 15.5122 6.39427C15.5122 6.42757 15.5205 6.46088 15.537 6.49418C15.5535 6.51083 15.57 6.52748 15.5865 6.54413C15.603 6.57744 15.6195 6.60242 15.6361 6.61907C15.6691 6.63572 15.7021 6.64405 15.7351 6.64405C15.7516 6.6607 15.7681 6.66902 15.7846 6.66902C15.8012 6.66902 15.8259 6.66902 15.8589 6.66902C15.8754 6.66902 15.892 6.66902 15.9085 6.66902C15.925 6.66902 15.9497 6.6607 15.9828 6.64405C15.9993 6.64405 16.0158 6.63572 16.0323 6.61907C16.0488 6.61907 16.0653 6.61074 16.0818 6.59409C16.0983 6.57744 16.1148 6.56079 16.1313 6.54413C16.1479 6.54413 16.1726 6.53581 16.2056 6.51916C16.2222 6.48585 16.2469 6.45255 16.2799 6.41925C16.313 6.38594 16.3377 6.35264 16.3542 6.31934C16.3872 6.28603 16.412 6.25273 16.4285 6.21942C16.445 6.18612 16.4615 6.14449 16.4781 6.09454C16.4946 6.06123 16.5111 6.0196 16.5276 5.96965C16.5441 5.91969 16.5606 5.86974 16.5771 5.81978C16.5936 5.76983 16.6019 5.71987 16.6019 5.66992C16.6019 5.61996 16.6101 5.57833 16.6266 5.54503C16.6514 5.39516 16.6514 5.27027 16.6514 5.12041C16.6514 5.07045 16.6514 5.0205 16.6514 4.97054C16.6514 4.93724 16.6432 4.89561 16.6266 4.84565C16.6266 4.7957 16.6266 4.74574 16.6266 4.69579C16.6101 4.64583 16.6019 4.6042 16.6019 4.5709C16.5689 4.45433 16.5358 4.3461 16.5028 4.24619C16.4698 4.14628 16.4285 4.04637 16.379 3.94646C16.3295 3.8632 16.2799 3.77161 16.2304 3.6717C16.1644 3.58844 16.0983 3.50518 16.0323 3.42192C15.9828 3.38862 15.9415 3.35532 15.9085 3.32201C15.8589 3.27206 15.8177 3.23043 15.7846 3.19712C15.7351 3.16382 15.6938 3.12219 15.6608 3.07224C15.6113 3.03893 15.57 3.00563 15.537 2.97233C15.471 2.93902 15.4049 2.89739 15.3389 2.84744C15.2728 2.79748 15.2068 2.75585 15.1408 2.72255C15.0912 2.67259 15.0334 2.63096 14.9674 2.59766C14.9014 2.56436 14.8353 2.52273 14.7693 2.47277C14.7032 2.43947 14.6372 2.40616 14.5712 2.37286C14.5051 2.33956 14.4308 2.30625 14.3483 2.27295C14.2822 2.23965 14.2162 2.21467 14.1502 2.19802C14.0676 2.16471 13.9933 2.13974 13.9273 2.12308C13.8117 2.08978 13.6962 2.0648 13.5806 2.04815Z" fill="url(#paint0_linear_241_16)"/>
<path d="M40.178 0L40.1532 6.46922H38.3702V1.97324L37.1072 6.46922H36.067L34.804 2.04817V6.46922H34.1602V0H36.067L37.1567 3.9215L38.2463 0H40.178Z" fill="url(#paint1_linear_241_16)"/>
<path d="M46.3939 0V0.64942H44.0908V2.62266H46.0224V3.27208H44.0908V5.84478L46.7901 5.8198V6.46922H42.2334V0H46.3939Z" fill="url(#paint2_linear_241_16)"/>
<path d="M54.2938 0V6.46922H52.486V1.97324L51.2478 6.46922H50.2077L48.9199 2.04817V6.46922H48.3008V0H50.1829L51.2973 3.9215L52.387 0H54.2938Z" fill="url(#paint3_linear_241_16)"/>
<path d="M60.5096 0V0.64942H58.2065V2.62266H60.1381V3.27208H58.2065V5.84478L60.9058 5.8198V6.46922H56.3491V0H60.5096Z" fill="url(#paint4_linear_241_16)"/>
<path d="M34.0609 23.2293L33.1941 23.3791C33.2106 23.3458 33.2189 23.3125 33.2189 23.2792C33.2189 23.2459 33.2271 23.2126 33.2437 23.1793C33.2437 23.1294 33.2437 23.0877 33.2437 23.0544C33.2437 23.0211 33.2437 22.9878 33.2437 22.9545C33.2437 22.2052 32.7896 21.8305 31.8816 21.8305C31.1882 21.8305 30.8167 22.0803 30.8167 22.6048C30.8167 22.9878 31.2129 23.3209 32.0054 23.6039C33.5573 24.1368 34.3333 24.9277 34.3333 25.9768C34.3333 26.11 34.325 26.2432 34.3085 26.3765C34.2755 26.5097 34.2342 26.6429 34.1847 26.7761C34.1187 26.9093 34.0444 27.0342 33.9618 27.1508C33.8793 27.2507 33.7885 27.3506 33.6894 27.4505C33.5573 27.5504 33.4253 27.6337 33.2932 27.7003C33.1611 27.7669 33.0208 27.8252 32.8722 27.8751C32.7236 27.9251 32.5667 27.9584 32.4016 27.975C32.2531 27.9917 32.1045 28 31.9559 28C30.3544 28 29.5537 27.3756 29.5537 26.1267C29.5537 26.0268 29.5537 25.9019 29.5785 25.752L30.4948 25.5522C30.4783 25.6188 30.4617 25.6771 30.4452 25.727C30.4287 25.7936 30.4205 25.8602 30.4205 25.9269C30.404 25.9768 30.3957 26.0351 30.3957 26.1017C30.3957 26.1517 30.3875 26.2099 30.3709 26.2765C30.3709 27.0758 30.8332 27.4755 31.7578 27.4755C32.4842 27.4755 32.8474 27.1924 32.8474 26.6262C32.8474 26.1933 32.4099 25.8103 31.5349 25.4773C30.2636 25.011 29.628 24.2617 29.628 23.2293C29.628 23.0961 29.6445 22.9628 29.6775 22.8296C29.694 22.6964 29.7353 22.5715 29.8014 22.455C29.8509 22.3384 29.9169 22.2218 29.9995 22.1053C30.082 22.0054 30.1728 21.9138 30.2719 21.8305C30.3875 21.7306 30.5113 21.6473 30.6434 21.5807C30.7754 21.5141 30.9158 21.4558 31.0644 21.4059C31.1964 21.3559 31.3368 21.3226 31.4854 21.306C31.6339 21.2893 31.7825 21.281 31.9311 21.281C33.351 21.2977 34.0609 21.9471 34.0609 23.2293Z" fill="url(#paint5_linear_241_16)"/>
<path d="M40.6237 21.4058V22.0552H39.0388V27.875H37.0576V22.0552H35.4727V21.4058H40.6237Z" fill="url(#paint6_linear_241_16)"/>
<path d="M46.889 21.4058V25.7519C46.889 27.2339 46.0718 27.9749 44.4373 27.9749C42.8028 27.9749 41.9856 27.2339 41.9856 25.7519V21.4058H43.8677V25.8018C43.8512 26.3846 43.9337 26.776 44.1154 26.9758C44.2639 27.1756 44.5611 27.3005 45.0069 27.3005C45.8489 27.3005 46.2699 26.7843 46.2699 25.7519V21.4058H46.889Z" fill="url(#paint7_linear_241_16)"/>
<path fill-rule="evenodd" clip-rule="evenodd" d="M48.8455 27.875V21.4058H51.52C53.4022 21.4058 54.3432 22.4881 54.3432 24.6529C54.3432 26.8176 53.3691 27.8916 51.421 27.875H48.8455ZM50.7028 27.3505H51.1981C51.2972 27.3671 51.3962 27.3588 51.4953 27.3255C51.5778 27.3088 51.6604 27.2672 51.7429 27.2006C51.8255 27.1506 51.8998 27.0923 51.9658 27.0257C52.0318 26.9425 52.0814 26.8592 52.1144 26.776C52.2878 26.3763 52.362 25.6769 52.362 24.6529C52.362 23.6371 52.2795 22.9294 52.1144 22.5298C52.0814 22.4465 52.0318 22.3632 51.9658 22.28C51.8998 22.2134 51.8255 22.1551 51.7429 22.1051C51.6604 22.0385 51.5696 21.9969 51.4705 21.9802C51.388 21.9636 51.2972 21.9553 51.1981 21.9553H50.7028V27.3505Z" fill="url(#paint8_linear_241_16)"/>
<path d="M58.0083 21.4058V27.875H56.1262V21.4058H58.0083Z" fill="url(#paint9_linear_241_16)"/>
<path fill-rule="evenodd" clip-rule="evenodd" d="M62.689 21.3059C64.5546 21.3059 65.4874 22.4216 65.4874 24.6529C65.4874 26.8843 64.5381 27.9999 62.6394 27.9999C60.7408 27.9999 59.7915 26.8593 59.7915 24.578C59.7915 22.3966 60.7573 21.3059 62.689 21.3059ZM62.6394 21.8055C62.5569 21.8055 62.4743 21.8221 62.3918 21.8554C62.3258 21.8887 62.2597 21.9304 62.1937 21.9803C62.1276 22.0303 62.0699 22.0969 62.0203 22.1801C61.9708 22.2467 61.946 22.3217 61.946 22.4049C61.814 22.7879 61.7479 23.5372 61.7479 24.6529C61.7479 25.7519 61.814 26.5013 61.946 26.9009C61.9708 27.0508 62.0699 27.2006 62.1937 27.3255C62.3175 27.4254 62.4909 27.4754 62.6394 27.4754C62.8128 27.4754 62.9861 27.4254 63.11 27.3255C63.2338 27.2006 63.3329 27.0508 63.3576 26.9009C63.4732 26.5013 63.5392 25.7519 63.5557 24.6529C63.5557 23.5539 63.4814 22.8046 63.3576 22.4049C63.3411 22.3217 63.3081 22.2467 63.2586 22.1801C63.2255 22.0969 63.176 22.0303 63.11 21.9803C63.0439 21.9304 62.9696 21.8887 62.8871 21.8554C62.8045 21.8221 62.722 21.8055 62.6394 21.8055Z" fill="url(#paint10_linear_241_16)"/>
<defs>
<linearGradient id="paint0_linear_241_16" x1="75.9777" y1="13.2819" x2="0.0222834" y2="13.2819" gradientUnits="userSpaceOnUse">
<stop stop-color="#7347E9"/>
<stop offset="0.32" stop-color="#5B31A3"/>
<stop offset="0.68" stop-color="#602E88"/>
<stop offset="1" stop-color="#9B4DDB"/>
</linearGradient>
<linearGradient id="paint1_linear_241_16" x1="39.3063" y1="-0.489563" x2="34.9767" y2="6.94916" gradientUnits="userSpaceOnUse">
<stop stop-color="#9B4DDB"/>
<stop offset="0.32" stop-color="#602E88"/>
<stop offset="0.68" stop-color="#5B31A3"/>
<stop offset="1" stop-color="#7347E9" stop-opacity="0.2"/>
</linearGradient>
<linearGradient id="paint2_linear_241_16" x1="46.3666" y1="-0.00249745" x2="42.4987" y2="6.63536" gradientUnits="userSpaceOnUse">
<stop stop-color="#9B4DDB"/>
<stop offset="0.32" stop-color="#602E88"/>
<stop offset="0.68" stop-color="#5B31A3"/>
<stop offset="1" stop-color="#7347E9"/>
</linearGradient>
<linearGradient id="paint3_linear_241_16" x1="53.4271" y1="-0.489563" x2="49.095" y2="6.94911" gradientUnits="userSpaceOnUse">
<stop stop-color="#9B4DDB"/>
<stop offset="0.32" stop-color="#602E88"/>
<stop offset="0.68" stop-color="#5B31A3"/>
<stop offset="1" stop-color="#7347E9"/>
</linearGradient>
<linearGradient id="paint4_linear_241_16" x1="60.4848" y1="-0.00249791" x2="56.6194" y2="6.63541" gradientUnits="userSpaceOnUse">
<stop stop-color="#9B4DDB"/>
<stop offset="0.32" stop-color="#602E88"/>
<stop offset="0.68" stop-color="#5B31A3"/>
<stop offset="1" stop-color="#7347E9"/>
</linearGradient>
<linearGradient id="paint5_linear_241_16" x1="33.6102" y1="21.793" x2="30.2364" y2="27.5904" gradientUnits="userSpaceOnUse">
<stop stop-color="#9B4DDB"/>
<stop offset="0.32" stop-color="#602E88"/>
<stop offset="0.68" stop-color="#5B31A3"/>
<stop offset="1" stop-color="#7347E9"/>
</linearGradient>
<linearGradient id="paint6_linear_241_16" x1="39.487" y1="20.7588" x2="35.7745" y2="27.1331" gradientUnits="userSpaceOnUse">
<stop stop-color="#9B4DDB"/>
<stop offset="0.32" stop-color="#602E88"/>
<stop offset="0.68" stop-color="#5B31A3"/>
<stop offset="1" stop-color="#7347E9"/>
</linearGradient>
<linearGradient id="paint7_linear_241_16" x1="46.1436" y1="20.9836" x2="42.426" y2="27.3703" gradientUnits="userSpaceOnUse">
<stop stop-color="#9B4DDB"/>
<stop offset="0.32" stop-color="#602E88"/>
<stop offset="0.68" stop-color="#5B31A3"/>
<stop offset="1" stop-color="#7347E9"/>
</linearGradient>
<linearGradient id="paint8_linear_241_16" x1="52.7806" y1="21.5956" x2="49.0531" y2="27.9997" gradientUnits="userSpaceOnUse">
<stop stop-color="#9B4DDB"/>
<stop offset="0.32" stop-color="#602E88"/>
<stop offset="0.68" stop-color="#5B31A3"/>
<stop offset="1" stop-color="#7347E9"/>
</linearGradient>
<linearGradient id="paint9_linear_241_16" x1="58.6894" y1="21.8154" x2="55.4034" y2="27.456" gradientUnits="userSpaceOnUse">
<stop stop-color="#9B4DDB"/>
<stop offset="0.32" stop-color="#602E88"/>
<stop offset="0.68" stop-color="#5B31A3"/>
<stop offset="1" stop-color="#7347E9"/>
</linearGradient>
<linearGradient id="paint10_linear_241_16" x1="64.321" y1="21.7105" x2="60.9295" y2="27.5351" gradientUnits="userSpaceOnUse">
<stop stop-color="#9B4DDB"/>
<stop offset="0.32" stop-color="#602E88"/>
<stop offset="0.68" stop-color="#5B31A3"/>
<stop offset="1" stop-color="#7347E9"/>
</linearGradient>
</defs>
</svg>
