<svg xmlns="http://www.w3.org/2000/svg" xmlns:xlink="http://www.w3.org/1999/xlink" viewBox="0 0 322.21 209.36"><defs><style>.cls-1{fill:url(#linear-gradient);}.cls-2{fill:url(#linear-gradient-2);}.cls-3{fill:url(#linear-gradient-3);}.cls-4{fill:url(#linear-gradient-4);}.cls-5{fill:url(#linear-gradient-5);}.cls-6{fill:url(#linear-gradient-6);}.cls-7{fill:url(#linear-gradient-7);}.cls-8{fill:url(#linear-gradient-8);}.cls-9{fill:url(#linear-gradient-9);}.cls-10{fill:url(#linear-gradient-10);}.cls-11{fill:url(#linear-gradient-11);}</style><linearGradient id="linear-gradient" x1="-18.83" y1="-307.51" x2="-18.83" y2="-413.1" gradientTransform="matrix(1, 0, 0, -1, 176.85, -257.17)" gradientUnits="userSpaceOnUse"><stop offset="0" stop-color="#d49120"/><stop offset="0" stop-color="#d1951e"/><stop offset="0.32" stop-color="#f4c731"/><stop offset="0.68" stop-color="#f4f192"/><stop offset="1" stop-color="#e2b830"/></linearGradient><linearGradient id="linear-gradient-2" x1="163.28" y1="47.94" x2="146.02" y2="77.85" gradientTransform="matrix(1, 0, 0, 1, 0, 0)" xlink:href="#linear-gradient"/><linearGradient id="linear-gradient-3" x1="191.79" y1="49.89" x2="176.37" y2="76.58" gradientTransform="matrix(1, 0, 0, 1, 0, 0)" xlink:href="#linear-gradient"/><linearGradient id="linear-gradient-4" x1="220.3" y1="47.94" x2="203.03" y2="77.85" gradientTransform="matrix(1, 0, 0, 1, 0, 0)" xlink:href="#linear-gradient"/><linearGradient id="linear-gradient-5" x1="248.8" y1="49.89" x2="233.39" y2="76.58" gradientTransform="matrix(1, 0, 0, 1, 0, 0)" xlink:href="#linear-gradient"/><linearGradient id="linear-gradient-6" x1="140.28" y1="137.15" x2="126.83" y2="160.46" gradientTransform="matrix(1, 0, 0, 1, 0, 0)" xlink:href="#linear-gradient"/><linearGradient id="linear-gradient-7" x1="164.01" y1="133.01" x2="149.21" y2="158.64" gradientTransform="matrix(1, 0, 0, 1, 0, 0)" xlink:href="#linear-gradient"/><linearGradient id="linear-gradient-8" x1="190.89" y1="133.91" x2="176.07" y2="159.59" gradientTransform="matrix(1, 0, 0, 1, 0, 0)" xlink:href="#linear-gradient"/><linearGradient id="linear-gradient-9" x1="217.69" y1="136.36" x2="202.83" y2="162.11" gradientTransform="matrix(1, 0, 0, 1, 0, 0)" xlink:href="#linear-gradient"/><linearGradient id="linear-gradient-10" x1="241.55" y1="137.24" x2="228.45" y2="159.92" gradientTransform="matrix(1, 0, 0, 1, 0, 0)" xlink:href="#linear-gradient"/><linearGradient id="linear-gradient-11" x1="264.29" y1="136.82" x2="250.77" y2="160.24" gradientTransform="matrix(1, 0, 0, 1, 0, 0)" xlink:href="#linear-gradient"/></defs><title>memelogo</title><g id="圖層_1" data-name="圖層 1"><path class="cls-1" d="M50.65,50.52a24.42,24.42,0,0,0-4.38.94,29.82,29.82,0,0,0-8.47,4.3c-6.21,4.49-10,11.38-14.49,17.57l-15.06,21c-1.65,2.3-3.35,4.74-3.64,7.56-.34,3.21,1.23,6.28,2.86,9.06C13.52,121.3,21.4,130.29,28,140.22a52.63,52.63,0,0,0,3.76,5,34.85,34.85,0,0,0,4.71,4.62,26.34,26.34,0,0,0,9.43,4.87A32.7,32.7,0,0,0,54,155.92a16.55,16.55,0,0,0,2.44-.11,34.05,34.05,0,0,0,6.92-1.51,25.48,25.48,0,0,0,6.74-3.42,22.76,22.76,0,0,0,7-8,25.71,25.71,0,0,0,1.72-4.13A6.24,6.24,0,0,1,79,138a.59.59,0,0,1,.75-.32,2,2,0,0,1,.5.26,4.2,4.2,0,0,0,1.45.72,9.14,9.14,0,0,0,3,.41,9.61,9.61,0,0,0,4.52-1.24,12.79,12.79,0,0,0,3.53-3,8.77,8.77,0,0,0,1.5-2.6c.12-.34.24-.67.34-1a3.87,3.87,0,0,1,.5-1c.25-.39.5-.77.75-1.17a5.65,5.65,0,0,1,2.36-2.18c.52-.25,1-.52,1.52-.79.33-.18.67-.37,1-.57A4.49,4.49,0,0,0,102,124.2c.11-.18.22-.36.33-.56a17.26,17.26,0,0,0,1.26-2.64,5.42,5.42,0,0,1,.26-.6.58.58,0,0,1,.45-.32,3.43,3.43,0,0,1,.56,0,4.52,4.52,0,0,0,1-.12,9.47,9.47,0,0,0,1.48-.48,6.06,6.06,0,0,0,2.72-2.13,5,5,0,0,1,.47-.56,1,1,0,0,1,.65-.29H112c.68,0,1.36,0,2,0a6.48,6.48,0,0,0,1.45-.19,2.93,2.93,0,0,0,1.53-.88,3.73,3.73,0,0,0,.74-1.07c.16-.37.29-.76.43-1.14s.14-.47.23-.7A.65.65,0,0,1,119,112c.51,0,1,0,1.55,0,2.12,0,4.24,0,6.36,0,6.85,0,13.7,0,20.56.14,3.59,0,7.17,0,10.76.06l21.14,0c8.62,0,17.24,0,25.86.06,4.65,0,9.3,0,13.95,0l17.05.06c2.39,0,4.78,0,7.18,0a6.34,6.34,0,0,0,2.75-.64,5.67,5.67,0,0,0,2.33-1.74,1.52,1.52,0,0,1,1.24-.67l1.06,0c2,0,4.08,0,6.12.09.84,0,2.91.07,3.09.11l32.69-.08,6.45,0c3.1,0,6.19,0,9.3-.11l.48,0a2.18,2.18,0,0,0,1.83-1.2,4.7,4.7,0,0,0,.52-1.53,15.34,15.34,0,0,0,.13-3.58c0-.27-.06-.54-.1-.81a4.3,4.3,0,0,0-.38-1.25,2.22,2.22,0,0,0-1.22-1.13c-.18-.07-2.95-.12-3.14-.15V83.92a1,1,0,0,0-1-1H294.45a1,1,0,0,0-1,1v6.36a1,1,0,0,0,1,1h3.25a1,1,0,0,1,1,1v7h-9.22V94.77a1,1,0,0,0-1-1h-5.8a1,1,0,0,0-1,1v4.57h-4.73l-7.09.06V92.34a1,1,0,0,1,1-1h3.24a1,1,0,0,0,1-1V83.92a1,1,0,0,0-1-1H263a1,1,0,0,0-1,1V99.45l-2.35,0c-2.17,0-4.35,0-6.53,0a21.19,21.19,0,0,1-2.52-.17,3.13,3.13,0,0,1-2.12-1.1,6.74,6.74,0,0,0-.82-.78,4.45,4.45,0,0,0-1.87-1,8.86,8.86,0,0,0-1.61-.26c-1,0-1.95-.13-2.94-.14-4.67,0-9.35-.08-14-.12l-11.74,0-11.51,0-13.29,0-12.16-.08L163,95.65l-11.5-.09-15.5-.1L125.6,95.4l-5.63,0a4.64,4.64,0,0,1-.65,0,1.05,1.05,0,0,1-.91-.72,3.41,3.41,0,0,1-.14-.55c-.06-.29-.1-.59-.16-.88a2.71,2.71,0,0,0-1.5-2,2.53,2.53,0,0,0-.44-.21c-.37-.11-.73-.22-1.1-.31a10,10,0,0,0-1.54-.18,15.51,15.51,0,0,1-2.26-.28,1.33,1.33,0,0,1-1-.76,2.78,2.78,0,0,0-1-1.13c-.19-.13-.37-.24-.56-.35a9.67,9.67,0,0,0-3.31-1.11c-.21,0-.43,0-.64-.09a1,1,0,0,1-.78-.65,5,5,0,0,1-.16-.55c-.07-.26-.12-.53-.2-.79a6.38,6.38,0,0,0-1-2.12,4.47,4.47,0,0,0-1.94-1.58L100,80.8a6.85,6.85,0,0,1-2.31-1.51,10,10,0,0,1-1.5-1.92A17,17,0,0,1,95,75a18,18,0,0,0-1.19-2.31,11.9,11.9,0,0,0-2.46-2.92,7.68,7.68,0,0,0-5.23-2c-.38,0-.76,0-1.14,0a9,9,0,0,0-4.36,1.2,1.22,1.22,0,0,1-.37.16.32.32,0,0,1-.22-.07.69.69,0,0,1-.21-.24c-.14-.32-.26-.66-.39-1-.34-.89-.65-1.79-1-2.67a26.42,26.42,0,0,0-3.78-6.17,17.28,17.28,0,0,0-3-2.9,26.2,26.2,0,0,0-6.15-3.5,30.53,30.53,0,0,0-10.62-2.32A26.11,26.11,0,0,0,50.65,50.52ZM298.73,99.35h0C298.44,99.36,298.55,99.36,298.73,99.35ZM29,96.13a8.93,8.93,0,0,1-1.05-.25,12.17,12.17,0,0,1-2.68-1.25,44.32,44.32,0,0,1-4.1-3,7.81,7.81,0,0,1-.59-.56.67.67,0,0,1-.09-.91c.14-.18.26-.38.39-.57,2.86-3.92,5.7-7.85,8.79-11.66,1.08-1.33,2.14-2.69,3.22-4,.42-.52.89-1,1.34-1.52a.48.48,0,0,1,.62-.06,2.8,2.8,0,0,1,.32.2l.45.32c.44.29.86.6,1.32.86a1.4,1.4,0,0,1,.83,1.69c-.07.27-.13.54-.2.8a5.08,5.08,0,0,0,0,2.51.88.88,0,0,1,0,.16.37.37,0,0,1-.2.36c-.19.11-.39.2-.59.3a16.19,16.19,0,0,0-4.16,3,10.42,10.42,0,0,0-3.13,7.64,14.92,14.92,0,0,0,.66,3.62c.06.21.14.42.19.63a2.23,2.23,0,0,1,.08.56,1,1,0,0,1-.55.91A1.2,1.2,0,0,1,29,96.13Zm21.2-.35a2,2,0,0,1-.54-.7c-.12-.22-.22-.44-.33-.66a3,3,0,0,0-1.75-1.5,7,7,0,0,0-3.62-.3,3.88,3.88,0,0,0-2.24,1.25c-.09.09-.18.2-.27.31a.47.47,0,0,1-.58.15c-.23-.08-.46-.14-.7-.2A4,4,0,0,0,38.75,94q-.36,0-.72,0a2.82,2.82,0,0,1-1.19-.24,2.25,2.25,0,0,1-1.26-1.32A4.93,4.93,0,0,1,36.94,87a3.75,3.75,0,0,1,.89-.57,13.91,13.91,0,0,1,3.29-1.18,14.61,14.61,0,0,1,3.71-.43,13.08,13.08,0,0,1,2.12.14c.51.09,1,.14,1.54.2a11.08,11.08,0,0,1,3.28.93c1.11.51,2.18,1.11,3.25,1.7a4.7,4.7,0,0,1,1.35,1.16,2.9,2.9,0,0,1,.75,2,2.17,2.17,0,0,1-.33,1.16,5.76,5.76,0,0,1-.76,1,12.06,12.06,0,0,1-2.16,1.73c-.52.34-1.06.66-1.6,1a3.59,3.59,0,0,1-.66.31A1.42,1.42,0,0,1,50.16,95.78Zm-3.28,6.6a.65.65,0,0,1,0,1.15l-3,1.54a.57.57,0,0,0-.26.25l-1.69,2.9a.65.65,0,0,1-1.12,0l-1.69-2.9a.65.65,0,0,0-.27-.25l-3-1.54a.65.65,0,0,1,0-1.15l3-1.54a.81.81,0,0,0,.27-.25l1.69-2.91a.66.66,0,0,1,1.12,0l1.69,2.91a.69.69,0,0,0,.26.25Zm5.29-1A1.61,1.61,0,1,1,50.55,103,1.62,1.62,0,0,1,52.17,101.35Zm-20.55,3.22A1.61,1.61,0,1,1,33.23,103,1.61,1.61,0,0,1,31.62,104.57Zm-13.46,4.15-5.41-5.41a.25.25,0,0,1,0-.36l5.41-5.42a.26.26,0,0,1,.32,0L27,102.92a.25.25,0,0,1,0,.42l-8.52,5.42A.26.26,0,0,1,18.16,108.72Zm15.4,25.05a6.2,6.2,0,0,1-.45-.44c-.22-.27-.43-.55-.63-.83-.87-1.19-1.74-2.38-2.59-3.58-1.46-2-2.9-4-4.36-6l-4.88-6.63c-.22-.31-.42-.62-.63-.93a.75.75,0,0,1,.15-1,3.56,3.56,0,0,1,.54-.48c1.25-.85,2.49-1.72,3.75-2.56a11.58,11.58,0,0,1,2.88-1.3c.21-.07.43-.12.66-.18l.43,0c.17,0,.37,0,.55.09a1.24,1.24,0,0,1,1.09,1.45c-.05.22-.12.42-.19.64a14.64,14.64,0,0,0-.5,7A7.62,7.62,0,0,0,31,122.45,17.74,17.74,0,0,0,34.84,126a9.56,9.56,0,0,0,1.92,1c.28.1.38.23.3.45a3.63,3.63,0,0,0,0,2.09c.14.62.3,1.23.45,1.84a.41.41,0,0,1-.26.49,4.17,4.17,0,0,0-1.23.81,8.88,8.88,0,0,1-1.55,1l-.26.12A.68.68,0,0,1,33.56,133.77Zm14.56-21a10.18,10.18,0,0,0,1-1.2,4.25,4.25,0,0,1,.43-.59,3.15,3.15,0,0,1,.54-.49,1,1,0,0,1,1.09-.1l.5.28,3.4,1.92a6.77,6.77,0,0,1,1.44,1.06,3,3,0,0,1,.52.72,2,2,0,0,1,.1,1.51,3.1,3.1,0,0,1-.46.86,11.56,11.56,0,0,1-1.17,1.35,12.76,12.76,0,0,1-7.35,3.56,4.87,4.87,0,0,1-.66,0h-1a17.91,17.91,0,0,1-4.83-.65,13.47,13.47,0,0,1-3.89-1.64c-.27-.17-.55-.36-.81-.55a5.13,5.13,0,0,1-1.39-1.68,3.91,3.91,0,0,1-.33-2.92,3.72,3.72,0,0,1,.32-.92,1.24,1.24,0,0,1,1.11-.71l1,0a10,10,0,0,0,1.45-.13,4.44,4.44,0,0,0,1.33-.4.88.88,0,0,1,.23-.07A.41.41,0,0,1,41,112l.29.28A5.39,5.39,0,0,0,44.8,114,4,4,0,0,0,48.12,112.73Zm40.13,19.55a1.62,1.62,0,1,1-1.62-1.62A1.62,1.62,0,0,1,88.25,132.28Zm-19.26-2a6.23,6.23,0,0,1,2,3.67,13.17,13.17,0,0,1,.08,3c0,.38-.08.76-.09,1.13a3.53,3.53,0,0,1-.42,1.56,13.18,13.18,0,0,1-1.94,2.91,19.09,19.09,0,0,1-2,2,15.79,15.79,0,0,1-5.52,3.07,17.69,17.69,0,0,1-5.55.88,21.93,21.93,0,0,1-3.81-.25,11.07,11.07,0,0,1-1.11-.25,28.79,28.79,0,0,1-9.19-4.49,25.7,25.7,0,0,1-3.44-3c-.35-.37-.68-.77-1-1.17a5.07,5.07,0,0,1-.36-.54c-.23-.39-.21-.57.13-.85s.43-.32.65-.48c.88-.64,1.76-1.28,2.63-1.93.44-.32.87-.66,1.29-1A16.32,16.32,0,0,0,42.88,133a4.27,4.27,0,0,0,.78-1.14,9.06,9.06,0,0,0,.57-1.61c.08-.28.14-.58.22-.86a.67.67,0,0,1,.65-.53h.49a32.76,32.76,0,0,0,5-.35,17.53,17.53,0,0,0,2.77-.69c.67-.21,1.34-.45,2-.68l.54-.2a3,3,0,0,1,.32-.06.39.39,0,0,1,.46.35,3.77,3.77,0,0,1,0,.89,4.81,4.81,0,0,0,.19,2.26,9,9,0,0,0,2.51,4.13,6,6,0,0,0,4.14,1.64,5.43,5.43,0,0,0,.81-.09,2,2,0,0,0,1.34-1,4.09,4.09,0,0,0,.44-1.13,17.45,17.45,0,0,0,.31-2c.06-.38.11-.75.19-1.13a1.34,1.34,0,0,1,.38-.71,1,1,0,0,1,.56-.3A1.64,1.64,0,0,1,69,130.25Zm26.82-11.08a2.69,2.69,0,0,1,.65.29,1.47,1.47,0,0,1,.69,1.77,4.67,4.67,0,0,1-.4,1,10.07,10.07,0,0,1-.77,1.22c-.53.71-1.1,1.41-1.64,2.1-.13.16-.27.31-.41.47a1.83,1.83,0,0,1-1.34.66l-3.18.19a2.83,2.83,0,0,1-.41,0,.79.79,0,0,1-.75-.83,3.33,3.33,0,0,1,.18-1.21,14.52,14.52,0,0,1,2.44-4.49,2.64,2.64,0,0,1,1.14-.84l.86-.33a3.36,3.36,0,0,1,1.38-.22A5.35,5.35,0,0,1,95.81,119.17ZM86.3,108.35a16.68,16.68,0,0,0,1.87.05H92.9c2.07,0,4.14,0,6.2.06a8.7,8.7,0,0,1,.89,0,2.49,2.49,0,0,1,.47.12.83.83,0,0,1,.5.52,4.44,4.44,0,0,1,.15.63c.12,1.16.23,2.33.34,3.49a5.93,5.93,0,0,1,0,.73.23.23,0,0,1-.31.17l-.48-.3a13.4,13.4,0,0,0-3.11-1.41,9.26,9.26,0,0,0-4.28-.25,10.16,10.16,0,0,0-6,3.16,13,13,0,0,0-2,2.8c-.34.62-.66,1.25-1,1.88a10.58,10.58,0,0,0-1,3.93,18.08,18.08,0,0,0,0,2.85c0,.22,0,.43,0,.65a.38.38,0,0,1-.32.4H83a5.6,5.6,0,0,0-2.36.85c-.35.2-.68.44-1,.66-.11.08-.22.17-.33.24a.45.45,0,0,1-.63-.18l-.24-.52a13.84,13.84,0,0,0-9.5-8,16.08,16.08,0,0,0-2.75-.37c-.24,0-.49,0-.73-.06a.34.34,0,0,1-.27-.42,1,1,0,0,1,0-.17,2.14,2.14,0,0,1,.1-.22,25.47,25.47,0,0,1,3-4.71,8.91,8.91,0,0,1,2.48-2.09,9.32,9.32,0,0,1,1-.47,6.21,6.21,0,0,1,2.45-.5c2,0,4,0,6,.12.65,0,1.3,0,2,0a8.42,8.42,0,0,0,1.22-.13,2.3,2.3,0,0,0,1.44-.85,1.9,1.9,0,0,0,.51-1.26c0-.19,0-.37,0-.56s0-.28,0-.41a.52.52,0,0,1,.49-.47A2.64,2.64,0,0,1,86.3,108.35Zm-5.53-8.8a1,1,0,0,1,1,1v4.82a1,1,0,0,1-1,1H75.5a1,1,0,0,1-1-1v-4.82a1,1,0,0,1,1-1ZM70,103a.25.25,0,0,1,0,.36l-5.42,5.41a.25.25,0,0,1-.31,0l-8.53-5.42a.25.25,0,0,1,0-.42l8.53-5.42a.24.24,0,0,1,.31,0Zm19.4-21,1.18.14c.66.11,1.32.24,2,.34a2.87,2.87,0,0,1,1.66.78c.26.25.52.5.75.77.66.78,1.32,1.57,2,2.37a7,7,0,0,1,.53.66A1.41,1.41,0,0,1,97,89.14a5.53,5.53,0,0,1-1.12.47,3.13,3.13,0,0,1-2.29-.14,12.7,12.7,0,0,1-3.92-2.7,3.59,3.59,0,0,1-.61-.85,6.39,6.39,0,0,1-.76-3.28,1.62,1.62,0,0,1,0-.2.57.57,0,0,1,.61-.49Zm-9.85-4.78c.28.22.55.46.82.68A4.68,4.68,0,0,0,83,79a1,1,0,0,1,.24,0,.48.48,0,0,1,.41.44c0,.14,0,.28,0,.41a4.76,4.76,0,0,1-.06.65,10.2,10.2,0,0,0,.16,3.89,16.52,16.52,0,0,0,3.12,6.66,10.06,10.06,0,0,0,1.81,1.76,9.25,9.25,0,0,0,3.45,1.61,13.57,13.57,0,0,0,2,.32,6.68,6.68,0,0,0,2.27-.18,17.72,17.72,0,0,0,3.3-1.16,11.91,11.91,0,0,0,1.76-1c.12-.09.26,0,.27.17a1.69,1.69,0,0,1,0,.32c0,.33,0,.65-.07,1-.09,1-.2,2.06-.29,3.09,0,.32-.07.65-.11,1a1.65,1.65,0,0,1-.07.32.56.56,0,0,1-.49.38,2.67,2.67,0,0,1-.4,0L96,98.55H93.42v0l-6.77,0a6,6,0,0,1-.73,0,.33.33,0,0,1-.28-.26c0-.11,0-.21,0-.32-.08-.57-.16-1.13-.25-1.69a1.67,1.67,0,0,0-.08-.32,1.06,1.06,0,0,0-.7-.74,3.13,3.13,0,0,0-1-.17H82.47l-6.12,0a17,17,0,0,1-2.76-.28,7.69,7.69,0,0,1-1.63-.5,6.14,6.14,0,0,1-2.08-1.41,14,14,0,0,1-1.21-1.44A31,31,0,0,1,66,86.83c-.06-.12-.11-.25-.16-.38a.24.24,0,0,1,.19-.3c.44-.06.87-.13,1.3-.16a11.36,11.36,0,0,0,3.53-.92,14.67,14.67,0,0,0,2.43-1.33c.84-.56,1.64-1.16,2.42-1.8a10.07,10.07,0,0,0,2.06-2.31,17.5,17.5,0,0,0,1.07-1.83c.1-.19.2-.38.31-.57A.24.24,0,0,1,79.54,77.17Zm8.71-3.29a1.62,1.62,0,1,1-1.62-1.62A1.62,1.62,0,0,1,88.25,73.88ZM60.73,58.65a10,10,0,0,1,3.37,1.4,28.39,28.39,0,0,1,3.08,2,14.85,14.85,0,0,1,2,1.81,9.48,9.48,0,0,1,2.32,4.51,7.87,7.87,0,0,1,.18,2.27c0,.54,0,1.08-.08,1.63a7.88,7.88,0,0,1-.54,2.29,4.09,4.09,0,0,1-1.18,1.64,3.2,3.2,0,0,1-.9.55,1.39,1.39,0,0,1-1,0,1.24,1.24,0,0,1-.83-1c-.06-.46-.11-.92-.16-1.37s-.1-1.14-.18-1.71a4.37,4.37,0,0,0-.22-.95,2.14,2.14,0,0,0-1.86-1.49,4.87,4.87,0,0,0-1.78.15A7,7,0,0,0,60,71.9a8.33,8.33,0,0,0-1.12,1.18,7,7,0,0,0-1.38,2.83,8.83,8.83,0,0,0-.22,2.51c.06,1.12.06,1.09-1,.77A46.31,46.31,0,0,0,51.81,78a30.19,30.19,0,0,0-6-.64,1.79,1.79,0,0,1-.4,0,.57.57,0,0,1-.48-.4c-.07-.26-.12-.52-.18-.79a14.6,14.6,0,0,0-1-3,3,3,0,0,0-.82-1.1c-.33-.28-.68-.54-1-.81-1.5-1.18-3-2.34-4.49-3.52a1,1,0,0,1-.23-.23.31.31,0,0,1,0-.23,1.08,1.08,0,0,1,.21-.34c.21-.25.42-.5.65-.73q1.78-1.8,3.7-3.45a11.39,11.39,0,0,1,1.46-1A39,39,0,0,1,48,59.24a17.43,17.43,0,0,1,7.13-1.37A20.2,20.2,0,0,1,60.73,58.65Z"/><path class="cls-2" d="M166.75,49.94v25.9H159.5v-18l-5.05,18h-4.2l-5.18-17.72V75.84h-2.52V49.94h7.63l4.44,15.64L159,49.94Z"/><path class="cls-3" d="M191.89,49.94v2.6h-9.28v7.84h7.8V63h-7.8V73.25h10.85v2.59H175.09V49.94Z"/><path class="cls-4" d="M223.76,49.94v25.9h-7.25v-18l-5,18h-4.19l-5.18-17.72V75.84h-2.52V49.94h7.62l4.44,15.64,4.43-15.64Z"/><path class="cls-5" d="M248.9,49.94v2.6h-9.28v7.84h7.8V63h-7.8V73.25h10.86v2.59H232.11V49.94Z"/><path class="cls-6" d="M142.09,142.88l-3.49.64a8.5,8.5,0,0,0,.23-1.74q0-4.51-5.49-4.52c-2.88,0-4.33,1-4.33,3.11,0,1.56,1.62,2.89,4.84,4q9.35,3.21,9.34,9.49a7.37,7.37,0,0,1-2.62,5.91,10.4,10.4,0,0,1-7,2.23q-9.63,0-9.62-7.46c0-.41,0-.9.09-1.5l3.63-.8a11.89,11.89,0,0,0-.42,2.87q0,4.81,5.52,4.82,4.42,0,4.42-3.47c0-1.72-1.76-3.24-5.29-4.54q-7.65-2.81-7.65-9a7,7,0,0,1,2.55-5.63,10.13,10.13,0,0,1,6.71-2.14Q142.09,135.19,142.09,142.88Z"/><path class="cls-7" d="M168.56,135.63v2.6H162.2v23.3h-8v-23.3h-6.4v-2.6Z"/><path class="cls-8" d="M193.87,135.63V153q0,8.94-9.89,8.94T174.13,153V135.63h7.52v17.61c0,2.28.32,3.83,1,4.67s1.86,1.25,3.62,1.25q5.1,0,5.1-6.15V135.63Z"/><path class="cls-9" d="M201.83,161.53v-25.9h10.74q11.44,0,11.45,13t-11.86,12.92Zm7.52-2.14h2a3.77,3.77,0,0,0,3.76-2.35c.7-1.56,1-4.38,1-8.47s-.34-6.91-1-8.46a3.77,3.77,0,0,0-3.77-2.33h-2Z"/><path class="cls-10" d="M238.76,135.63v25.9h-7.52v-25.9Z"/><path class="cls-11" d="M257.73,135.18q11.31,0,11.31,13.39T257.52,162Q246,162,246,148.27,246,135.17,257.73,135.18Zm-.21,2.06a2.88,2.88,0,0,0-2.87,2.35q-.75,2.34-.75,9c0,4.43.25,7.42.75,9a2.94,2.94,0,0,0,5.75,0c.5-1.57.75-4.56.75-9s-.25-7.41-.75-9A2.9,2.9,0,0,0,257.52,137.24Z"/></g></svg>